<?xml version="1.0" encoding="UTF-8"?>
<svg version="1.1" xmlns="http://www.w3.org/2000/svg" width="1080" height="1080">
<path d="M0 0 C356.4 0 712.8 0 1080 0 C1080 356.4 1080 712.8 1080 1080 C723.6 1080 367.2 1080 0 1080 C0 723.6 0 367.2 0 0 Z " fill="#3D4FB3" transform="translate(0,0)"/>
<path d="M0 0 C356.4 0 712.8 0 1080 0 C1080 356.4 1080 712.8 1080 1080 C723.6 1080 367.2 1080 0 1080 C0 723.6 0 367.2 0 0 Z M62.60025785 76.20827779 C61 78 61 78 59.21369195 79.6740686 C54.51225254 84.31666271 53.18856449 87.68529257 53.08294067 94.2543987 C53.10132976 95.30829404 53.11971886 96.36218938 53.1386652 97.44802094 C53.13058829 98.58846206 53.12251138 99.72890318 53.11418971 100.90390313 C53.09562016 104.73592863 53.12709383 108.56590653 53.15821838 112.39782715 C53.15906401 115.16837363 53.14933406 117.93886044 53.14009422 120.70938921 C53.12559181 126.73816284 53.13705975 132.76645249 53.16556168 138.79516983 C53.20782461 147.75953045 53.20991077 156.72358622 53.20376776 165.68802831 C53.19457191 180.76781422 53.21795452 195.84738536 53.2598896 210.92710876 C53.30130551 225.85840416 53.32825054 240.78961011 53.3358593 255.72096252 C53.33634048 256.64926495 53.33682165 257.57756738 53.33731741 258.53400018 C53.33968574 263.24835852 53.34179543 267.96271694 53.34380554 272.67707545 C53.35850934 306.07091066 53.40567335 339.46462904 53.47192383 372.85839844 C53.5362119 405.30044941 53.58579862 437.74246841 53.61547852 470.18457031 C53.6163992 471.18453556 53.61731988 472.18450082 53.61826846 473.21476804 C53.62749809 483.2568088 53.63642879 493.2988498 53.64514048 503.34089102 C53.66289408 523.79777834 53.68264285 544.25466357 53.70359802 564.71154785 C53.70455905 565.65212711 53.70552008 566.59270637 53.70651023 567.56178803 C53.7360725 596.39223952 53.77409145 625.22267122 53.82044983 654.05310059 C53.82176273 654.87164593 53.82307564 655.69019128 53.82442833 656.53354103 C53.87773624 689.68903641 53.93999306 722.84451623 54 756 C134.19 756 214.38 756 297 756 C311.12586237 713.45245934 311.12586237 713.45245934 318 670 C341.99954627 675.68582722 341.99954627 675.68582722 350.6875 678 C352.40259766 678.45632813 352.40259766 678.45632813 354.15234375 678.921875 C357.16226942 679.76526534 360.1430071 680.65603313 363.12890625 681.578125 C375.39798978 685.27382681 386.19941702 686.79818878 399 686 C398.80889648 686.77375977 398.61779297 687.54751953 398.42089844 688.34472656 C396.5389002 695.98822122 394.68900903 703.63858471 392.87646484 711.29882812 C392.34740496 713.532964 391.81491553 715.76629712 391.27587891 717.99804688 C391.06753418 718.87009766 390.85918945 719.74214844 390.64453125 720.640625 C390.38313354 721.7239209 390.38313354 721.7239209 390.11645508 722.82910156 C387.63542699 734.79139654 388 742.90358987 388 756 C598.54 756 809.08 756 1026 756 C1026.86286931 666.2223393 1026.86286931 666.2223393 1027.41822815 576.44345093 C1027.42763605 574.36546861 1027.43708366 572.28748647 1027.44656616 570.20950449 C1027.46626788 565.88668829 1027.48581283 561.56387144 1027.50525212 557.24105406 C1027.53574219 550.48774161 1027.56736654 543.73443473 1027.59924126 536.98112869 C1027.60465649 535.83353246 1027.61007172 534.68593624 1027.61565105 533.50356437 C1027.62668163 531.16670046 1027.6377141 528.82983657 1027.64874845 526.49297269 C1027.75038899 504.94241108 1027.84894995 483.39183631 1027.94634294 461.84125514 C1028.02850218 443.67833733 1028.11349878 425.51543459 1028.20043945 407.35253906 C1028.44200528 356.81531005 1028.67167373 306.27808273 1028.86092567 255.74062729 C1028.87641843 251.61561823 1028.89195757 247.49060934 1028.90753174 243.36560059 C1028.91318523 241.86471897 1028.91318523 241.86471897 1028.91895293 240.33351651 C1028.97399707 225.80156314 1029.04103885 211.26970771 1029.11702476 196.73784982 C1029.18227163 184.2282141 1029.23504387 171.71859711 1029.27039403 159.20883954 C1029.28874452 152.90065147 1029.3131759 146.59266393 1029.35560799 140.28458786 C1029.3931416 134.69401617 1029.41262048 129.10370716 1029.41655278 123.51301336 C1029.42113529 121.54836086 1029.4324305 119.583709 1029.45142817 117.61914301 C1029.54393796 107.70448429 1029.53429879 99.08346583 1025 90 C1024.5857952 89.15466516 1024.1715904 88.30933033 1023.74483395 87.43837929 C1022.57931987 85.12771003 1021.33693247 82.87721297 1020.0625 80.625 C1019.43698242 79.47451172 1019.43698242 79.47451172 1018.79882812 78.30078125 C1014.96378153 71.43681841 1010.299279 67.0620549 1003.9375 62.4375 C998.21684089 58.2750532 998.21684089 58.2750532 996.25390625 55.78515625 C989.24870742 50.23684453 974.61521505 52.82825288 965.91461182 52.80381775 C964.06519974 52.7951072 962.21578958 52.78598025 960.36638141 52.77647549 C955.28504325 52.75159497 950.2036979 52.73271162 945.1223309 52.71484208 C939.6091929 52.69443063 934.09608011 52.66853954 928.58296204 52.64339447 C917.68990346 52.59462845 906.79682959 52.55117849 895.90374181 52.50950792 C886.90459756 52.47496158 877.90546406 52.43829616 868.90633392 52.4002552 C867.61275167 52.39479096 866.31916943 52.38932672 864.98638771 52.3836969 C862.351218 52.37256413 859.71604829 52.36143121 857.08087859 52.35029817 C823.98886449 52.21096601 790.89680253 52.08496072 757.80472447 51.96190154 C752.72007898 51.94298867 747.63543384 51.92398637 742.55078888 51.90493393 C670.18547857 51.63384165 597.8201138 51.38210102 487.31068632 51.04354519 C477.29221567 51.01320934 467.27374701 50.98227954 457.25527954 50.95090485 C402.02144058 50.7780273 346.78768672 50.62213059 291.55360794 50.55238628 C287.447319 50.54716189 283.3410301 50.54191119 279.23474121 50.53665161 C277.7241435 50.53474578 277.7241435 50.53474578 276.18302867 50.53280146 C261.06487955 50.51335916 245.94682922 50.47756144 230.82873535 50.43283081 C213.84365684 50.38260414 196.85869616 50.3529167 179.87353969 50.35242301 C170.53152967 50.35159071 161.18988941 50.33489341 151.84796642 50.29409801 C145.67428344 50.26882126 139.50084008 50.26548691 133.32712318 50.28007193 C129.83292134 50.2877413 126.33943464 50.28625926 122.84532404 50.25783241 C96.54733473 50.07967457 79.97935927 55.79930508 62.60025785 76.20827779 Z " fill="#232323" transform="translate(0,0)"/>
<path d="M0 0 C10.66157073 0.04215861 21.24306536 2.26938715 31.6875 4.1875 C32.54117157 4.34239899 33.39484314 4.49729797 34.27438354 4.65689087 C52.40307768 7.95238215 70.47645641 11.58945776 88.14453125 16.87890625 C92.49231931 18.16906905 96.88018865 19.30677951 101.26391602 20.4675293 C111.81754387 23.26492178 122.26322991 26.25122124 132.65234375 29.60546875 C141.64776205 32.50972086 150.73739028 35.10360938 159.84765625 37.62109375 C171.04819702 40.71761114 182.17642503 43.93616506 193.23510742 47.50854492 C201.44717952 50.16033642 209.70730589 52.61431437 218 55 C219.19882812 55.34804687 220.39765625 55.69609375 221.6328125 56.0546875 C226.46624144 57.44956968 231.30217392 58.82385781 236.16796875 60.1015625 C236.85938965 60.28323975 237.55081055 60.46491699 238.26318359 60.65209961 C240.21219974 61.16129575 242.16270348 61.66478785 244.11328125 62.16796875 C247 63 247 63 248 64 C247.79510922 69.02913736 247.14375899 74.09817576 246 79 C245.01 78.34 244.02 77.68 243 77 C242.84966309 77.61705811 242.69932617 78.23411621 242.54443359 78.86987305 C239.89244458 89.71536552 237.20370796 100.53455568 234.0625 111.25 C231.29236363 120.71516679 228.89739579 130.25818705 226.53979492 139.83349609 C224.9224989 146.3807844 223.23456073 152.8925505 221.375 159.375 C218.24323868 170.33231093 215.80344117 181.46986653 213.44677734 192.61669922 C213.18501709 193.84090576 213.18501709 193.84090576 212.91796875 195.08984375 C212.76481201 195.81937256 212.61165527 196.54890137 212.45385742 197.30053711 C212 199 212 199 211 200 C210.72415378 201.33753712 210.50362812 202.68657544 210.30737305 204.03808594 C210.18021408 204.89698425 210.05305511 205.75588257 209.92204285 206.64080811 C209.78663589 207.57918518 209.65122894 208.51756226 209.51171875 209.484375 C209.21452969 211.47270665 208.91699177 213.46098618 208.61914062 215.44921875 C208.15442423 218.58160708 207.6926778 221.71434817 207.23754883 224.84814453 C205.57257838 236.26534481 203.72530842 247.0610587 200 258 C199.09822281 261.27563148 198.29544497 264.57214472 197.5 267.875 C197.07378846 269.60958944 196.64669796 271.34396314 196.21875 273.078125 C195.909375 274.33399414 195.909375 274.33399414 195.59375 275.61523438 C192.05600295 289.82440922 188.03721508 303.92530524 184 318 C174.34725216 317.47148734 164.96838054 316.38190616 155.4375 314.75 C154.78803406 314.63984558 154.13856812 314.52969116 153.46942139 314.41619873 C129.09753992 310.26505458 105.55911499 303.40823733 82 296 C81.67 294.35 81.34 292.7 81 291 C73.1945368 288.74052381 65.32209843 287.31156079 57.3125 286 C56.25853027 285.82670166 55.20456055 285.65340332 54.11865234 285.47485352 C49.60931718 284.73811804 45.09893356 284.01302255 40.58203125 283.32421875 C32.36671413 282.02644562 24.46773843 280.09663787 16.4609375 277.87109375 C7.0797312 275.30267496 -2.33204019 272.91324626 -11.79887009 270.68519402 C-13.81138631 270.2111998 -15.82311198 269.73398388 -17.83462524 269.25575256 C-26.02066976 267.3102012 -26.02066976 267.3102012 -34.21533203 265.40136719 C-37.62794025 264.6141214 -41.03511147 263.80639519 -44.43954468 262.98454666 C-46.33615443 262.53269219 -48.23801534 262.10306303 -50.13989258 261.67391968 C-51.2770874 261.3965799 -52.41428223 261.11924011 -53.5859375 260.83349609 C-54.5867334 260.5992392 -55.5875293 260.3649823 -56.61865234 260.12362671 C-59 259 -59 259 -60.29882812 256.56948853 C-62.68163979 247.83752499 -63.32517804 239.01465782 -63 230 C-61.68 230.33 -60.36 230.66 -59 231 C-58.91363281 230.43796875 -58.82726562 229.8759375 -58.73828125 229.296875 C-56.39032164 215.25219916 -52.55095 201.51459882 -48.36987305 187.91967773 C-46.26626685 181.03025105 -44.39928137 174.08976048 -42.5625 167.125 C-40.42103259 159.02458981 -38.11545759 151.02236547 -35.5 143.0625 C-31.75140951 131.62803401 -28.79951988 120.01597123 -25.85717773 108.3527832 C-24.45614682 102.87276113 -22.98535548 97.41158775 -21.52078247 91.94827271 C-20.81608176 89.31195287 -20.11832844 86.67381879 -19.42112732 84.0355072 C-18.7273108 81.41023865 -18.03129118 78.78555622 -17.33520508 76.16088867 C-16.98062208 74.82221777 -16.62680597 73.48334353 -16.27368164 72.14428711 C-15.7534892 70.17247179 -15.23054037 68.2014057 -14.70703125 66.23046875 C-14.4025708 65.07957764 -14.09811035 63.92868652 -13.78442383 62.74291992 C-13 60 -13 60 -12 58 C-11.34 58 -10.68 58 -10 58 C-9.9492482 57.38811325 -9.8984964 56.7762265 -9.84620667 56.14579773 C-9.30602992 50.16812987 -8.39592428 44.38766652 -7.15234375 38.51953125 C-6.79093904 36.76108345 -6.42961323 35.00261943 -6.06835938 33.24414062 C-5.5020675 30.51850719 -4.93349455 27.79336815 -4.36303711 25.06860352 C-3.80783148 22.40757713 -3.26099185 19.744929 -2.71484375 17.08203125 C-2.54299057 16.27457962 -2.37113739 15.46712799 -2.19407654 14.63520813 C-1.24207978 9.97632837 -0.92916328 5.74838277 -1 1 C-0.67 0.67 -0.34 0.34 0 0 Z " fill="#222223" transform="translate(367,141)"/>
<path d="M0 0 C1.9751319 1.69049075 3.83932812 3.42323677 5.66015625 5.27734375 C6.15515625 5.77234375 6.15515625 5.77234375 6.66015625 6.27734375 C7.26961881 14.72704191 6.19791525 22.90361262 4.78515625 31.21484375 C4.61113281 32.31119141 4.43710937 33.40753906 4.2578125 34.53710938 C3.45890879 39.39266858 2.62479669 43.74201603 0.66015625 48.27734375 C-0.98984375 47.28734375 -2.63984375 46.29734375 -4.33984375 45.27734375 C-4.43910156 46.17195313 -4.53835938 47.0665625 -4.640625 47.98828125 C-5.46521164 53.73016729 -7.05230137 59.30040899 -8.52734375 64.90234375 C-8.83905518 66.09714355 -9.1507666 67.29194336 -9.47192383 68.52294922 C-11.62285787 76.71058696 -13.91003127 84.85118436 -16.27783203 92.97827148 C-17.98375055 98.88474189 -19.46619631 104.81388996 -20.81854248 110.81030273 C-21.90547754 115.56870905 -23.15177624 120.2648686 -24.49609375 124.95703125 C-27.84183731 136.83666142 -30.80851759 148.81321759 -33.79614258 160.78686523 C-34.44579661 163.39008714 -35.09813201 165.99261104 -35.75317383 168.59448242 C-39.51848625 183.5582636 -43.15398508 198.53447781 -46.41563416 213.61705017 C-48.29345235 222.27287106 -48.29345235 222.27287106 -49.48632812 226.27368164 C-50.19724893 228.77552909 -50.5970994 230.78832307 -50.6484375 233.36328125 C-50.67139893 234.06219482 -50.69436035 234.7611084 -50.71801758 235.48120117 C-50.73759521 236.19767822 -50.75717285 236.91415527 -50.77734375 237.65234375 C-51.17026707 246.52896901 -52.39615302 254.29350714 -58.33984375 261.27734375 C-71.86058123 272.0736018 -71.86058123 272.0736018 -81.33984375 271.27734375 C-97.30506544 269.35829185 -97.30506544 269.35829185 -103.95703125 264.16796875 C-108.46983761 257.99791712 -107.64895248 250.04668945 -107.58984375 242.77734375 C-107.58380127 241.5869751 -107.57775879 240.39660645 -107.5715332 239.17016602 C-107.48727937 231.4938762 -107.17359398 223.86433627 -106.52734375 216.21484375 C-106.45741211 215.374375 -106.38748047 214.53390625 -106.31542969 213.66796875 C-104.88551038 198.78769295 -101.81990478 184.278863 -98.11572266 169.81835938 C-97.46563837 167.28044592 -96.82566747 164.7401522 -96.1875 162.19921875 C-92.41198986 147.23714559 -88.29545397 132.38200191 -83.90234375 117.58984375 C-81.25562914 108.60086503 -78.80209562 99.57625993 -76.46899414 90.5012207 C-74.80011262 84.0124889 -73.04629693 77.55402552 -71.22729492 71.10595703 C-69.83445236 66.1388306 -68.53292847 61.153432 -67.26196289 56.15380859 C-54.76642445 7.22644605 -54.76642445 7.22644605 -45.08984375 -0.91015625 C-33.83195114 -7.39272298 -10.61569553 -7.81556215 0 0 Z " fill="#222326" transform="translate(311.33984375,111.72265625)"/>
<path d="M0 0 C1.16203416 1.10825793 2.31236403 2.22930018 3.4375 3.375 C3.9325 3.87 3.9325 3.87 4.4375 4.375 C6.67946913 31.88223667 -3.30173092 62.88147591 -10.91699219 89.06274414 C-13.3548083 97.46907785 -15.47885978 105.93858582 -17.5625 114.4375 C-20.19344045 125.15222228 -23.03844699 135.77400437 -26.20141602 146.34619141 C-27.7832101 151.64490604 -29.22822076 156.93104114 -30.5 162.3125 C-33.23594544 173.51957357 -36.95756393 184.42351174 -40.5625 195.375 C-41.01132571 196.7466604 -41.4598845 198.11840816 -41.90820312 199.49023438 C-44.62838282 207.80445592 -47.40013569 216.09857331 -50.22808838 224.37677002 C-51.81848264 229.06684922 -53.30785616 233.77646405 -54.72601318 238.5213623 C-55.65351755 241.589598 -56.63338741 244.63959177 -57.62316895 247.68823242 C-58.07693387 249.12771264 -58.50759635 250.57471333 -58.91296387 252.02856445 C-61.95028613 262.86321995 -61.95028613 262.86321995 -66.25048828 265.35189819 C-70.89081896 267.17194454 -75.63675246 267.78842709 -80.5625 268.375 C-81.50448242 268.54402832 -82.44646484 268.71305664 -83.41699219 268.88720703 C-89.58846237 269.96676821 -96.02321651 271.03569829 -101.44140625 267.4921875 C-107.89995433 260.30575297 -107.92135864 254.76365513 -107.5625 245.375 C-107.1627161 241.09580739 -106.54789057 236.8690463 -105.875 232.625 C-105.69638428 231.46323242 -105.51776855 230.30146484 -105.33374023 229.10449219 C-103.44463628 217.11878923 -101.08630145 205.24112475 -98.5625 193.375 C-98.36011719 192.41674316 -98.15773438 191.45848633 -97.94921875 190.47119141 C-96.52807817 183.76317864 -95.05882275 177.06661618 -93.5625 170.375 C-93.3238623 169.30540039 -93.08522461 168.23580078 -92.83935547 167.13378906 C-92.086743 163.77522527 -91.32604288 160.41859452 -90.5625 157.0625 C-90.33763916 156.06226807 -90.11277832 155.06203613 -89.88110352 154.03149414 C-85.46345094 134.79814508 -79.57933409 115.88785966 -74.12255859 96.92871094 C-73.0189248 93.09390598 -71.91790173 89.25835638 -70.81744766 85.42263794 C-69.96434683 82.45066545 -69.1094954 79.47919864 -68.25414276 76.50787354 C-67.84682307 75.09184056 -67.44014543 73.67562274 -67.03412628 72.25921631 C-66.47153638 70.29728075 -65.90624656 68.33612001 -65.34082031 66.375 C-65.02058899 65.26125 -64.70035767 64.1475 -64.37042236 63 C-63.5625 60.375 -63.5625 60.375 -62.5625 58.375 C-62.52474477 56.44432642 -62.54994417 54.51227552 -62.60546875 52.58203125 C-63.12587845 27.24274719 -63.12587845 27.24274719 -58.5625 15.375 C-58.16546875 14.27027344 -57.7684375 13.16554687 -57.359375 12.02734375 C-54.62529896 4.90663304 -52.18061215 -0.60720669 -45.3125 -4.4375 C-31.7427838 -8.7345768 -11.27037253 -9.64617122 0 0 Z " fill="#222325" transform="translate(718.5625,221.625)"/>
<path d="M0 0 C11.57194431 2.52920258 23.1085265 5.17683841 34.61669922 7.98217773 C37.02623169 8.56888729 39.43690124 9.15075856 41.84765625 9.73242188 C49.63080241 11.61990657 57.3712849 13.54534591 65 16 C65 15.34 65 14.68 65 14 C68.63 14.66 72.26 15.32 76 16 C72.61102029 42.44110214 65.8911151 68.57902549 58 94 C57.52852433 95.5364341 57.05770397 97.07306939 56.58740234 98.60986328 C47.42849472 128.5277891 37.78988816 158.28329875 28 188 C21.06580935 188.48664292 14.81900681 186.68540462 8.13671875 184.97265625 C6.90838821 184.66428329 5.68005768 184.35591034 4.414505 184.03819275 C1.82728093 183.38711067 -0.75895147 182.73307943 -3.34399414 182.07348633 C-6.65882045 181.22773701 -9.97590198 180.39129175 -13.29394245 179.55825138 C-16.463686 178.76203845 -19.63225645 177.9612034 -22.80078125 177.16015625 C-23.99343094 176.85908463 -25.18608063 176.558013 -26.41487122 176.24781799 C-27.51328842 175.967603 -28.61170563 175.687388 -29.7434082 175.39868164 C-31.19732719 175.02894981 -31.19732719 175.02894981 -32.68061829 174.65174866 C-35 174 -35 174 -37 173 C-37 173.66 -37 174.32 -37 175 C-38.98 174.34 -40.96 173.68 -43 173 C-41.49451695 160.67095603 -38.9889952 148.58410166 -36.4375 136.4375 C-36.21790619 135.38697449 -35.99831238 134.33644897 -35.77206421 133.25408936 C-29.77087894 104.60594507 -22.91084992 76.18326671 -15 48 C-14.57920166 46.49638916 -14.57920166 46.49638916 -14.14990234 44.96240234 C-9.88726834 29.81851459 -5.09117095 14.8846455 0 0 Z " fill="#222325" transform="translate(383,432)"/>
<path d="M0 0 C10.72794931 7.64347581 16.95866866 17.92272345 19.5546875 30.73828125 C21.70993182 46.5245006 19.98427001 63.4397418 11 77 C4.32203754 85.45576455 -4.43035545 90.13395852 -15 92 C-28.89746693 93.26391338 -41.94660347 92.83760619 -53.15625 83.6953125 C-64.32229221 73.42823131 -68.55203781 61.94173474 -69.32421875 46.8828125 C-69.78361349 31.87998326 -67.70867087 19.02025917 -58 7 C-55.23077716 4.18817373 -52.36324534 2.0553166 -49 0 C-48.20851563 -0.50660156 -47.41703125 -1.01320313 -46.6015625 -1.53515625 C-33.60231718 -8.3778675 -12.52306415 -7.77920386 0 0 Z " fill="#FBFBFB" transform="translate(605,882)"/>
<path d="M0 0 C9.16191918 0.56291453 18.01728306 2.20796488 27 4 C26.58955515 10.57791873 26.13391403 16.74051886 24 23 C22.515 22.505 22.515 22.505 21 22 C20.85111328 23.86978516 20.85111328 23.86978516 20.69921875 25.77734375 C20.05188729 31.56943518 18.45846043 36.98632649 16.8125 42.5625 C14.37308231 51.02720424 12.08165648 59.50285285 10 68.0625 C7.53930726 78.11060245 4.72256672 88.02361984 1.78515625 97.94140625 C-2.91855487 113.83023929 -7.25187114 129.82597117 -11.51342773 145.83813477 C-12.90742582 151.05038994 -14.3495815 156.23121512 -15.96142578 161.38012695 C-21.27910594 178.47575589 -25.32935616 196.25839346 -25.52612305 214.19360352 C-25.75907547 222.63969072 -28.64317873 229.28645325 -32 237 C-45.365 234.525 -45.365 234.525 -59 232 C-58.3044209 225.73978809 -57.51197009 219.72610575 -56.375 213.5625 C-56.20822754 212.65234131 -56.04145508 211.74218262 -55.86962891 210.80444336 C-54.14375228 201.53598674 -52.2663843 192.2983042 -50.375 183.0625 C-50.22311218 182.31735138 -50.07122437 181.57220276 -49.91473389 180.80447388 C-49.4749548 178.65153835 -49.03114154 176.49947579 -48.5859375 174.34765625 C-48.19994385 172.47605835 -48.19994385 172.47605835 -47.80615234 170.56665039 C-46.99787308 166.99058989 -46.0410292 163.51382621 -45 160 C-42.36 160.33 -39.72 160.66 -37 161 C-36.88585251 160.41190552 -36.77170502 159.82381104 -36.65409851 159.21789551 C-35.35335076 152.60583856 -33.91207009 146.03420489 -32.39453125 139.46875 C-32.13758987 138.35689331 -31.8806485 137.24503662 -31.61592102 136.0994873 C-28.47924912 122.63176164 -25.13026276 109.21707712 -21.76635742 95.8046875 C-20.85082827 92.15422439 -19.93969724 88.50267856 -19.02968121 84.85083771 C-18.32021966 82.00579607 -17.6085367 79.16131386 -16.89615822 76.31700134 C-16.55856141 74.96794379 -16.22165783 73.61871254 -15.88547325 72.26930237 C-15.42160746 70.40878475 -14.95441941 68.54909637 -14.48706055 66.68945312 C-14.09117989 65.10831726 -14.09117989 65.10831726 -13.68730164 63.49523926 C-13 61 -13 61 -12 59 C-11.34 59 -10.68 59 -10 59 C-9.87310791 57.85490967 -9.74621582 56.70981934 -9.61547852 55.5300293 C-9.06262085 51.12042199 -8.15798525 46.84506886 -7.15234375 42.51953125 C-6.79095029 40.92774921 -6.42962413 39.33595188 -6.06835938 37.74414062 C-5.50162013 35.26856646 -4.9331035 32.79341364 -4.36303711 30.31860352 C-3.80910115 27.90742287 -3.2616859 25.494829 -2.71484375 23.08203125 C-2.54299057 22.34547806 -2.37113739 21.60892487 -2.19407654 20.85005188 C-1.13713337 16.17243319 -0.45481346 12.18074614 -1.625 7.5 C-2.08809338 4.41271078 -1.23003241 2.81686811 0 0 Z " fill="#232328" transform="translate(626,222)"/>
<path d="M0 0 C7.44212271 -0.23551021 14.41547237 0.65689824 21.75 1.875 C22.85988281 2.04902344 23.96976562 2.22304688 25.11328125 2.40234375 C35.40197384 4.073792 35.40197384 4.073792 39 6 C39.8125 8.125 39.8125 8.125 40 10 C45.36685044 10.94297149 50.73388438 11.88488994 56.10107422 12.82592773 C57.91817948 13.14466482 59.73523854 13.46366539 61.55224609 13.78295898 C70.97041647 15.43778416 80.39032942 17.08164244 89.8203125 18.66796875 C90.53017303 18.7884407 91.24003357 18.90891266 91.97140503 19.03303528 C95.38651897 19.60323648 98.79651659 20.11123759 102.234375 20.5246582 C105.03525655 20.87821865 107.69094485 21.2878791 110.4296875 21.9375 C111.161875 22.11023438 111.8940625 22.28296875 112.6484375 22.4609375 C113.38320313 22.63882813 114.11796875 22.81671875 114.875 23 C115.63296875 23.17789063 116.3909375 23.35578125 117.171875 23.5390625 C122.72735969 24.86367985 122.72735969 24.86367985 125 26 C121.83112696 54.93263641 121.83112696 54.93263641 120 69 C101.30294087 70.18224964 82.11392399 65.01287919 64 61 C62.91960449 60.7637793 61.83920898 60.52755859 60.72607422 60.28417969 C48.66319399 57.63661937 36.73909938 54.78917393 24.94384766 51.1184082 C18.47679779 49.10754946 11.97023046 47.42715297 5.3828125 45.859375 C2.19145149 45.04863664 -0.89197046 44.08353323 -4 43 C-3.36026873 28.59501647 -1.67008352 14.3158994 0 0 Z " fill="#232428" transform="translate(307,611)"/>
<path d="M0 0 C8.70539268 0.07896048 17.49092269 2.32141031 26 4 C25.48161728 10.97108448 24.33573716 17.55354481 22.63671875 24.328125 C22.4034639 25.27959412 22.17020905 26.23106323 21.92988586 27.21136475 C21.43800116 29.21217876 20.94285288 31.21219305 20.44458008 33.21142578 C19.69337106 36.22643623 18.95224343 39.24378146 18.21289062 42.26171875 C15.9295678 51.53734109 13.560322 60.76374825 10.87817383 69.93261719 C9.44988111 74.92151618 8.22669116 79.95843412 7 85 C5.49050557 91.20385623 3.91458181 97.37088432 2.13671875 103.50390625 C-0.48952424 112.60049472 -2.84309684 121.76483058 -5.1875 130.9375 C-5.42511047 131.86642059 -5.66272095 132.79534119 -5.90753174 133.75241089 C-12.68449214 160.30422174 -19.11109685 186.93656853 -24.02734375 213.90234375 C-24.84137332 218.32406039 -25.85539573 222.65255686 -27 227 C-26.34 227 -25.68 227 -25 227 C-25.66 230.3 -26.32 233.6 -27 237 C-40.365 234.525 -40.365 234.525 -54 232 C-51.74755058 219.61152818 -51.74755058 219.61152818 -50.66796875 215.30859375 C-50.30541992 213.85936523 -50.30541992 213.85936523 -49.93554688 212.38085938 C-49.68869141 211.40955078 -49.44183594 210.43824219 -49.1875 209.4375 C-48.83461914 208.02114258 -48.83461914 208.02114258 -48.47460938 206.57617188 C-47.17133483 201.40070104 -45.79721246 196.25063959 -44.34400082 191.11514091 C-41.19475248 179.95544268 -38.38777427 168.72051599 -35.62109375 157.4609375 C-35.12239239 155.43985274 -34.62345034 153.41882735 -34.12428284 151.39785767 C-32.82319733 146.12759775 -31.52518071 140.85658705 -30.22790527 135.58538818 C-28.91476405 130.25180398 -27.5989365 124.91888274 -26.28320312 119.5859375 C-24.79840533 113.56764616 -23.3137913 107.54931114 -21.83164978 101.53036499 C-19.52394409 92.16092809 -17.20552958 82.79448815 -14.85345459 73.43608093 C-13.44935939 67.78307397 -12.12322429 62.11276597 -10.8125 56.4375 C-10.55275391 55.32826172 -10.29300781 54.21902344 -10.02539062 53.07617188 C-8.30526823 45.64008721 -6.98723966 38.55145508 -6.81054688 30.89624023 C-6.1316911 6.1316911 -6.1316911 6.1316911 0 0 Z " fill="#232328" transform="translate(324,141)"/>
<path d="M0 0 C54.23490021 0 54.23490021 0 62.33984375 7.921875 C66.9285694 13.66587981 68.71920212 20.25517077 68.38671875 27.546875 C67.32066562 34.30931306 64.31745054 39.67184259 59 44 C52.92105263 48 52.92105263 48 50 48 C50 48.66 50 49.32 50 50 C50.7425 50.226875 51.485 50.45375 52.25 50.6875 C60.13123541 54.44899872 62.62318018 64.79992794 65.359375 72.4609375 C66.1603917 74.76418879 66.95720002 77.06890754 67.75 79.375 C68.36681641 81.13650391 68.36681641 81.13650391 68.99609375 82.93359375 C69.38410156 84.05636719 69.77210938 85.17914062 70.171875 86.3359375 C70.6992627 87.86033447 70.6992627 87.86033447 71.23730469 89.41552734 C72 92 72 92 72 95 C65.73 95 59.46 95 53 95 C49.95299504 88.12247451 47.49318462 81.48411101 45.5 74.25 C43.77677271 68.1259672 42.08876608 63.00873845 38 58 C31.56919537 55.12916495 31.56919537 55.12916495 18 55 C18 68.2 18 81.4 18 95 C12.06 95 6.12 95 0 95 C0 63.65 0 32.3 0 0 Z " fill="#FCFCFC" transform="translate(645,878)"/>
<path d="M0 0 C1.5631897 0.00785522 1.5631897 0.00785522 3.15795898 0.01586914 C4.28266602 0.0190918 5.40737305 0.02231445 6.56616211 0.02563477 C7.75016602 0.03401367 8.93416992 0.04239258 10.15405273 0.05102539 C11.34192383 0.05553711 12.52979492 0.06004883 13.75366211 0.06469727 C16.69967499 0.07652864 19.64558954 0.09301252 22.59155273 0.11352539 C22.99379311 1.28599319 22.99379311 1.28599319 23.40415955 2.48214722 C25.97632713 9.97940472 28.54884626 17.47654149 31.12172604 24.97355461 C32.44331253 28.82451087 33.76477963 32.675508 35.0859375 36.52661133 C36.36397671 40.25201397 37.64239156 43.97728755 38.92100906 47.70249176 C39.42775712 49.17912374 39.93436682 50.6558032 40.44083786 52.13253021 C43.06179259 59.77432008 45.69063043 67.41307581 48.35375977 75.0402832 C48.77645645 76.25289825 49.19915314 77.46551331 49.63465881 78.71487427 C50.42216618 80.9710966 51.21225998 83.2264184 52.00535583 85.48068237 C52.34905716 86.46569733 52.69275848 87.45071228 53.046875 88.46557617 C53.34715103 89.32079865 53.64742706 90.17602112 53.95680237 91.05715942 C54.59155273 93.11352539 54.59155273 93.11352539 54.59155273 95.11352539 C47.99155273 95.11352539 41.39155273 95.11352539 34.59155273 95.11352539 C31.12655273 84.71852539 31.12655273 84.71852539 27.59155273 74.11352539 C9.27655273 73.61852539 9.27655273 73.61852539 -9.40844727 73.11352539 C-10.06844727 76.08352539 -10.72844727 79.05352539 -11.40844727 82.11352539 C-12.66239115 86.47487035 -14.04164773 90.78532686 -15.40844727 95.11352539 C-22.00844727 95.11352539 -28.60844727 95.11352539 -35.40844727 95.11352539 C-33.43071328 88.40979228 -31.33028411 81.77064372 -29.07250977 75.15649414 C-28.756483 74.22651108 -28.44045624 73.29652802 -28.11485291 72.33836365 C-27.08992431 69.32516075 -26.06197172 66.31300263 -25.03344727 63.30102539 C-24.50737381 61.75822906 -24.50737381 61.75822906 -23.97067261 60.18426514 C-19.02472829 45.68352473 -14.03417642 31.19873992 -8.97094727 16.73852539 C-8.69236877 15.94022308 -8.41379028 15.14192078 -8.12677002 14.31942749 C-7.35012443 12.09602278 -6.56950535 9.87406062 -5.78735352 7.65258789 C-5.55894272 6.99761826 -5.33053192 6.34264862 -5.09519958 5.66783142 C-3.14100726 0.14805559 -3.14100726 0.14805559 0 0 Z " fill="#FBFBFB" transform="translate(187.408447265625,877.886474609375)"/>
<path d="M0 0 C6.27 0 12.54 0 19 0 C19 11.88 19 23.76 19 36 C32.86 36 46.72 36 61 36 C61 24.12 61 12.24 61 0 C67.27 0 73.54 0 80 0 C80 31.35 80 62.7 80 95 C73.73 95 67.46 95 61 95 C61 80.81 61 66.62 61 52 C47.14 52 33.28 52 19 52 C19 66.19 19 80.38 19 95 C12.73 95 6.46 95 0 95 C0 63.65 0 32.3 0 0 Z " fill="#FCFCFC" transform="translate(436,878)"/>
<path d="M0 0 C6.27 0 12.54 0 19 0 C19.01458252 1.99820801 19.02916504 3.99641602 19.04418945 6.05517578 C19.09460389 12.66902922 19.16121091 19.28264892 19.23571491 25.89627266 C19.28037715 29.90478619 19.31964218 33.91319905 19.34643555 37.921875 C19.37251025 41.79297374 19.4129415 45.66368427 19.46318626 49.53454208 C19.47982694 51.00880975 19.49135864 52.48314452 19.49761391 53.95749283 C19.507286 56.02822485 19.5353794 58.09797 19.56762695 60.16845703 C19.57873001 61.34538116 19.58983307 62.5223053 19.60127258 63.7348938 C20.12701981 68.04014212 21.56397867 71.42561203 24.5 74.64453125 C30.82737814 79.57131787 36.20396808 79.54344963 44 79 C48.24156773 78.13256183 51.26437066 76.73562934 54.375 73.625 C57.35949523 68.80389232 58.25375 65.04812531 58.31884766 59.3737793 C58.33391609 58.40708061 58.33391609 58.40708061 58.34928894 57.42085266 C58.38000936 55.30531652 58.39712448 53.18990628 58.4140625 51.07421875 C58.43278317 49.60161769 58.45235726 48.12902725 58.4727478 46.65644836 C58.52398023 42.79155758 58.56365328 38.92663205 58.60089111 35.06158447 C58.6409867 31.11323515 58.69205364 27.16502924 58.7421875 23.21679688 C58.83884153 15.47795572 58.92226498 7.73905856 59 0 C65.27 0 71.54 0 78 0 C78.04530506 8.46716775 78.08194722 16.9342402 78.10362434 25.40149689 C78.11403177 29.33379138 78.12813496 33.26599816 78.15087891 37.19824219 C78.17271635 40.99782668 78.18459147 44.79732716 78.18975449 48.5969696 C78.19343077 50.04173605 78.20060933 51.48649826 78.21146011 52.93122864 C78.29931912 65.121461 76.91395235 75.27807487 70.25 85.75 C62.1692428 93.8307572 51.63606563 96.32211672 40.46289062 96.51904297 C39.50576172 96.51275879 38.54863281 96.50647461 37.5625 96.5 C36.55767578 96.49500488 35.55285156 96.49000977 34.51757812 96.48486328 C24.42684159 96.24779964 15.9530386 93.88192959 8.4609375 86.71875 C-0.47048365 76.2111957 -0.29470252 63.71985993 -0.1953125 50.5859375 C-0.19157409 49.12049555 -0.18873104 47.65505107 -0.18673706 46.18960571 C-0.17916565 42.36575198 -0.15957444 38.54205448 -0.1373291 34.71826172 C-0.11672933 30.80308138 -0.10770538 26.88787537 -0.09765625 22.97265625 C-0.07632116 15.31502529 -0.0411935 7.6575546 0 0 Z " fill="#FAFAFA" transform="translate(255,878)"/>
<path d="M0 0 C5.28 0 10.56 0 16 0 C16.97176272 3.88705087 16.9648184 5.28311005 16.19555664 9.04394531 C15.99527359 10.04468079 15.79499054 11.04541626 15.58863831 12.07647705 C15.25278969 13.68604279 15.25278969 13.68604279 14.91015625 15.328125 C14.68678085 16.43226746 14.46340546 17.53640991 14.23326111 18.67401123 C13.51777644 22.20104702 12.79029487 25.72548596 12.0625 29.25 C11.57537992 31.64046375 11.08904208 34.03108706 10.60351562 36.421875 C9.4114154 42.28313174 8.20945553 48.14230132 7 54 C6.34 54 5.68 54 5 54 C4.76925781 55.09054688 4.53851563 56.18109375 4.30078125 57.3046875 C2.43362599 65.98953787 0.36278993 74.56709285 -2.07519531 83.109375 C-3.65477698 88.6702695 -5.06992895 94.25857983 -6.4375 99.875 C-8.44303427 108.03125522 -10.74961892 116.05858836 -13.203125 124.08984375 C-23.61303908 158.17449891 -33.00080332 192.51987065 -42 227 C-43.4589426 226.52269162 -44.91713496 226.04308958 -46.375 225.5625 C-47.18710937 225.29566406 -47.99921875 225.02882813 -48.8359375 224.75390625 C-51 224 -51 224 -53 223 C-50.73375608 202.82078551 -45.69787391 183.00211451 -40.82128906 163.32958984 C-39.64470542 158.55959944 -38.50720721 153.78068254 -37.375 149 C-37.17720947 148.16863525 -36.97941895 147.33727051 -36.77563477 146.48071289 C-35.75212832 142.17860931 -34.73486832 137.87508724 -33.72265625 133.5703125 C-31.63158798 124.69695115 -29.48131345 115.85401408 -27.09375 107.0546875 C-25.71242108 101.96298448 -24.39072539 96.85575866 -23.0625 91.75 C-22.54434932 89.76169829 -22.02612048 87.77341696 -21.5078125 85.78515625 C-20.41531561 81.59356103 -20.41531561 81.59356103 -19.32324219 77.40185547 C-18.69613663 74.99668204 -18.06707589 72.59202783 -17.4375 70.1875 C-17.26420166 69.52137695 -17.09090332 68.85525391 -16.91235352 68.16894531 C-15.94178248 64.46878006 -14.94082858 60.77869191 -13.90185547 57.09716797 C-11.0090696 46.83168671 -8.3330844 36.53151225 -5.83251953 26.16357422 C-5.2399444 23.70833626 -4.64173619 21.25451566 -4.04296875 18.80078125 C-3.65852756 17.21622504 -3.27440078 15.6315925 -2.890625 14.046875 C-2.71460754 13.32497986 -2.53859009 12.60308472 -2.35723877 11.85931396 C-1.40711366 7.90627534 -0.67021984 4.02131902 0 0 Z " fill="#384592" transform="translate(350,145)"/>
<path d="M0 0 C0.33 0 0.66 0 1 0 C1.10957031 0.61488281 1.21914063 1.22976562 1.33203125 1.86328125 C1.49058594 2.67152344 1.64914062 3.47976562 1.8125 4.3125 C1.96332031 5.11300781 2.11414063 5.91351563 2.26953125 6.73828125 C2.80907438 9.05757781 2.80907438 9.05757781 4.51171875 10.35546875 C6.86254775 12.95310395 6.69304823 15.56772107 7 19 C7.06058594 19.65226562 7.12117187 20.30453125 7.18359375 20.9765625 C7.94331804 30.7232693 7.00506507 39.26713111 3.9375 48.546875 C3.2933288 50.57762035 2.65081133 52.60889086 2.00976562 54.640625 C1.6769458 55.68573242 1.34412598 56.73083984 1.0012207 57.80761719 C-0.65014868 63.07299295 -2.1853357 68.37116298 -3.71875 73.671875 C-4.02686615 74.73375031 -4.3349823 75.79562561 -4.6524353 76.88967896 C-14.74314011 111.72059633 -23.72140582 146.47120074 -31 182 C-31.14348877 182.69857117 -31.28697754 183.39714233 -31.43481445 184.11688232 C-34.95854885 201.32630171 -37.3278882 218.51466647 -39 236 C-39.33 235.01 -39.66 234.02 -40 233 C-41.98 233 -43.96 233 -46 233 C-46.50869827 229.3344862 -47.00536408 225.66743573 -47.5 222 C-47.64308594 220.97003906 -47.78617188 219.94007813 -47.93359375 218.87890625 C-48.69403874 213.19367468 -49.16544234 207.73533461 -49 202 C-49.66 201.67 -50.32 201.34 -51 201 C-51.51202192 175.81492179 -44.33501194 150.09404028 -36.66015625 126.29296875 C-34.82205139 120.5637968 -33.30290704 114.7653555 -31.8125 108.9375 C-29.96843101 101.7353961 -28.06405847 94.56993703 -25.9921875 87.4296875 C-22.84521305 76.55156323 -19.87906786 65.62508451 -17.01586914 54.66918945 C-15.21058302 47.77039264 -13.35883637 40.88454212 -11.5 34 C-8.62384681 23.34439576 -5.79172253 12.67801705 -3 2 C-2.34 2 -1.68 2 -1 2 C-0.67 1.34 -0.34 0.68 0 0 Z " fill="#384695" transform="translate(650,242)"/>
<path d="M0 0 C0.928125 0.5259375 0.928125 0.5259375 1.875 1.0625 C2.57625 1.371875 3.2775 1.68125 4 2 C4.66 1.67 5.32 1.34 6 1 C6.268125 1.804375 6.53625 2.60875 6.8125 3.4375 C7.4003125 4.7059375 7.4003125 4.7059375 8 6 C8.99 6.33 9.98 6.66 11 7 C12.80136683 29.01670572 5.33031531 52.72868715 -0.62929535 73.7844162 C-3.51110183 83.99758287 -6.11138724 94.26949634 -8.6353302 104.57618713 C-9.36542505 107.55725181 -10.09900708 110.53744108 -10.83337402 113.51745605 C-12.39187236 119.84424548 -13.94626555 126.17203922 -15.5 132.5 C-17.30403847 139.84738468 -19.1098758 147.19431804 -20.92012024 154.54017639 C-21.63394081 157.44060237 -22.3445846 160.34179358 -23.05505371 163.24304199 C-25.83578541 174.55590216 -28.82153044 185.7926394 -32 197 C-32.52867442 198.89806737 -33.05640207 200.79639956 -33.58203125 202.6953125 C-34.72135417 206.796875 -35.86067708 210.8984375 -37 215 C-39.21206365 212.28918296 -41.2094081 209.6636779 -43.0625 206.6875 C-44.0215625 205.3571875 -44.0215625 205.3571875 -45 204 C-45.99 204 -46.98 204 -48 204 C-48.11278309 190.01489665 -45.72842893 177.43539849 -42.08203125 163.9609375 C-40.29303412 157.30732015 -38.73765205 150.61190717 -37.20703125 143.89453125 C-34.23324602 130.8658699 -31.04265575 117.89721409 -27.78564453 104.93676758 C-26.86605275 101.2768909 -25.95034068 97.61605913 -25.03515625 93.95507812 C-22.37049978 83.31258587 -19.6915128 72.6772518 -16.83203125 62.08520508 C-15.78506006 58.20299414 -14.77662608 54.31134428 -13.76928711 50.41870117 C-11.15903236 40.33202765 -8.45149812 30.27823359 -5.63085938 20.24853516 C-4.47434886 16.1264524 -3.33202485 12.00042332 -2.1875 7.875 C-1.76437906 6.35154691 -1.34120747 4.82810788 -0.91796875 3.3046875 C-0.61503906 2.21414062 -0.31210937 1.12359375 0 0 Z " fill="#384798" transform="translate(307,157)"/>
<path d="M0 0 C1.94018948 2.47822522 3.30365599 4.62980503 4.6875 7.5 C7.07579517 11.84744356 10.60057551 13.12747608 15 15 C15.495 15.495 15.495 15.495 16 16 C15.5051234 22.35659788 14.36885105 28.42602059 12.93359375 34.62890625 C12.73524429 35.50401352 12.53689484 36.37912079 12.33253479 37.28074646 C11.70547902 40.0424076 11.07161398 42.80245196 10.4375 45.5625 C10.0080101 47.4484645 9.5789694 49.33453136 9.15039062 51.22070312 C8.10544595 55.81500086 7.05439666 60.40786271 6 65 C5.34 65 4.68 65 4 65 C3.80986328 65.90347168 3.61972656 66.80694336 3.42382812 67.73779297 C0.03456265 83.52723171 -3.98414907 99.16642519 -7.92205811 114.82556152 C-8.88334575 118.65020519 -9.84196281 122.47551797 -10.80078125 126.30078125 C-12.21533836 131.94323818 -13.63138971 137.58531703 -15.04882812 143.22705078 C-17.03883454 151.14979856 -19.02032943 159.07466406 -21 167 C-29.75 165.96484375 -29.75 165.96484375 -34 164.4375 C-35.1446875 164.03337891 -35.1446875 164.03337891 -36.3125 163.62109375 C-37.1478125 163.31365234 -37.1478125 163.31365234 -38 163 C-37.06462704 153.1730817 -36.00641599 143.38270665 -34.5 133.625 C-34.38164795 132.83569092 -34.2632959 132.04638184 -34.14135742 131.2331543 C-33.49834409 127.2037494 -32.5704186 123.78108477 -31 120 C-30.37463048 117.41892943 -29.79460525 114.84777283 -29.25 112.25 C-25.74854888 96.0999351 -21.98434136 80.03604547 -17.32519531 64.17797852 C-14.13786771 53.22646179 -11.49979442 42.13333729 -8.76220703 31.06298828 C-6.16046736 20.60769492 -3.25632392 10.27127705 0 0 Z " fill="#3B4CA7" transform="translate(610,216)"/>
<path d="M0 0 C6.6 0 13.2 0 20 0 C21.01320313 1.76085937 22.02640625 3.52171875 23.0703125 5.3359375 C24.07317766 7.07702285 25.07604971 8.81810423 26.07910156 10.55908203 C26.7659482 11.75160427 27.45248165 12.94430697 28.13867188 14.13720703 C30.41655593 18.0968622 32.70701995 22.04907358 35 26 C35.58104492 27.01739258 36.16208984 28.03478516 36.76074219 29.08300781 C37.55593262 30.45344238 37.55593262 30.45344238 38.3671875 31.8515625 C38.8297998 32.65674316 39.29241211 33.46192383 39.76904297 34.29150391 C40.17525879 34.85530762 40.58147461 35.41911133 41 36 C41.66 36 42.32 36 43 36 C43.42297363 35.22922119 43.84594727 34.45844238 44.28173828 33.66430664 C45.87766104 30.7606683 47.4772013 27.85908219 49.07910156 24.95874023 C49.7670475 23.7114769 50.45361094 22.46344986 51.13867188 21.21459961 C52.78191555 18.22000422 54.43972932 15.23597014 56.13720703 12.27172852 C57.29040006 10.24631046 58.41269163 8.20252333 59.48388672 6.13256836 C62.70639809 0.39618141 62.70639809 0.39618141 66.24560547 -0.68774414 C68.85265385 -0.88736461 71.27148816 -0.79187567 73.875 -0.5625 C74.75414062 -0.52189453 75.63328125 -0.48128906 76.5390625 -0.43945312 C78.69510668 -0.33399444 80.84828673 -0.17256314 83 0 C81.37657383 6.17315558 78.05390358 11.26001302 74.8125 16.6875 C73.89658081 18.27473877 73.89658081 18.27473877 72.9621582 19.89404297 C69.73534431 25.47921252 66.41208383 30.91909538 62.7734375 36.24609375 C50.11914993 55.5646148 50.05946431 72.55810407 51 95 C44.73 95 38.46 95 32 95 C32.10183594 92.57011719 32.20367188 90.14023437 32.30859375 87.63671875 C32.89675122 65.68471913 30.6011213 51.42556149 18.00683594 33.00146484 C14.82563916 28.24360193 12.09270311 23.24871782 9.3125 18.25 C8.37405392 16.60767997 7.43284732 14.96693282 6.48828125 13.328125 C6.06756348 12.59400391 5.6468457 11.85988281 5.21337891 11.10351562 C4.41088493 9.71231077 3.60076238 8.32547578 2.78271484 6.94335938 C0 2.20920937 0 2.20920937 0 0 Z " fill="#FCFCFC" transform="translate(845,878)"/>
<path d="M0 0 C5.83686389 3.37873747 9.07761319 7.98987357 11.3671875 14.26953125 C14.49109113 26.82933555 14.02625814 42.77031703 7.81640625 54.2734375 C4.50309286 59.00084414 -0.43721862 61.70255017 -6.06640625 62.84375 C-14.21779101 63.59577232 -21.84942964 63.14080424 -28.4375 58.0625 C-34.57319408 52.06625351 -36.52578063 45.346627 -36.87109375 36.84765625 C-36.88817919 34.60683559 -36.8891907 32.36584086 -36.875 30.125 C-36.89498047 29.00931641 -36.91496094 27.89363281 -36.93554688 26.74414062 C-36.93068169 18.43927725 -35.77066601 11.27281495 -30.5078125 4.625 C-29.86585938 4.109375 -29.22390625 3.59375 -28.5625 3.0625 C-27.92570313 2.52625 -27.28890625 1.99 -26.6328125 1.4375 C-18.79832798 -3.4695081 -8.3705051 -3.67238499 0 0 Z " fill="#242424" transform="translate(592.4375,894.9375)"/>
<path d="M0 0 C24.42 0 48.84 0 74 0 C74 5.28 74 10.56 74 16 C65.09 16 56.18 16 47 16 C47 42.07 47 68.14 47 95 C40.73 95 34.46 95 28 95 C28 68.93 28 42.86 28 16 C18.76 16 9.52 16 0 16 C0 10.72 0 5.44 0 0 Z " fill="#FAFAFA" transform="translate(767,878)"/>
<path d="M0 0 C24.42 0 48.84 0 74 0 C74 5.28 74 10.56 74 16 C64.76 16 55.52 16 46 16 C46 42.07 46 68.14 46 95 C39.73 95 33.46 95 27 95 C27 68.93 27 42.86 27 16 C18.09 16 9.18 16 0 16 C0 10.72 0 5.44 0 0 Z " fill="#F9F9F9" transform="translate(347,878)"/>
<path d="M0 0 C5.94 0 11.88 0 18 0 C18 31.35 18 62.7 18 95 C12.06 95 6.12 95 0 95 C0 63.65 0 32.3 0 0 Z " fill="#FFFFFF" transform="translate(734,878)"/>
<path d="M0 0 C21.45 0 42.9 0 65 0 C65 19.47 65 38.94 65 59 C62.20476191 56.20476191 60.0915166 53.91604397 57.86328125 50.76953125 C57.29077637 49.9707959 56.71827148 49.17206055 56.12841797 48.34912109 C55.52916504 47.51203613 54.92991211 46.67495117 54.3125 45.8125 C40.39618062 26.71567916 22.636412 13.15329444 0 6 C0 4.02 0 2.04 0 0 Z " fill="#F0F0F0" transform="translate(1015,0)"/>
<path d="M0 0 C1.98 0 3.96 0 6 0 C6 21.45 6 42.9 6 65 C-15.12 65 -36.24 65 -58 65 C-54.50491608 61.50491608 -51.25779966 59.13685641 -47.0625 56.6875 C-46.40515869 56.29723633 -45.74781738 55.90697266 -45.07055664 55.50488281 C-40.7531464 52.96248284 -36.37277289 50.57979277 -31.9375 48.25 C-13.27719579 38.23715384 -6.38635222 19.11376338 0 0 Z " fill="#EEEEEE" transform="translate(1074,1015)"/>
<path d="M0 0 C4.50446841 4.50446841 4.50446841 4.50446841 6.21875 7.57421875 C6.59128906 8.23728027 6.96382813 8.9003418 7.34765625 9.58349609 C7.72792969 10.27781738 8.10820312 10.97213867 8.5 11.6875 C9.10134766 12.76378662 9.10134766 12.76378662 9.71484375 13.86181641 C11.70604792 17.46801774 13.50844878 21.02873134 15 24.875 C22.33385268 41.94405536 43.51640221 50.11414454 59 58 C59 59.98 59 61.96 59 64 C39.53 64 20.06 64 0 64 C0 42.88 0 21.76 0 0 Z " fill="#EEEEEE" transform="translate(0,1016)"/>
<path d="M0 0 C19.47 0 38.94 0 59 0 C55.31338153 3.68661847 51.74168501 6.82807655 47.625 9.9375 C31.27068983 22.57234788 16.88315391 37.26325393 4.7434082 53.97216797 C3.5149599 55.66234984 2.2601644 57.33333096 1 59 C0.67 59 0.34 59 0 59 C0 39.53 0 20.06 0 0 Z " fill="#F0F0F0" transform="translate(0,0)"/>
<path d="M0 0 C1.94018948 2.47822522 3.30365599 4.62980503 4.6875 7.5 C7.07579517 11.84744356 10.60057551 13.12747608 15 15 C15.33 15.33 15.66 15.66 16 16 C15.5051234 22.35659788 14.36885105 28.42602059 12.93359375 34.62890625 C12.73524429 35.50401352 12.53689484 36.37912079 12.33253479 37.28074646 C11.70547902 40.0424076 11.07161398 42.80245196 10.4375 45.5625 C10.0080101 47.4484645 9.5789694 49.33453136 9.15039062 51.22070312 C8.10544595 55.81500086 7.05439666 60.40786271 6 65 C4.40868093 64.52531997 2.81757669 64.04991968 1.2265625 63.57421875 C0.34049316 63.30955811 -0.54557617 63.04489746 -1.45849609 62.7722168 C-4.32442294 61.90142654 -7.16601303 60.96952186 -10 60 C-9.53909758 53.0500766 -8.81265753 46.29775138 -7.40234375 39.47265625 C-6.87453859 36.22896044 -6.58687284 33.28202686 -7.60546875 30.12109375 C-8.21508467 26.84365372 -7.21127298 24.2466288 -6.3125 21.0625 C-6.13041992 20.40950928 -5.94833984 19.75651855 -5.76074219 19.08374023 C-3.95900916 12.68727893 -2.00819507 6.33435999 0 0 Z " fill="#384697" transform="translate(610,216)"/>
<path d="M0 0 C1.92797931 0.36071871 3.84248316 0.79327062 5.75 1.25 C11.99645958 2.65369878 18.21877223 3.64803549 24.5625 4.5 C36.00579575 6.06179324 46.98833821 8.49515957 58 12 C58.73187386 15.28181531 59.13641541 18.32566263 59.125 21.6875 C59.12886719 22.83798828 59.12886719 22.83798828 59.1328125 24.01171875 C59 26 59 26 58 28 C43.37627226 24.84816578 28.84106603 21.34929469 14.30957031 17.79882812 C11.41628706 17.10047885 8.51943531 16.42548096 5.6171875 15.765625 C4.48337646 15.50168945 4.48337646 15.50168945 3.32666016 15.23242188 C1.41229325 14.78770179 -0.50468496 14.35426254 -2.421875 13.921875 C-3.27265625 13.61765625 -4.1234375 13.3134375 -5 13 C-6 10 -6 10 -5.0390625 7.7734375 C-4.57242187 6.98195313 -4.10578125 6.19046875 -3.625 5.375 C-3.16351563 4.57835937 -2.70203125 3.78171875 -2.2265625 2.9609375 C-1 1 -1 1 0 0 Z " fill="#3A4AA3" transform="translate(390,420)"/>
<path d="M0 0 C13.26077154 2.67408235 26.33598955 6.05427353 39.44213867 9.38964844 C42.35519454 10.1300015 45.26932979 10.86598166 48.18359375 11.6015625 C49.06599228 11.82760162 49.94839081 12.05364075 50.85752869 12.28652954 C55.56468215 13.47273278 60.17996497 14.41538271 65 15 C64.40776866 16.62938774 63.80076372 18.25341128 63.1875 19.875 C62.85105469 20.77992188 62.51460938 21.68484375 62.16796875 22.6171875 C61 25 61 25 58 27 C54.90332031 26.73974609 54.90332031 26.73974609 51.078125 26.0234375 C50.3890506 25.89809631 49.6999762 25.77275513 48.99002075 25.64361572 C46.74110221 25.23200819 44.49574627 24.80354662 42.25 24.375 C40.71068134 24.09037588 39.17112861 23.80701481 37.63134766 23.52490234 C34.54589958 22.95856512 31.46156171 22.38668674 28.37792969 21.81054688 C22.38622167 20.69533895 16.38147956 19.65721166 10.375 18.625 C8.5286053 18.30492121 6.68224642 17.98463572 4.8359375 17.6640625 C3.57007813 17.44492187 2.30421875 17.22578125 1 17 C-0.35073049 13.30551187 -1.26223771 10.19071544 -1.1875 6.25 C-1.18105469 5.49203125 -1.17460937 4.7340625 -1.16796875 3.953125 C-1 2 -1 2 0 0 Z " fill="#384695" transform="translate(346,605)"/>
<path d="M0 0 C1.08518111 0.91447846 2.16804738 1.83170407 3.25 2.75 C3.85328125 3.26046875 4.4565625 3.7709375 5.078125 4.296875 C6.02945313 5.13992188 6.02945313 5.13992188 7 6 C7.72638672 6.60755127 8.45277344 7.21510254 9.20117188 7.84106445 C11.52762395 10.633249 11.51539399 12.18770926 11.53125 15.79296875 C11.53898438 16.96585449 11.54671875 18.13874023 11.5546875 19.34716797 C11.53664063 20.61447754 11.51859375 21.88178711 11.5 23.1875 C11.49226562 24.49348145 11.48453125 25.79946289 11.4765625 27.14501953 C11.27214029 42.54574721 9.18946324 57.77566054 7 73 C6.67 72.01 6.34 71.02 6 70 C4.02 70 2.04 70 0 70 C-0.50869827 66.3344862 -1.00536408 62.66743573 -1.5 59 C-1.64308594 57.97003906 -1.78617188 56.94007813 -1.93359375 55.87890625 C-2.69403874 50.19367468 -3.16544234 44.73533461 -3 39 C-3.66 38.67 -4.32 38.34 -5 38 C-4.72569768 24.86091886 -3.30451986 12.72624393 0 0 Z " fill="#35428A" transform="translate(604,405)"/>
<path d="M0 0 C5.0428125 -0.061875 5.0428125 -0.061875 10.1875 -0.125 C11.23832764 -0.14320801 12.28915527 -0.16141602 13.37182617 -0.18017578 C14.21205322 -0.1851709 15.05228027 -0.19016602 15.91796875 -0.1953125 C16.77156982 -0.20578613 17.6251709 -0.21625977 18.50463867 -0.22705078 C22.53497604 0.13966615 25.2650506 1.36436808 28.3125 4 C30.74836555 8.33042764 30.65674894 12.13845598 30 17 C28.26447369 21.29314402 26.19462055 23.12513173 22 25 C18.22022305 25.36679802 14.48035563 25.28141411 10.6875 25.1875 C7.160625 25.125625 3.63375 25.06375 0 25 C0 16.75 0 8.5 0 0 Z " fill="#242424" transform="translate(664,893)"/>
<path d="M0 0 C5.28 1.65 10.56 3.3 16 5 C15.855625 6.18335938 15.71125 7.36671875 15.5625 8.5859375 C14.29566027 18.51332009 14.29566027 18.51332009 14.0625 28.5 C14.21542438 33.66344665 12.7240817 38.1766762 11 43 C6.48805186 42.5898229 2.50344713 41.9395605 -1.78515625 40.45703125 C-2.97637085 40.04868042 -2.97637085 40.04868042 -4.19165039 39.63208008 C-4.78840576 39.42349365 -5.38516113 39.21490723 -6 39 C-5.05631424 29.08574843 -3.97709391 19.21649259 -2.4375 9.375 C-2.31076904 8.55217529 -2.18403809 7.72935059 -2.0534668 6.8815918 C-1.12615831 1.12615831 -1.12615831 1.12615831 0 0 Z " fill="#384796" transform="translate(578,340)"/>
<path d="M0 0 C0.66 0 1.32 0 2 0 C3.39201714 3.98201266 4.77935883 7.96561562 6.16259766 11.95068359 C6.63270445 13.30300588 7.10403315 14.6549041 7.57666016 16.00634766 C8.2601446 17.96143107 8.93905676 19.91805411 9.6171875 21.875 C10.02565918 23.04804687 10.43413086 24.22109375 10.85498047 25.4296875 C12.07551691 29.23547106 13.03065523 33.12262094 14 37 C5.42 37 -3.16 37 -12 37 C-8.62120826 23.48483304 -8.62120826 23.48483304 -6.9921875 18.61328125 C-6.64542969 17.57365234 -6.29867187 16.53402344 -5.94140625 15.46289062 C-5.58949219 14.42326172 -5.23757812 13.38363281 -4.875 12.3125 C-4.51535156 11.23033203 -4.15570313 10.14816406 -3.78515625 9.03320312 C-1.13382509 1.13382509 -1.13382509 1.13382509 0 0 Z " fill="#2A2A2A" transform="translate(196,898)"/>
</svg>
