<?xml version="1.0" encoding="UTF-8"?>
<svg version="1.1" xmlns="http://www.w3.org/2000/svg" width="1080" height="1080">
<path d="M0 0 C356.4 0 712.8 0 1080 0 C1080 356.4 1080 712.8 1080 1080 C723.6 1080 367.2 1080 0 1080 C0 723.6 0 367.2 0 0 Z " fill="#242323" transform="translate(0,0)"/>
<path d="M0 0 C60.40763314 -0.1551452 120.81521542 -0.27916334 181.22301674 -0.34525585 C186.43618146 -0.35103061 191.6493461 -0.35687846 196.86251068 -0.36277771 C198.79623961 -0.36494719 198.79623961 -0.36494719 200.76903377 -0.36716051 C220.28607539 -0.38952041 239.80303649 -0.42871398 259.32003021 -0.47685242 C281.73262403 -0.53212545 304.14513647 -0.56621417 326.55779976 -0.57291627 C339.32509104 -0.57737934 352.09210164 -0.59881744 364.85931673 -0.6435036 C373.49668663 -0.67203143 382.13389499 -0.67843611 390.77130417 -0.66727717 C395.71926103 -0.6615093 400.66670624 -0.66522044 405.61458492 -0.69551289 C410.13788026 -0.72299502 414.6602997 -0.72228766 419.18361556 -0.699995 C420.80658651 -0.69679271 422.42961797 -0.70350721 424.05248911 -0.7217894 C438.52588996 -0.87490546 451.92883523 2.12318407 463.03487396 12.03318787 C463.88049896 12.65193787 464.72612396 13.27068787 465.59737396 13.90818787 C468.36532997 16.32127772 470.67496465 18.94483579 473.05831146 21.73240662 C475.30444564 24.34697783 477.60222297 26.91029415 479.90987396 29.47068787 C480.67042084 30.3150238 481.43096771 31.15935974 482.21456146 32.02928162 C483.1380583 33.04592084 484.06368868 34.06200258 485.03487396 35.03318787 C485.13203541 36.50398296 485.15934751 37.97944513 485.15907246 39.45344597 C485.16131975 40.41608279 485.16356705 41.37871961 485.16588244 42.37052724 C485.16194192 43.97895389 485.16194192 43.97895389 485.15792179 45.619874 C485.15907564 46.75223821 485.16022948 47.88460243 485.16141829 49.05128071 C485.16362428 52.2224421 485.161296 55.39356454 485.15714016 58.56472284 C485.15372264 62.00403992 485.15607355 65.44335359 485.15771765 68.8826713 C485.15979728 74.91975764 485.15813761 80.95683416 485.15407944 86.99391937 C485.14806172 95.97094242 485.14774202 104.94795924 485.14862143 113.92498393 C485.14993754 129.02338658 485.14658553 144.12178486 485.14060402 159.22018623 C485.13469382 174.17679427 485.13083946 189.13340049 485.12975121 204.09000969 C485.12968247 205.01879329 485.12961373 205.94757689 485.1295429 206.90450546 C485.12920459 211.62102659 485.1289032 216.33754772 485.12861603 221.05406886 C485.12651373 254.49055052 485.11977111 287.92702981 485.11031342 321.36351013 C485.10113405 353.85341886 485.09404796 386.34332693 485.0898056 418.83323669 C485.08960831 420.3345656 485.08960831 420.3345656 485.08940704 421.86622438 C485.08808856 431.9172227 485.08681274 441.96822103 485.08556818 452.01921936 C485.08303174 472.49559086 485.08021048 492.97196231 485.0772171 513.44833374 C485.07707981 514.38987403 485.07694252 515.33141432 485.07680107 516.30148613 C485.06759516 579.21205436 485.05174935 642.12262128 485.03487396 705.03318787 C477.43158649 705.28880978 469.82824751 705.54285196 462.22484528 705.79503655 C458.69187451 705.91226207 455.1589215 706.02997309 451.62600803 706.14891404 C430.56973997 706.85730416 409.52121268 707.39006817 388.45397186 707.60690236 C384.50691731 707.64924844 380.55996687 707.69992828 376.61299896 707.74960327 C368.40861185 707.85176572 360.2041545 707.9465711 351.99965668 708.03935242 C339.5382757 708.18035798 327.07697444 708.32798602 314.61575222 708.48237413 C309.99696657 708.53932036 305.37815884 708.59235272 300.75929177 708.64223021 C287.53808252 708.78713745 274.33381425 708.97077894 261.1282711 709.67970371 C253.46309848 710.08781888 245.80650687 710.22522101 238.13158798 710.29354858 C235.68498136 710.31539981 233.23846827 710.34232024 230.79192352 710.370224 C225.58128087 710.42879152 220.37058703 710.48132729 215.15987396 710.53318787 C208.30826218 710.60189224 201.45669678 710.67372519 194.60518646 710.75193787 C193.76641087 710.76140694 192.92763527 710.77087601 192.06344223 710.78063202 C179.70196342 710.92470211 167.3583279 711.24532165 155.003685 711.68266296 C143.11563679 712.09233942 131.23385004 712.25298741 119.33907318 712.27342224 C115.84552477 712.28337112 112.35251078 712.31471699 108.85909271 712.34568787 C84.73269086 712.45970306 68.42009137 707.04352223 50.03487396 691.03318787 C46.69224625 687.57628228 43.8363796 683.93508449 41.03487396 680.03318787 C40.34006927 679.12697693 39.64526459 678.22076599 38.92940521 677.28709412 C22.05205236 654.963391 20.03487396 636.61287693 20.03487396 608.03318787 C0.56487396 608.03318787 -18.90512604 608.03318787 -38.96512604 608.03318787 C-39.47656168 590.27906479 -39.94183401 572.53064767 -40.21903229 554.77146912 C-40.22939451 554.11028139 -40.23975674 553.44909367 -40.25043297 552.76786995 C-40.36430638 545.48245056 -40.47173624 538.19697828 -40.57230377 530.91136169 C-40.78284248 476.44341025 -40.78284248 476.44341025 -57.931633 425.37019348 C-66.05911288 409.89373012 -68.75426173 394.76096122 -68.34012604 377.40818787 C-68.31707492 375.63664862 -68.29623433 373.8650795 -68.2773819 372.0934906 C-68.23054702 368.21699937 -68.16603867 364.34131695 -68.08866119 360.46531677 C-67.97349342 354.67529333 -67.88896421 348.88514921 -67.81015778 343.0945282 C-67.41385368 314.17176258 -67.41385368 314.17176258 -67.07938385 303.23094177 C-66.96891197 299.27901989 -67.02242106 295.40187794 -67.26493073 291.45652771 C-67.76438081 280.19685928 -67.76438081 280.19685928 -64.65424347 276.45680237 C-60.33645489 272.80536431 -55.24640748 270.72736866 -50.09012604 268.53318787 C-48.51197515 267.79566724 -46.93749557 267.05024103 -45.36673737 266.29710388 C-42.28834056 264.82683822 -39.19807623 263.3892502 -36.09354401 261.9750824 C-31.06296642 259.65177591 -26.35844125 256.88785321 -21.65262604 253.97068787 C-15.28949314 250.16459437 -8.7722491 246.97182139 -1.96512604 244.03318787 C-1.12812164 243.67088074 -0.29111725 243.30857361 0.57125092 242.93528748 C10.9856577 238.5934572 20.41648447 236.52117332 31.72237396 236.59568787 C32.77876068 236.5757074 33.8351474 236.55572693 34.92354584 236.53514099 C50.14955071 236.54429674 62.92369485 241.36005489 76.31661224 248.10374451 C78.52645134 249.21644689 80.74600246 250.30728619 82.96846771 251.39451599 C92.85521407 256.26548127 102.48188564 261.5395728 112.03487396 267.03318787 C110.83182303 274.21638666 109.3142322 281.20951647 107.34737396 288.22068787 C106.95002045 289.65239319 106.95002045 289.65239319 106.54463959 291.11302185 C105.71487344 294.08837476 104.87603866 297.06103947 104.03487396 300.03318787 C103.79172455 300.8991156 103.54857513 301.76504333 103.29805756 302.6572113 C94.83572884 332.68556962 85.27157521 362.43417147 75.58663177 392.08738708 C75.26993027 393.05815689 75.26993027 393.05815689 74.94683075 394.04853821 C74.39135845 395.74956919 73.83405959 397.45000342 73.27657318 399.15037537 C72.21265549 402.43731405 71.20492121 405.74038684 70.19625092 409.04466248 C68.15047569 415.71067633 65.99713618 422.33824655 63.81273079 428.9599781 C63.12406225 431.04763031 62.43699255 433.13580348 61.75025177 435.22409058 C60.28401328 439.68174702 58.81576343 444.13873961 57.34737396 448.59568787 C55.42552759 454.42990457 53.50470937 460.26445833 51.58565521 466.09959412 C51.35192326 466.81017597 51.1181913 467.52075783 50.87737656 468.25287247 C46.19580548 482.49145027 41.59679092 496.75581625 37.03487396 511.03318787 C21.72122841 513.02165551 6.42425902 514.7456901 -8.96512604 516.03318787 C-9.18192421 518.18539198 -9.18192421 518.18539198 -7.38309479 519.88084412 C-1.54141011 525.68160631 4.55445231 530.95943239 11.03487396 536.03318787 C11.600289 536.4856488 12.16570404 536.93810974 12.74825287 537.40428162 C56.98798864 572.70995883 112.20717227 581.89460148 167.52437592 576.15818787 C172.38170641 575.56544459 177.20623849 574.82277606 182.03487396 574.03318787 C182.90708588 573.90460388 183.77929779 573.7760199 184.67794037 573.64353943 C216.45181197 568.94471289 259.1521725 555.15105651 281.03487396 530.03318787 C282.69698838 527.66418281 284.24057536 525.22720162 285.77706146 522.77537537 C286.18883636 522.12625183 286.60061127 521.4771283 287.0248642 520.80833435 C288.03218439 519.21913689 289.03408375 517.62650562 290.03487396 516.03318787 C288.45404022 515.85928528 288.45404022 515.85928528 286.84127045 515.68186951 C282.90690002 515.24875931 278.97269476 514.81416411 275.03853607 514.37913513 C273.34033815 514.19155947 271.64209653 514.00437899 269.94380951 513.81761169 C267.49357766 513.548079 265.04350989 513.27709482 262.59346771 513.00584412 C261.84214066 512.92351028 261.0908136 512.84117645 260.31671906 512.75634766 C259.5965007 512.67634018 258.87628235 512.5963327 258.1342392 512.51390076 C257.51024734 512.4450618 256.88625549 512.37622284 256.2433548 512.30529785 C253.1672984 511.92629268 250.10207559 511.4775595 247.03487396 511.03318787 C217.28231682 422.98899078 217.28231682 422.98899078 207.96318817 394.83940125 C206.8875686 391.59114392 205.80411706 388.34593119 204.70381927 385.10594177 C202.06219206 377.3081169 199.68302446 369.48083686 197.53487396 361.53318787 C195.68651067 354.80642297 193.81295917 348.12764504 191.53487396 341.53318787 C186.33456719 326.39719564 181.94944202 310.77596042 179.03487396 295.03318787 C178.83120209 293.99291443 178.62753021 292.95264099 178.41768646 291.88084412 C177.24688864 285.52164772 176.82725361 279.48961527 177.03487396 273.03318787 C176.46978119 272.92248962 175.90468842 272.81179138 175.32247162 272.69773865 C172.76663518 272.19246014 170.21330518 271.67547781 167.65987396 271.15818787 C166.32569427 270.89715271 166.32569427 270.89715271 164.96456146 270.63084412 C164.11378021 270.45682068 163.26299896 270.28279724 162.38643646 270.10350037 C161.600914 269.94639587 160.81539154 269.78929138 160.00606537 269.62742615 C158.03487396 269.03318787 158.03487396 269.03318787 156.03487396 267.03318787 C157.0132724 266.35514099 157.99167084 265.67709412 158.99971771 264.97850037 C176.91325025 252.36285333 186.52348676 238.20851764 192.03487396 217.03318787 C191.70487396 216.70318787 191.37487396 216.37318787 191.03487396 216.03318787 C190.16088959 216.7041449 190.16088959 216.7041449 189.26924896 217.38865662 C176.54223076 226.77383199 163.82595206 230.45980672 148.03487396 229.03318787 C141.63275869 228.03607681 135.33033465 226.55114609 129.03487396 225.03318787 C129.03487396 228.33318787 129.03487396 231.63318787 129.03487396 235.03318787 C121.9285635 233.76138104 116.20030707 231.48834449 109.84737396 228.09568787 C108.9297226 227.60914734 108.01207123 227.12260681 107.06661224 226.62132263 C96.68125039 220.96262021 88.10703454 213.92343234 79.47237396 205.90818787 C62.96290547 190.66120814 45.96711087 184.98805881 23.57784271 185.60350037 C1.63207077 186.86605862 -20.75420012 195.88934399 -40.94559479 204.00975037 C-51.17015115 208.05823838 -59.99568639 208.72599458 -70.96512604 208.03318787 C-72.93086279 199.38775223 -73.26875426 191.06487624 -73.21512604 182.22068787 C-73.22286041 180.95676208 -73.23059479 179.6928363 -73.23856354 178.39060974 C-73.19103865 155.18658345 -73.19103865 155.18658345 -68.85575104 149.57615662 C-67.98434479 148.79885193 -67.11293854 148.02154724 -66.21512604 147.22068787 C-65.24188385 146.35185974 -64.26864166 145.48303162 -63.26590729 144.58787537 C-48.76720937 133.03318787 -48.76720937 133.03318787 -43.96512604 133.03318787 C-43.77176666 132.38092224 -43.57840729 131.72865662 -43.37918854 131.05662537 C-43.11879791 130.18264099 -42.85840729 129.30865662 -42.59012604 128.40818787 C-42.20727448 127.12041443 -42.20727448 127.12041443 -41.81668854 125.80662537 C-41.24171386 123.93400141 -40.61499881 122.0766022 -39.94168854 120.23704529 C-36.95954104 110.4533649 -36.54452122 95.13436091 -40.43778229 85.58006287 C-44.2975867 78.98079488 -49.16671076 74.46743888 -55.96512604 71.03318787 C-57.38631744 70.25394958 -57.38631744 70.25394958 -58.83621979 69.45896912 C-71.24414469 63.80492094 -88.32170457 64.41751235 -100.95340729 68.83006287 C-110.90233397 72.80447197 -117.73699163 76.40561698 -122.21512604 86.65818787 C-122.71528229 87.78482849 -123.21543854 88.91146912 -123.73075104 90.07225037 C-125.74772907 94.91044451 -126.14811653 98.91426685 -126.15262604 104.09568787 C-126.16487213 104.80918396 -126.17711823 105.52268005 -126.18973541 106.25779724 C-126.21375192 115.21595492 -125.45291817 122.3880275 -119.11600494 129.09446716 C-118.4680899 129.734245 -117.82017487 130.37402283 -117.15262604 131.03318787 C-116.484086 131.71743835 -115.81554596 132.40168884 -115.12674713 133.10667419 C-106.53668056 141.72620751 -97.65917726 148.0920483 -86.96512604 154.03318787 C-86.96512604 171.85318787 -86.96512604 189.67318787 -86.96512604 208.03318787 C-101.59137764 205.78299531 -101.59137764 205.78299531 -107.01590729 204.44725037 C-108.20087799 204.15833923 -109.38584869 203.8694281 -110.6067276 203.57176208 C-111.81812408 203.27028259 -113.02952057 202.9688031 -114.27762604 202.65818787 C-115.55218658 202.34510681 -116.82674713 202.03202576 -118.13993073 201.7094574 C-120.64232605 201.09391027 -123.14414381 200.4760091 -125.64530182 199.85545349 C-128.36326693 199.18225843 -131.08293839 198.51779928 -133.80496979 197.86131287 C-139.65344825 196.44087764 -145.44122776 194.90848664 -151.19071198 193.13011169 C-174.0437467 186.11897508 -200.78690316 181.90473341 -222.96512604 193.03318787 C-234.2014567 199.12930306 -243.35658643 208.33446816 -252.25028229 217.37303162 C-252.99890533 218.1316449 -253.74752838 218.89025818 -254.51883698 219.67185974 C-255.99252261 221.17166778 -257.45842919 222.679171 -258.91532135 224.19529724 C-265.57578875 231.00349563 -271.18346618 234.89161931 -280.95340729 235.13084412 C-282.39484615 235.1242622 -283.83626942 235.11243285 -285.27762604 235.09568787 C-286.01819244 235.09117615 -286.75875885 235.08666443 -287.52176666 235.08201599 C-289.33625502 235.07030961 -291.15070138 235.05237685 -292.96512604 235.03318787 C-292.96512604 231.73318787 -292.96512604 228.43318787 -292.96512604 225.03318787 C-293.65993073 225.24975037 -294.35473541 225.46631287 -295.07059479 225.68943787 C-307.03357809 228.96447512 -323.28844756 231.14666678 -334.75809479 225.38084412 C-335.4864151 224.93611755 -336.21473541 224.49139099 -336.96512604 224.03318787 C-337.93063385 223.4543988 -338.89614166 222.87560974 -339.89090729 222.27928162 C-342.62187949 220.58260757 -345.3012325 218.83275654 -347.96512604 217.03318787 C-348.95512604 216.37318787 -349.94512604 215.71318787 -350.96512604 215.03318787 C-344.00830939 233.28885265 -336.84571833 249.77945967 -319.96512604 261.03318787 C-319.54692239 265.05909502 -319.83567525 268.97706318 -319.96512604 273.03318787 C-326.89512604 273.03318787 -333.82512604 273.03318787 -340.96512604 273.03318787 C-341.30543854 276.96225037 -341.30543854 276.96225037 -341.65262604 280.97068787 C-343.28026042 297.1048802 -346.49000269 312.94581252 -351.34793854 328.41600037 C-351.68819061 329.51010727 -352.02844269 330.60421417 -352.37900543 331.73147583 C-357.35281082 347.60758653 -362.61146331 363.39305743 -367.83633804 379.18780899 C-369.32971362 383.70449723 -370.81986289 388.22224937 -372.31009674 392.73997498 C-372.91472134 394.57281656 -373.51935086 396.40565653 -374.12398529 398.23849487 C-374.42335684 399.14599424 -374.72272839 400.05349361 -375.0311718 400.98849297 C-375.93621071 403.73154963 -376.8415827 406.47449613 -377.74706268 409.21740723 C-382.81410203 424.56741043 -387.86522166 439.92259379 -392.90201569 455.282547 C-394.10727212 458.95797574 -395.31408775 462.63289179 -396.5207901 466.30784607 C-401.4045321 481.1944545 -406.21229441 496.10427328 -410.96512604 511.03318787 C-426.28232707 512.92011094 -441.59277299 514.65921309 -456.96512604 516.03318787 C-456.96512604 519.04646904 -455.06489597 520.22599828 -453.05496979 522.27244568 C-452.48907135 522.8328656 -451.92317291 523.39328552 -451.34012604 523.97068787 C-450.75618073 524.55044373 -450.17223541 525.13019958 -449.57059479 525.7275238 C-410.26100922 564.05227434 -360.64682453 577.23749972 -306.84012604 577.28318787 C-305.74794769 577.28419998 -305.74794769 577.28419998 -304.63370514 577.28523254 C-263.21073146 577.22510641 -222.75671605 569.53438016 -189.01590729 544.29490662 C-188.00914948 543.54853943 -187.00239166 542.80217224 -185.96512604 542.03318787 C-184.96352448 541.27650818 -183.96192291 540.51982849 -182.92996979 539.74021912 C-179.57684157 537.80963014 -178.00350583 537.86936604 -174.21512604 538.03318787 C-170.97129195 537.84027914 -170.97129195 537.84027914 -167.96512604 536.03318787 C-163.47446171 530.01972775 -160.90841914 522.87201596 -157.96512604 516.03318787 C-172.15512604 514.38318787 -186.34512604 512.73318787 -200.96512604 511.03318787 C-203.50789698 502.89632086 -206.05050767 494.75949095 -208.58753204 486.62084961 C-225.442509 432.59807461 -243.29019658 378.90657266 -261.21891022 325.23249626 C-261.88187845 323.24771819 -262.54472378 321.26289911 -263.20755768 319.27807617 C-265.25956512 313.13421157 -267.31396701 306.99116161 -269.37284088 300.84959412 C-270.10542766 298.66079275 -270.83801242 296.47199071 -271.57059479 294.28318787 C-272.06889549 292.80048401 -272.06889549 292.80048401 -272.57726288 291.28782654 C-272.87952286 290.38395203 -273.18178284 289.48007751 -273.49320221 288.54881287 C-273.75509842 287.76796326 -274.01699463 286.98711365 -274.28682709 286.18260193 C-275.69469754 281.72129979 -276.07474325 277.99490878 -276.02762604 273.28318787 C-276.0186026 272.11271912 -276.00957916 270.94225037 -276.00028229 269.73631287 C-275.98287994 268.39826599 -275.98287994 268.39826599 -275.96512604 267.03318787 C-274.15383342 266.3047093 -272.34236811 265.57665868 -270.53031158 264.8500824 C-268.82134796 264.16422966 -267.11321199 263.47631193 -265.40579987 262.78660583 C-260.27093484 260.72176915 -255.12185799 258.70511834 -249.94139862 256.75796509 C-226.79291188 248.83202374 -226.79291188 248.83202374 -206.96512604 235.03318787 C-196.694782 235.08095691 -186.85006076 236.16667055 -176.96512604 239.03318787 C-176.02225739 239.29712341 -176.02225739 239.29712341 -175.06034088 239.56639099 C-160.59139718 243.69138581 -147.40447225 250.37611433 -133.96512604 257.03318787 C-129.36695792 259.29564356 -124.76106816 261.54175077 -120.15262604 263.78318787 C-119.12983551 264.28922546 -118.10704498 264.79526306 -117.0532608 265.31663513 C-107.24108232 270.09514832 -97.12648397 274.06529698 -86.96512604 278.03318787 C-86.95481857 278.63357376 -86.94451111 279.23395966 -86.9338913 279.85253906 C-86.82379296 286.23061225 -86.70942074 292.60859962 -86.59281158 298.98655701 C-86.55009862 301.3514472 -86.50839485 303.71635588 -86.46781158 306.08128357 C-86.26194489 318.03934285 -86.01038319 329.98471202 -85.44168854 341.93162537 C-84.9758619 351.79583919 -84.7788856 361.64141619 -84.7798233 371.51634216 C-84.77759831 374.12823427 -84.75919852 376.73972681 -84.74051666 379.35154724 C-84.64773081 405.50225677 -84.64773081 405.50225677 -90.59012604 415.97068787 C-90.93986481 416.63125183 -91.28960358 417.2918158 -91.64994049 417.97239685 C-92.73222118 420.00611715 -93.84268716 422.02139024 -94.96512604 424.03318787 C-111.14145065 453.03444953 -112.56584703 482.0054925 -112.64364243 514.53478241 C-112.65882237 519.07325707 -112.69607264 523.61154093 -112.73246002 528.14988708 C-112.77536899 533.60968852 -112.81738551 539.06947225 -112.85057831 544.52934265 C-112.94769042 560.24230951 -113.20341359 575.94820275 -113.52762604 591.65818787 C-113.67200104 598.71193787 -113.81637604 605.76568787 -113.96512604 613.03318787 C-137.39512604 613.03318787 -160.82512604 613.03318787 -184.96512604 613.03318787 C-184.82075104 618.72568787 -184.67637604 624.41818787 -184.52762604 630.28318787 C-184.38040546 644.7664069 -185.30341162 656.91131324 -191.96512604 670.03318787 C-192.46657135 671.11600037 -192.96801666 672.19881287 -193.48465729 673.31443787 C-199.86195275 686.10416541 -211.13841173 699.37696866 -223.96512604 706.03318787 C-243.87635627 711.70713807 -265.50165277 711.47681948 -285.99979401 711.31443787 C-289.98975212 711.28299379 -293.97896188 711.27341412 -297.96903229 711.26756287 C-309.10095918 711.23372604 -320.2024444 711.14407488 -331.31227875 710.41252136 C-343.14794916 709.65664165 -355.02666487 709.66559966 -366.88187408 709.48094177 C-377.86041042 709.30595304 -388.813578 709.12555561 -399.77074432 708.39511108 C-407.82139488 707.87611714 -415.88026916 707.78318712 -423.9447403 707.64448547 C-444.98660575 707.27385381 -465.96155819 706.32574731 -486.96512604 705.03318787 C-487.78094044 686.44964592 -488.12429883 667.90161358 -488.15457916 649.30149841 C-488.16203125 646.53334255 -488.17089708 643.76519162 -488.17971039 640.99703979 C-488.19787846 635.07349825 -488.21280398 629.1499561 -488.22548676 623.22640038 C-488.24416914 614.53406895 -488.26883439 605.84176139 -488.29486066 597.14944921 C-488.33752846 582.86778378 -488.37659948 568.58611111 -488.41287994 554.3044281 C-488.41612415 553.02798321 -488.41612415 553.02798321 -488.41943389 551.72575156 C-488.42816451 548.28794082 -488.43688308 544.85013006 -488.44558677 541.41231925 C-488.51713326 513.17403559 -488.59333796 484.93576622 -488.67663705 456.69751471 C-488.68389365 454.22640785 -488.69105554 451.75530073 -488.69819355 449.28419352 C-488.82643256 405.01257585 -489.0631986 360.7445558 -489.48075104 316.47459412 C-489.96241697 265.28045479 -490.1836992 214.08897807 -490.20394993 162.89257401 C-490.20878827 150.89664481 -490.22688474 138.90082246 -490.25502133 126.90492558 C-490.27659199 117.36531204 -490.28671991 107.82572924 -490.28806186 98.28609157 C-490.28909841 92.68605205 -490.29477709 87.08611946 -490.31288147 81.48610687 C-490.32931594 76.32013291 -490.33154075 71.15434832 -490.32274246 65.98835754 C-490.32197407 64.10898579 -490.32628863 62.22960365 -490.33620071 60.35025787 C-490.41728807 44.02803644 -488.36793968 32.92733705 -476.90262604 20.53318787 C-473.54337005 17.33317426 -469.8446359 14.62052953 -466.09012604 11.90818787 C-465.5254361 11.50019958 -464.96074615 11.0922113 -464.3789444 10.67185974 C-462.59827245 9.41914096 -460.78493523 8.22830854 -458.96512604 7.03318787 C-458.3525872 6.60141613 -457.74004837 6.16964439 -457.10894775 5.72478867 C-450.36975792 1.40492001 -444.34706057 1.32550672 -436.49832916 1.38963318 C-435.13393949 1.38276825 -433.76955944 1.37370896 -432.40519714 1.36267185 C-428.64972519 1.33857921 -424.8948468 1.34541478 -421.13933945 1.3571322 C-417.04108398 1.36429213 -412.94297009 1.34215456 -408.84476471 1.32363892 C-401.60938104 1.29489326 -394.37414802 1.28441716 -387.13871002 1.28559875 C-376.13457871 1.28715517 -365.13064118 1.26004723 -354.12656689 1.22655809 C-339.90418876 1.1834352 -325.68181295 1.14578685 -311.45938873 1.12194824 C-282.14877798 1.07220222 -252.83907936 0.96316858 -223.52887917 0.80116463 C-158.24124183 0.44056623 -92.95345964 0.22932447 -27.66507982 0.06942535 C-18.44338508 0.04683566 -9.22169192 0.02371706 0 0 Z " fill="#F14134" transform="translate(540.9651260375977,50.96681213378906)"/>
<path d="M0 0 C14.88748748 11.90998999 20.02404631 33.30157978 25.125 50.9375 C25.627946 52.64806909 26.13184998 54.3583568 26.63671875 56.06835938 C28.50400149 62.40679816 30.36094489 68.74809451 32.16967773 75.10351562 C35.63864731 87.21411123 39.62584974 99.1470726 43.62817383 111.09033203 C44.80306723 114.59684752 45.97320659 118.10492093 47.14257812 121.61328125 C51.15223151 133.62151547 55.20889168 145.60979399 59.44721985 157.5395813 C64.56864434 172.07515808 65 183.89089135 65 200 C43.55 200 22.1 200 0 200 C0 134 0 68 0 0 Z " fill="#E94034" transform="translate(248,362)"/>
<path d="M0 0 C9.21900414 9.21900414 13.85243777 23.67986473 18.19140625 35.6953125 C18.42480272 36.33694777 18.6581992 36.97858303 18.89866829 37.63966179 C24.22699275 52.30118698 29.03866069 67.12308797 33.7744751 81.98444748 C34.90972553 85.54254918 36.05178095 89.09846557 37.19335938 92.65454102 C38.55393091 96.89383721 39.91407974 101.13326452 41.27108765 105.373703 C43.77340626 113.19166898 46.29394012 121.00333092 48.84765625 128.8046875 C49.1266124 129.6580217 49.40556854 130.5113559 49.69297791 131.39054871 C51.19024188 135.96927094 51.19024188 135.96927094 52.69528198 140.54544067 C55.20336051 148.15198749 57.56270739 155.78556325 59.73046875 163.49609375 C59.93877319 164.23081406 60.14707764 164.96553436 60.36169434 165.72251892 C63.80402448 178.17701627 64 189.97003871 64 203 C42.88 203 21.76 203 0 203 C0 136.01 0 69.02 0 0 Z " fill="#EB4034" transform="translate(697,358)"/>
<path d="M0 0 C1.98 0 3.96 0 6 0 C6 64.35 6 128.7 6 195 C-15.45 195 -36.9 195 -59 195 C-58.33878799 185.08181985 -57.5494462 176.04060002 -55.5 166.4375 C-55.2321167 165.18122803 -54.9642334 163.92495605 -54.68823242 162.63061523 C-48.37540484 133.6920166 -37.85903766 105.96651328 -27.9465332 78.11878967 C-24.75718474 69.15249895 -21.60114008 60.17500385 -18.4609375 51.19140625 C-18.00266694 49.88103145 -17.54437948 48.57066256 -17.08607483 47.26029968 C-15.31085925 42.18393647 -13.53619899 37.10738182 -11.76425171 32.02987671 C-10.5440926 28.53482574 -9.32114629 25.04076107 -8.09765625 21.546875 C-7.74113983 20.52312271 -7.38462341 19.49937042 -7.01730347 18.44459534 C-4.83728727 12.2276594 -2.50071019 6.0950863 0 0 Z " fill="#E84034" transform="translate(664,367)"/>
<path d="M0 0 C1.65 0 3.3 0 5 0 C5 65.67 5 131.34 5 199 C-16.12 199 -37.24 199 -59 199 C-57.87222184 182.0833276 -57.87222184 182.0833276 -56.6875 176.3359375 C-56.42187256 175.04558594 -56.15624512 173.75523437 -55.88256836 172.42578125 C-55.59003969 171.07516006 -55.29580393 169.72490765 -55 168.375 C-54.76991745 167.30886475 -54.76991745 167.30886475 -54.53518677 166.22119141 C-51.2680485 151.18230776 -46.92011009 136.581471 -42 122 C-41.61944458 120.87111359 -41.61944458 120.87111359 -41.23120117 119.71942139 C-38.33128376 111.12862431 -35.40003556 102.54870793 -32.44985962 93.97505188 C-28.92546605 83.73258199 -25.47112697 73.4690083 -22.0625 63.1875 C-17.70166105 50.05120556 -13.29050692 36.93236164 -8.8366394 23.82730103 C-8.15634848 21.82470082 -7.47708054 19.8217528 -6.79885864 17.81845093 C-5.85454027 15.03029531 -4.90636117 12.24348383 -3.95703125 9.45703125 C-3.52979767 8.19265732 -3.52979767 8.19265732 -3.09393311 6.90274048 C-1.11446422 1.11446422 -1.11446422 1.11446422 0 0 Z " fill="#EB4034" transform="translate(216,362)"/>
<path d="M0 0 C8.25 0 16.5 0 25 0 C25.99 2.90941406 26.98 5.81882812 28 8.81640625 C28.98506772 11.70971112 29.97040174 14.60292516 30.95578003 17.49612427 C31.64976927 19.53403949 32.34355716 21.57202329 33.03713989 23.6100769 C39.37448339 42.23515484 39.37448339 42.23515484 45.91601562 60.78930664 C48 66.67679878 48 66.67679878 48 70 C48.66 70 49.32 70 50 70 C50.2364624 68.79786865 50.4729248 67.5957373 50.71655273 66.35717773 C52.16876517 59.84209715 54.37438322 53.59308824 56.53515625 47.28515625 C56.97867899 45.98014241 57.42182323 44.67499987 57.86460876 43.36973572 C58.78716248 40.65330065 59.71275518 37.93792893 60.64086914 35.22338867 C61.83101725 31.74233601 63.01571837 28.25946124 64.19846439 24.77588749 C65.32964287 21.44500142 66.46357192 18.11505382 67.59765625 14.78515625 C67.81341875 14.15082232 68.02918125 13.51648838 68.25148201 12.86293221 C68.86021864 11.07484865 69.47119233 9.28752715 70.08227539 7.50024414 C70.42932022 6.48370255 70.77636505 5.46716095 71.13392639 4.41981506 C72 2 72 2 73 0 C81.25 0 89.5 0 98 0 C98 31.35 98 62.7 98 95 C92.06 95 86.12 95 80 95 C80 74.21 80 53.42 80 32 C79.34 32 78.68 32 78 32 C77.83210968 32.57898544 77.66421936 33.15797089 77.49124146 33.75450134 C75.45261209 40.67746955 73.16700906 47.49794342 70.8046875 54.31640625 C70.41177521 55.45407944 70.01886292 56.59175262 69.61404419 57.76390076 C68.78979717 60.14838013 67.96449505 62.53249502 67.13818359 64.91625977 C65.8683888 68.58158353 64.60395325 72.24872777 63.33984375 75.91601562 C62.53678049 78.23709065 61.73340633 80.55805814 60.9296875 82.87890625 C60.55053192 83.97981094 60.17137634 85.08071564 59.7807312 86.21498108 C59.43011627 87.22370773 59.07950134 88.23243439 58.71826172 89.27172852 C58.40976288 90.16312027 58.10126404 91.05451202 57.78341675 91.97291565 C57 94 57 94 56 95 C53.30345146 95.07319621 50.63308542 95.09242537 47.9375 95.0625 C47.17888672 95.05798828 46.42027344 95.05347656 45.63867188 95.04882812 C43.75908129 95.0370068 41.87953101 95.01907078 40 95 C37.25832685 87.08237455 34.51995382 79.16361895 31.78582001 71.24338722 C30.51623285 67.56598868 29.24550023 63.88899424 27.97216797 60.21289062 C26.74403309 56.66713652 25.51888353 53.1203641 24.29582214 49.5728569 C23.8280061 48.21766617 23.35910428 46.86284976 22.88911438 45.50841141 C22.23247243 43.61548008 21.58000055 41.72110374 20.92773438 39.82666016 C20.55467163 38.74744293 20.18160889 37.66822571 19.79724121 36.55630493 C19 34 19 34 19 32 C18.34 32 17.68 32 17 32 C17 52.79 17 73.58 17 95 C11.39 95 5.78 95 0 95 C0 63.65 0 32.3 0 0 Z " fill="#FCFCFC" transform="translate(393,878)"/>
<path d="M0 0 C8.25 0 16.5 0 25 0 C29.49945529 11.24863821 29.49945529 11.24863821 30.96704102 15.59814453 C31.46259239 17.05983566 31.46259239 17.05983566 31.96815491 18.55105591 C32.30995285 19.56803558 32.65175079 20.58501526 33.00390625 21.6328125 C33.55074318 23.24783157 33.55074318 23.24783157 34.10862732 24.89547729 C35.26251019 28.3044484 36.41275078 31.71463275 37.5625 35.125 C38.71632648 38.54233344 39.87096381 41.95938801 41.02708435 45.37594604 C41.74310304 47.49241989 42.45774951 49.60935865 43.17079163 51.72683716 C45.01775467 57.19158307 46.93942614 62.61203723 49 68 C50.68201088 65.47698368 51.54851943 63.73924519 52.49291992 60.93774414 C52.7704863 60.12161148 53.04805267 59.30547882 53.33403015 58.46461487 C53.62985489 57.58039352 53.92567963 56.69617218 54.23046875 55.78515625 C54.54397781 54.86020859 54.85748688 53.93526093 55.18049622 52.98228455 C56.18696641 50.01040263 57.18746752 47.03655368 58.1875 44.0625 C59.49181887 40.19865325 60.79831319 36.33554418 62.10546875 32.47265625 C62.42683807 31.52282867 62.7482074 30.5730011 63.07931519 29.59439087 C65.33807976 22.92848123 67.61644441 16.26966079 69.92578125 9.62109375 C70.22107224 8.76467789 70.51636322 7.90826202 70.82060242 7.02589417 C72.8830999 1.1169001 72.8830999 1.1169001 74 0 C81.92 0 89.84 0 98 0 C98 31.35 98 62.7 98 95 C92.06 95 86.12 95 80 95 C80 74.21 80 53.42 80 32 C79.34 32 78.68 32 78 32 C77.75975098 33.22323975 77.51950195 34.44647949 77.27197266 35.70678711 C75.89688541 41.87573788 73.77162101 47.74675095 71.6484375 53.69140625 C71.02009506 55.4701841 71.02009506 55.4701841 70.37905884 57.28489685 C69.27477816 60.4080529 68.16602 63.52956881 67.05499268 66.65032959 C65.91824692 69.84691049 64.78751691 73.04561759 63.65625 76.24414062 C61.44298521 82.49805191 59.2232417 88.74962887 57 95 C51.72 95 46.44 95 41 95 C37.24798987 84.96499486 33.58698027 74.90578526 30.10546875 64.7734375 C29.78329376 63.83783997 29.46111877 62.90224243 29.12918091 61.93829346 C27.8066636 58.09481643 26.48588478 54.25079926 25.17504883 50.40332031 C24.20009575 47.54521929 23.21608386 44.69037613 22.23046875 41.8359375 C21.78673164 40.52222672 21.78673164 40.52222672 21.33403015 39.18197632 C21.05646378 38.38248566 20.7788974 37.582995 20.49291992 36.75927734 C20.25200119 36.05491547 20.01108246 35.35055359 19.76286316 34.62484741 C19.10920136 32.7964452 19.10920136 32.7964452 17 32 C17 52.79 17 73.58 17 95 C11.39 95 5.78 95 0 95 C0 63.65 0 32.3 0 0 Z " fill="#FCFCFC" transform="translate(78,878)"/>
<path d="M0 0 C22 0 22 0 27.12109375 4.84375 C28.86181641 8.02734375 28.86181641 8.02734375 30.4375 11.5 C31.05267263 12.6831159 31.6770595 13.86148136 32.31005859 15.03515625 C33.60891797 17.45883919 34.86655851 19.89795216 36.10009766 22.35546875 C39.05189208 28.13741718 42.61936407 33.54342029 46.125 39 C47.31822235 40.89387232 48.50847251 42.7896215 49.6953125 44.6875 C50.24606445 45.56535156 50.79681641 46.44320312 51.36425781 47.34765625 C53.55184847 50.89481818 55.6509088 54.49211118 57.73388672 58.1015625 C58.86661288 60.13996659 58.86661288 60.13996659 61 61 C61 40.87 61 20.74 61 0 C66.94 0 72.88 0 79 0 C79 31.35 79 62.7 79 95 C60 95 60 95 56.0625 91.25 C55.00191184 89.1866214 53.98796125 87.09912149 53 85 C51.70822183 82.76375886 50.36494726 80.5631752 49.01782227 78.35986328 C47.45675393 75.80420081 45.9264208 73.2318109 44.3984375 70.65625 C40.12562491 63.50200844 35.68936808 56.45084781 31.25195312 49.39794922 C30.65576172 48.44936035 30.05957031 47.50077148 29.4453125 46.5234375 C28.86942383 45.60788086 28.29353516 44.69232422 27.70019531 43.74902344 C25.48481685 40.16700715 23.36139467 36.5336095 21.25732422 32.88525391 C20.13102474 30.85885268 20.13102474 30.85885268 18 30 C18 51.45 18 72.9 18 95 C12.06 95 6.12 95 0 95 C0 63.65 0 32.3 0 0 Z " fill="#FDFDFD" transform="translate(245,878)"/>
<path d="M0 0 C8.25 0 16.5 0 25 0 C29.29880781 12.24676438 33.58634165 24.49742323 37.86523438 36.75115967 C39.05271087 40.15091152 40.24120679 43.55030612 41.4296875 46.94970703 C43.50855586 52.89803561 45.58189956 58.84826829 47.6519165 64.79968262 C48.46778718 67.14294431 49.28529439 69.48563683 50.10443115 71.82775879 C51.25889653 75.12976042 52.40748823 78.43374938 53.5546875 81.73828125 C53.90402344 82.73340225 54.25335937 83.72852325 54.61328125 84.75379944 C54.92894043 85.66689377 55.24459961 86.5799881 55.56982422 87.52075195 C55.84736542 88.31721634 56.12490662 89.11368073 56.41085815 89.9342804 C57 92 57 92 57 95 C50.4 95 43.8 95 37 95 C36.01 91.926875 35.02 88.85375 34 85.6875 C33.68675781 84.72287842 33.37351562 83.75825684 33.05078125 82.7644043 C32.80714844 82.00039307 32.56351563 81.23638184 32.3125 80.44921875 C32.06113281 79.66893311 31.80976562 78.88864746 31.55078125 78.0847168 C31 76 31 76 31 73 C18.79 73.33 6.58 73.66 -6 74 C-8.31 80.93 -10.62 87.86 -13 95 C-19.27 95 -25.54 95 -32 95 C-30.87497512 87.12482585 -30.87497512 87.12482585 -29.42456055 82.97143555 C-29.10259705 82.03950882 -28.78063354 81.10758209 -28.44891357 80.14741516 C-28.09838928 79.15388535 -27.74786499 78.16035553 -27.38671875 77.13671875 C-27.02064514 76.08312668 -26.65457153 75.02953461 -26.27740479 73.9440155 C-25.08696435 70.52298095 -23.88742708 67.10521739 -22.6875 63.6875 C-21.86808812 61.33952392 -21.04916127 58.99137852 -20.23071289 56.64306641 C-18.20351658 50.83236745 -16.16842733 45.02447513 -14.12963867 39.21783447 C-13.0819306 36.23338356 -12.03574055 33.24840645 -10.99023438 30.26318359 C-9.30963648 25.4658365 -7.62540722 20.66978013 -5.9375 15.875 C-5.56109879 14.80528458 -5.56109879 14.80528458 -5.17709351 13.71395874 C-4.48297975 11.74361872 -3.78687801 9.77399596 -3.08984375 7.8046875 C-2.70691162 6.72171387 -2.32397949 5.63874023 -1.92944336 4.52294922 C-1 2 -1 2 0 0 Z " fill="#FBFBFB" transform="translate(537,878)"/>
<path d="M0 0 C1.07314453 -0.02449219 2.14628906 -0.04898438 3.25195312 -0.07421875 C14.56071441 -0.11526689 23.24034265 3.00638336 31.8125 10.375 C31.18856349 14.13619476 29.46476285 16.56460042 27.25 19.625 C26.60933594 20.51703125 25.96867188 21.4090625 25.30859375 22.328125 C24.81488281 23.00359375 24.32117188 23.6790625 23.8125 24.375 C19.80723783 23.5394937 17.20269007 21.65818923 13.8125 19.375 C9.32802689 17.07194329 5.24031671 17.04122273 0.3125 17.0625 C-0.80705078 17.03833008 -0.80705078 17.03833008 -1.94921875 17.01367188 C-6.51486238 17.00963148 -9.47246163 17.43869083 -13.1875 20.375 C-14.79098103 23.58196206 -14.66481388 26.895451 -14.1875 30.375 C-11.40858311 34.65916354 -6.9581353 36.11549599 -2.1875 37.375 C-0.33271452 37.68817184 1.52235837 38.00003842 3.38037109 38.29345703 C13.76477533 39.96708876 24.76830578 42.8185296 31.5625 51.5 C36.51108686 59.04816096 36.52205866 66.63575221 35.8125 75.375 C34.21754279 82.60483597 30.69520321 87.90652241 24.8125 92.375 C17.02421158 97.14987589 10.249257 97.60553955 1.25 97.6875 C-0.30170898 97.73100586 -0.30170898 97.73100586 -1.88476562 97.77539062 C-14.6135075 97.87900593 -24.8098425 93.11427221 -34.3125 84.8125 C-36.1875 82.375 -36.1875 82.375 -36.046875 80.0546875 C-35.00043941 76.79171106 -33.46413587 74.7224894 -31.3125 72.0625 C-30.26449219 70.73798828 -30.26449219 70.73798828 -29.1953125 69.38671875 C-28.53273438 68.72285156 -27.87015625 68.05898438 -27.1875 67.375 C-26.1975 67.375 -25.2075 67.375 -24.1875 67.375 C-23.383125 68.40625 -22.57875 69.4375 -21.75 70.5 C-16.88089485 76.38849909 -10.27903321 79.81096943 -2.73046875 80.8515625 C2.9893673 80.99537552 8.10538223 80.96727409 12.8125 77.375 C15.22793818 74.47647418 15.77698117 72.62363178 16.3125 68.875 C16.05845016 65.3396592 16.05845016 65.3396592 14.0625 62.6875 C8.2929823 58.58226625 1.63470946 56.99201448 -5.2109375 55.44921875 C-16.0808636 52.99039293 -24.62381362 49.83443037 -31.1875 40.375 C-34.73338878 34.26139865 -35.01332153 28.35364566 -34.1875 21.375 C-31.8109511 13.27035889 -27.49117253 7.90582483 -20.3828125 3.48828125 C-13.63647084 0.06709376 -7.43328137 0.00877083 0 0 Z " fill="#FBFBFB" transform="translate(757.1875,876.625)"/>
<path d="M0 0 C0.95132813 -0.020625 1.90265625 -0.04125 2.8828125 -0.0625 C13.74057972 -0.12199461 23.08219195 3.1047388 31 10.625 C34.13097895 13.8966971 37.25 17.5104749 37.25 22.25 C34.80078125 24.01171875 34.80078125 24.01171875 31.5625 25.9375 C29.97888672 26.90236328 29.97888672 26.90236328 28.36328125 27.88671875 C25.25 29.25 25.25 29.25 22.4765625 29.1328125 C19.14467416 27.811748 18.16684753 25.21240074 16.25 22.25 C11.0346801 18.3119013 7.41098497 17.09983267 0.9375 17.0625 C-0.72732422 17.04123047 -0.72732422 17.04123047 -2.42578125 17.01953125 C-8.38603914 17.43275712 -13.20545444 19.38230165 -17.75 23.25 C-25.25008394 35.52836323 -25.60750858 50.12528112 -22.6875 64.0625 C-20.57856979 70.99325657 -16.63259671 75.44131187 -10.5625 79.25 C-2.2967314 81.41807045 5.60932015 81.13736343 13.25 77.25 C18.12739578 73.48110326 20.06723722 68.8471403 22.25 63.25 C26.39298667 63.84834725 29.43194377 65.25664285 33.0625 67.3125 C34.03832031 67.86035156 35.01414062 68.40820312 36.01953125 68.97265625 C36.75558594 69.39417969 37.49164062 69.81570313 38.25 70.25 C35.44959776 80.86205059 29.5907914 88.81522546 20.16796875 94.5078125 C13.56372538 97.55920766 6.83879428 97.66459442 -0.3125 97.75 C-1.281875 97.76853027 -2.25125 97.78706055 -3.25 97.80615234 C-14.45546674 97.70922582 -24.25390791 93.25888518 -32.46875 85.66015625 C-43.39479057 73.81432145 -45.47789681 58.26680602 -45.03125 42.77734375 C-44.38813294 29.86944848 -39.63398372 17.96903389 -30.09765625 9.0390625 C-20.59142598 1.79471397 -11.58393422 0.06178098 0 0 Z " fill="#FBFBFB" transform="translate(972.75,876.75)"/>
<path d="M0 0 C24.42 0 48.84 0 74 0 C74 5.28 74 10.56 74 16 C64.76 16 55.52 16 46 16 C46 42.07 46 68.14 46 95 C39.73 95 33.46 95 27 95 C27 68.93 27 42.86 27 16 C18.09 16 9.18 16 0 16 C0 10.72 0 5.44 0 0 Z " fill="#FBFBFB" transform="translate(801,878)"/>
<path d="M0 0 C6.27 0 12.54 0 19 0 C19 26.07 19 52.14 19 79 C33.19 79 47.38 79 62 79 C62 84.28 62 89.56 62 95 C41.54 95 21.08 95 0 95 C0 63.65 0 32.3 0 0 Z " fill="#FCFCFC" transform="translate(608,878)"/>
<path d="M0 0 C6.27 0 12.54 0 19 0 C19 31.35 19 62.7 19 95 C12.73 95 6.46 95 0 95 C0 63.65 0 32.3 0 0 Z " fill="#FBFBFB" transform="translate(685,878)"/>
<path d="M0 0 C6.27 0 12.54 0 19 0 C19 31.35 19 62.7 19 95 C12.73 95 6.46 95 0 95 C0 63.65 0 32.3 0 0 Z " fill="#FDFDFD" transform="translate(349,878)"/>
<path d="M0 0 C6.27 0 12.54 0 19 0 C19 31.35 19 62.7 19 95 C12.73 95 6.46 95 0 95 C0 63.65 0 32.3 0 0 Z " fill="#FDFDFD" transform="translate(201,878)"/>
<path d="M0 0 C5.94 0 11.88 0 18 0 C18 31.35 18 62.7 18 95 C12.06 95 6.12 95 0 95 C0 63.65 0 32.3 0 0 Z " fill="#FFFFFF" transform="translate(890,878)"/>
<path d="M0 0 C21.45 0 42.9 0 65 0 C65 19.47 65 38.94 65 59 C62.20476191 56.20476191 60.0915166 53.91604397 57.86328125 50.76953125 C57.29077637 49.9707959 56.71827148 49.17206055 56.12841797 48.34912109 C55.52916504 47.51203613 54.92991211 46.67495117 54.3125 45.8125 C40.39618062 26.71567916 22.636412 13.15329444 0 6 C0 4.02 0 2.04 0 0 Z " fill="#F0F0F0" transform="translate(1015,0)"/>
<path d="M0 0 C1.98 0 3.96 0 6 0 C6 21.45 6 42.9 6 65 C-15.12 65 -36.24 65 -58 65 C-54.50491608 61.50491608 -51.25779966 59.13685641 -47.0625 56.6875 C-46.40515869 56.29723633 -45.74781738 55.90697266 -45.07055664 55.50488281 C-40.7531464 52.96248284 -36.37277289 50.57979277 -31.9375 48.25 C-13.27719579 38.23715384 -6.38635222 19.11376338 0 0 Z " fill="#EEEEEE" transform="translate(1074,1015)"/>
<path d="M0 0 C4.50446841 4.50446841 4.50446841 4.50446841 6.21875 7.57421875 C6.59128906 8.23728027 6.96382813 8.9003418 7.34765625 9.58349609 C7.72792969 10.27781738 8.10820312 10.97213867 8.5 11.6875 C9.10134766 12.76378662 9.10134766 12.76378662 9.71484375 13.86181641 C11.70604792 17.46801774 13.50844878 21.02873134 15 24.875 C22.33385268 41.94405536 43.51640221 50.11414454 59 58 C59 59.98 59 61.96 59 64 C39.53 64 20.06 64 0 64 C0 42.88 0 21.76 0 0 Z " fill="#EEEEEE" transform="translate(0,1016)"/>
<path d="M0 0 C19.47 0 38.94 0 59 0 C55.31338153 3.68661847 51.74168501 6.82807655 47.625 9.9375 C31.27068983 22.57234788 16.88315391 37.26325393 4.7434082 53.97216797 C3.5149599 55.66234984 2.2601644 57.33333096 1 59 C0.67 59 0.34 59 0 59 C0 39.53 0 20.06 0 0 Z " fill="#F0F0F0" transform="translate(0,0)"/>
<path d="M0 0 C0.99 0.33 1.98 0.66 3 1 C3.91967773 2.94262695 3.91967773 2.94262695 4.68359375 5.48828125 C4.96968506 6.41737305 5.25577637 7.34646484 5.55053711 8.30371094 C5.84323486 9.29661133 6.13593262 10.28951172 6.4375 11.3125 C7.0514243 13.32441997 7.66600313 15.33614033 8.28125 17.34765625 C8.72210937 18.80776123 8.72210937 18.80776123 9.171875 20.29736328 C10.47495739 24.55005257 11.91913753 28.7491346 13.37109375 32.953125 C14 35 14 35 14 37 C5.75 37 -2.5 37 -11 37 C-10.27535612 31.20284897 -9.58937556 27.19012817 -7.71484375 21.875 C-7.49429825 21.24263428 -7.27375275 20.61026855 -7.04652405 19.95874023 C-6.35095413 17.969787 -5.64446983 15.98492587 -4.9375 14 C-4.45955402 12.63958002 -3.98233408 11.27890473 -3.50585938 9.91796875 C-2.34560239 6.60899147 -1.1755343 3.30358543 0 0 Z " fill="#292929" transform="translate(548,898)"/>
<path d="M0 0 C0.66 0 1.32 0 2 0 C2 20.79 2 41.58 2 63 C1.67 63 1.34 63 1 63 C0.505 34.29 0.505 34.29 0 5 C-0.99 5.495 -0.99 5.495 -2 6 C-1.34 4.02 -0.68 2.04 0 0 Z " fill="#525252" transform="translate(471,910)"/>
</svg>
