<?xml version="1.0" encoding="UTF-8"?>
<svg version="1.1" xmlns="http://www.w3.org/2000/svg" width="1080" height="1080">
<path d="M0 0 C356.4 0 712.8 0 1080 0 C1080 356.4 1080 712.8 1080 1080 C723.6 1080 367.2 1080 0 1080 C0 723.6 0 367.2 0 0 Z " fill="#222424" transform="translate(0,0)"/>
<path d="M0 0 C32.91367338 -0.07428503 65.82734011 -0.13510145 98.74107242 -0.17643198 C103.38455227 -0.18226399 108.0280319 -0.18826537 112.67151141 -0.19436575 C113.57842408 -0.19554979 114.48533675 -0.19673382 115.41973162 -0.19795373 C129.86915066 -0.21726418 144.31848052 -0.25327227 158.76784797 -0.29576901 C173.01521083 -0.33730892 187.26250976 -0.36099602 201.50993359 -0.36534746 C209.74356189 -0.36838351 217.97688366 -0.38474334 226.21042949 -0.42210681 C232.25360508 -0.44801041 238.2964799 -0.44768694 244.33971429 -0.4371282 C246.75119196 -0.43693251 249.16268927 -0.44508572 251.57410169 -0.4628271 C275.14732346 -0.62743794 297.01058451 3.99656039 317.07007098 17.14666818 C319.76184631 20.14180996 321.99489828 23.36279278 324.13257098 26.77166818 C324.61854754 27.52705881 325.10452411 28.28244943 325.60522723 29.06073068 C329.33094655 36.90957938 330.51558242 44.82062244 330.43756366 53.42941355 C330.44083391 54.40871053 330.44410417 55.38800751 330.44747353 56.39698016 C330.45472621 59.66673064 330.44060827 62.93602731 330.42651629 66.20575022 C330.4272883 68.58467629 330.42937008 70.96360224 330.4326427 73.34252619 C330.43669104 78.52133726 330.43135658 83.70005112 330.41768909 88.8788421 C330.39724607 96.63091646 330.39393194 104.38293454 330.39376119 112.13503248 C330.39285435 126.10584168 330.37444411 140.07658805 330.34909418 154.04737181 C330.3268689 166.34816941 330.31145746 178.64895457 330.30224872 190.94976877 C330.30098824 192.60637688 330.29972748 194.26298498 330.29846644 195.91959308 C330.29656932 198.42164277 330.29467534 200.92369247 330.29279482 203.42574217 C330.2192967 300.06186382 329.96466221 396.69790674 329.42651629 590.97137522 C329.4238099 591.87013513 329.42110351 592.76889504 329.41831511 593.6948901 C329.3073527 630.51216581 329.18777858 667.32941319 329.07007098 704.14666818 C227.76007098 704.14666818 126.45007098 704.14666818 22.07007098 704.14666818 C23.60119564 701.08441887 24.62188056 699.30816139 26.79272723 696.86151193 C27.32656024 696.2541218 27.86039325 695.64673166 28.41040301 695.02093576 C28.97871844 694.38180246 29.54703387 693.74266916 30.13257098 693.08416818 C34.07118972 688.60492288 37.95901777 684.11058833 41.69507098 679.45916818 C44.8522651 675.55604359 48.15407701 671.82316918 51.57007098 668.14666818 C56.65109381 662.66952759 61.42552802 657.00140896 66.07007098 651.14666818 C67.16835223 649.79315256 67.16835223 649.79315256 68.28882098 648.41229318 C82.14929516 630.94809572 93.9785703 612.00644085 104.07007098 592.14666818 C104.48337665 591.33391428 104.89668231 590.52116037 105.32251239 589.68377756 C111.05057948 578.28801214 115.80652173 566.60297361 120.16772723 554.62323068 C121.00907678 552.3140722 121.86611838 550.01135293 122.72632098 547.70916818 C137.81928915 506.82705498 141.2884334 463.19335617 141.32007098 419.95916818 C141.32208011 418.32298532 141.32208011 418.32298532 141.32412982 416.65374826 C141.31927103 398.31098594 140.50100702 380.33527893 138.07007098 362.14666818 C137.95792254 361.27961252 137.84577411 360.41255686 137.73022723 359.51922678 C137.03747246 354.35029264 136.10283877 349.25714222 135.07007098 344.14666818 C134.80250995 342.74577951 134.80250995 342.74577951 134.52954364 341.31659006 C129.5665904 315.57914541 121.7817807 289.99928106 110.19262958 266.432801 C109.01951006 264.04369897 107.88216197 261.63940892 106.74585223 259.23260568 C93.00496033 230.53239013 74.25682404 204.72473927 53.32788348 180.87713693 C51.19218968 178.44259827 49.08321644 175.98933139 46.99975848 173.50994943 C38.09030987 162.91903594 28.66071679 153.08432754 18.07007098 144.14666818 C17.16386004 143.35131662 16.25764911 142.55596506 15.32397723 141.73651193 C-13.79166637 116.33150262 -48.82142793 95.89518687 -84.92992902 82.14666818 C-86.24549787 81.64296701 -86.24549787 81.64296701 -87.58764386 81.12909006 C-98.87145991 76.84214788 -110.21282532 72.907982 -121.85668683 69.71893381 C-123.93608033 69.14497027 -126.00688016 68.54534819 -128.07836652 67.94354318 C-143.45125801 63.58220591 -159.18925091 60.80470359 -174.92992902 58.14666818 C-176.01016339 57.96297678 -177.09039777 57.77928537 -178.20336652 57.59002756 C-210.00214198 52.40724013 -242.20270824 54.79055676 -273.92992902 59.14666818 C-274.90929425 59.2744465 -275.88865949 59.40222483 -276.89770246 59.53387522 C-282.27798997 60.2400765 -287.60114825 61.12439904 -292.92992902 62.14666818 C-294.32163312 62.40407785 -294.32163312 62.40407785 -295.74145246 62.66668772 C-347.01491415 72.35932197 -399.53231895 94.27417193 -440.92992902 126.14666818 C-442.16516724 127.05788708 -443.40230857 127.96652921 -444.64086652 128.87323068 C-458.50549219 139.05613774 -471.04594315 150.0842623 -483.24242902 162.20916818 C-483.75467023 162.71605173 -484.26691144 163.22293527 -484.79467511 163.74517893 C-491.64607584 170.54217729 -497.91528296 177.58422106 -503.92992902 185.14666818 C-504.79330473 186.17422876 -505.66171153 187.19762883 -506.53930402 188.21307443 C-544.90798003 232.95319117 -570.94688766 288.62271609 -582.92992902 346.14666818 C-583.16051007 347.24607736 -583.39109113 348.34548654 -583.62865949 349.47821115 C-584.33486137 352.9053241 -585.01354182 356.33660376 -585.67992902 359.77166818 C-585.87884748 360.77028879 -586.07776593 361.7689094 -586.28271222 362.79779123 C-589.79713069 381.79012475 -590.34025689 401.13213645 -590.30492902 420.39666818 C-590.30471753 421.47495889 -590.30450604 422.55324961 -590.30428815 423.66421579 C-590.25169913 450.7475601 -587.55735811 477.03127595 -581.53588605 503.47674631 C-580.9838697 505.90899885 -580.46737112 508.34599518 -579.95727277 510.78729318 C-574.07129567 537.59379723 -563.90046686 564.50943357 -551.92992902 589.14666818 C-551.46264386 590.1102424 -550.99535871 591.07381662 -550.51391339 592.06659006 C-532.32000608 629.11913473 -507.70383108 661.12909166 -478.17089581 689.78143381 C-471.80645698 696.02814614 -471.80645698 696.02814614 -469.92992902 700.14666818 C-469.92992902 701.46666818 -469.92992902 702.78666818 -469.92992902 704.14666818 C-527.01992902 704.14666818 -584.10992902 704.14666818 -642.92992902 704.14666818 C-644.0875455 615.01019883 -644.0875455 615.01019883 -644.1904099 576.94492601 C-644.21177282 569.39348109 -644.23871693 561.84206036 -644.26600385 554.29063486 C-644.30472312 543.43674412 -644.34116213 532.5828482 -644.37576032 521.72894358 C-644.46056125 495.15863968 -644.55661304 468.58837438 -644.65248944 442.01810851 C-644.67082932 436.93160972 -644.6889698 431.84511023 -644.70704198 426.75861048 C-644.87967123 378.23581943 -645.11673782 329.71355731 -645.39139104 281.19123243 C-645.58819554 246.37937491 -645.76282898 211.56740018 -645.91827226 176.75533365 C-645.92605325 175.01402594 -645.93386519 173.27271836 -645.94170785 171.53141092 C-646.03375496 151.09079307 -646.11551737 130.65022764 -646.15293336 110.20942758 C-646.15564669 108.73408068 -646.15836872 107.2587338 -646.16109967 105.78338693 C-646.16309272 104.7020166 -646.16309272 104.7020166 -646.16512603 103.59880041 C-646.17498376 98.64987842 -646.19244743 93.70102225 -646.21365094 88.75213693 C-646.2411112 82.32523539 -646.25326563 75.89842848 -646.25406575 69.47146677 C-646.25668035 67.1689037 -646.26432254 64.86633963 -646.27752995 62.56381296 C-646.29451394 59.45193483 -646.29283578 56.3406046 -646.28637433 53.22869943 C-646.29559195 52.34395944 -646.30480956 51.45921945 -646.3143065 50.54766916 C-646.23044164 37.97827584 -641.29069258 28.75232271 -632.86742902 19.64666818 C-623.67741744 10.87343718 -611.14817806 0.99061658 -598.25261807 1.00800299 C-597.44609118 1.00516083 -596.63956428 1.00231868 -595.80859717 0.9993904 C-593.07378286 0.99099242 -590.33901065 0.98977096 -587.60418439 0.9884498 C-585.63157698 0.98388477 -583.65897054 0.97888391 -581.68636525 0.97348301 C-576.22869833 0.95983048 -570.77103769 0.95245591 -565.3133581 0.94605483 C-559.41165275 0.93806479 -553.50996031 0.92437455 -547.60826421 0.91139864 C-537.30001494 0.8895478 -526.99176393 0.87142637 -516.68350339 0.8558452 C-505.71400327 0.83925662 -494.74450993 0.82056639 -483.77501798 0.79923128 C-483.08708174 0.79789538 -482.39914551 0.79655948 -481.69036272 0.7951831 C-478.89235949 0.78974502 -476.09435629 0.78429556 -473.29635312 0.77883059 C-439.73126632 0.71331543 -406.16616503 0.65838176 -372.60105556 0.60597872 C-361.81386716 0.58913371 -351.02667929 0.57197709 -340.2394917 0.55461954 C-285.61743833 0.4667752 -230.99538236 0.38084317 -176.37331109 0.30483887 C-164.23660963 0.28793919 -152.09990834 0.27092149 -139.96320715 0.25383503 C-138.46599461 0.25172765 -136.96878206 0.24962188 -135.47156951 0.24751774 C-90.31433032 0.1840423 -45.15717143 0.10203087 0 0 Z " fill="#03A7F1" transform="translate(696.9299290180206,51.853331815451384)"/>
<path d="M0 0 C39.27 0 78.54 0 119 0 C120.76039544 11.7359696 122.47059143 23.33934958 123.70651245 35.12002563 C124.11507661 38.99801147 124.54198159 42.87398164 124.96875 46.75 C125.05470932 47.53115677 125.14066864 48.31231354 125.22923279 49.11714172 C127.41262125 68.83888703 130.08617585 88.46997232 133.42553711 108.02856445 C133.73309937 109.85713989 133.73309937 109.85713989 134.046875 111.72265625 C134.32289551 113.32765991 134.32289551 113.32765991 134.60449219 114.96508789 C135.01161703 118.08914277 135.33050049 120.86051987 135 124 C133.453125 125.66113281 133.453125 125.66113281 131.25 126.953125 C130.425 127.44876953 129.6 127.94441406 128.75 128.45507812 C127.38875 129.21981445 127.38875 129.21981445 126 130 C125.071875 130.53560547 124.14375 131.07121094 123.1875 131.62304688 C120.13968038 133.35973664 117.07297245 135.05825003 114 136.75 C106.46349313 140.92919978 98.96401641 145.14830675 91.5625 149.5625 C85.82634432 152.97734883 80.03780097 156.14186936 74 159 C73.36320312 159.36609375 72.72640625 159.7321875 72.0703125 160.109375 C66.99370928 162.29327223 60.72631978 161.20834894 55.375 160.5625 C40.06477921 153.47443482 30.69481859 132.61663714 24 118 C23.50242188 116.94296875 23.00484375 115.8859375 22.4921875 114.796875 C5.65387279 77.43973962 0 41.25905154 0 0 Z " fill="#03A4ED" transform="translate(151,497)"/>
<path d="M0 0 C1.16144531 0.01804687 2.32289063 0.03609375 3.51953125 0.0546875 C4.84017578 0.08949219 4.84017578 0.08949219 6.1875 0.125 C6.776521 1.27798584 7.36554199 2.43097168 7.97241211 3.61889648 C10.2021245 7.98265192 12.43348122 12.34556491 14.6652832 16.70825195 C15.62274857 18.58042583 16.57979433 20.45281438 17.53637695 22.32543945 C18.9280373 25.04958718 20.32098615 27.77306966 21.71484375 30.49609375 C22.17573395 31.39658447 22.63662415 32.2970752 23.11148071 33.22485352 C26.03821777 38.92782189 29.02653398 44.59437193 32.05078125 50.24609375 C35.45815819 56.6344791 38.59895604 63.08520181 41.4375 69.75 C41.85733154 70.730896 42.27716309 71.71179199 42.7097168 72.72241211 C50.55694269 91.28497077 55.35872135 110.33479937 58 130.3125 C58.12391113 131.21218506 58.24782227 132.11187012 58.37548828 133.03881836 C59.51736127 142.52443628 59.1875 151.36459201 59.1875 161.125 C19.9175 161.125 -19.3525 161.125 -59.8125 161.125 C-75.6861317 76.99475197 -75.6861317 76.99475197 -75.8125 61.125 C-75.82087891 60.14257324 -75.82925781 59.16014648 -75.83789062 58.14794922 C-75.88340463 51.13982705 -75.86955408 44.13299656 -75.8125 37.125 C-75.20591553 36.79927002 -74.59933105 36.47354004 -73.97436523 36.13793945 C-62.54476803 29.99277573 -51.15340379 23.79414741 -39.875 17.375 C-33.02236837 13.47889789 -26.15050732 9.63337349 -19.1875 5.9375 C-18.50695557 5.57495117 -17.82641113 5.21240234 -17.12524414 4.83886719 C-11.10013661 1.66994187 -6.88698498 -0.13913101 0 0 Z " fill="#03A4ED" transform="translate(739.8125,291.875)"/>
<path d="M0 0 C3.60231082 0.6031254 6.60443801 1.5818418 9.91015625 3.125 C11.36844849 3.80139526 11.36844849 3.80139526 12.85620117 4.49145508 C13.91427979 4.9892749 14.9723584 5.48709473 16.0625 6 C17.17923096 6.52037842 18.29596191 7.04075684 19.4465332 7.5769043 C23.3013518 9.37689774 27.15137305 11.18681879 31 13 C31.73061646 13.3440387 32.46123291 13.68807739 33.21398926 14.0425415 C40.21136296 17.33804868 47.20697156 20.63728042 54.19750977 23.94726562 C63.45092939 28.32870909 72.717153 32.68123323 82 37 C81.5557155 42.79175691 80.78636408 48.32506915 79.4387207 53.97338867 C76.22746445 67.5708367 74.52064406 81.33800684 72.8125 95.1875 C72.6863028 96.20426819 72.56010559 97.22103638 72.43008423 98.26861572 C71.11184215 108.95281672 69.89214111 119.64359205 68.859375 130.359375 C68.7794783 131.18483322 68.6995816 132.01029144 68.61726379 132.86076355 C68.01391721 139.33353942 67.6180998 145.81101594 67.34220886 152.30574036 C67.18601665 155.72552894 66.83604489 158.65582045 66 162 C26.73 162 -12.54 162 -53 162 C-53 141.7049428 -51.68085444 122.93692528 -48 103 C-47.81953125 102.01950684 -47.6390625 101.03901367 -47.453125 100.02880859 C-41.19160654 66.91543908 -29.01893151 30.92968201 -5.12890625 6.234375 C-3.23406264 4.24565841 -1.59295016 2.23320344 0 0 Z " fill="#03A4ED" transform="translate(204,292)"/>
<path d="M0 0 C39.27 0 78.54 0 119 0 C117.76816355 13.55020096 116.52741251 26.36500584 113.75 39.5625 C113.51890533 40.68529861 113.51890533 40.68529861 113.28314209 41.83078003 C110.76095941 54.07274763 107.86522497 66.10511068 104 78 C103.69400879 78.96534668 103.38801758 79.93069336 103.07275391 80.92529297 C94.61967914 107.39270745 83.25708954 132.16063972 69 156 C68.38382813 157.03125 67.76765625 158.0625 67.1328125 159.125 C66.75898437 159.74375 66.38515625 160.3625 66 161 C59.24948892 160.51782064 53.74200077 157.95965954 47.625 155.1875 C46.52937744 154.69757568 45.43375488 154.20765137 44.30493164 153.70288086 C33.50664929 148.84168711 22.81808977 143.75883719 12.18310547 138.55126953 C8.83976986 136.92191269 5.48480367 135.3181485 2.12890625 133.71484375 C-0.08118636 132.64417239 -2.29083671 131.57258755 -4.5 130.5 C-6.05956421 129.76148804 -6.05956421 129.76148804 -7.65063477 129.00805664 C-8.60123779 128.54133545 -9.55184082 128.07461426 -10.53125 127.59375 C-11.37236328 127.18833984 -12.21347656 126.78292969 -13.08007812 126.36523438 C-15 125 -15 125 -15.63563538 123.17204285 C-16.01116497 120.93344361 -15.98378907 119.13554829 -15.74975586 116.88208008 C-15.62818871 115.66727715 -15.62818871 115.66727715 -15.50416565 114.42793274 C-15.40868942 113.55066025 -15.3132132 112.67338776 -15.21484375 111.76953125 C-15.11876328 110.8429924 -15.0226828 109.91645355 -14.9236908 108.96183777 C-14.60357045 105.91107366 -14.27140434 102.86178436 -13.9375 99.8125 C-13.76918671 98.24592651 -13.76918671 98.24592651 -13.59747314 96.64770508 C-11.53913898 77.55504449 -8.89340843 58.58040686 -5.98988342 39.60061646 C-4.84422184 32.07232738 -3.84861431 24.52698315 -2.93701172 16.96679688 C-2.22533288 11.20301896 -1.14798279 5.73991395 0 0 Z " fill="#03A4ED" transform="translate(680,497)"/>
<path d="M0 0 C0.91414673 0.23678467 1.82829346 0.47356934 2.7701416 0.7175293 C4.99869823 1.2959778 7.22480705 1.88241214 9.44921875 2.4765625 C11.50976562 10.71875 13.5703125 18.9609375 15.63085938 27.203125 C15.85297089 28.09116821 16.0750824 28.97921143 16.30392456 29.89416504 C16.7468497 31.66667885 17.18900981 33.43938401 17.63040161 35.21228027 C18.52715194 38.81122516 19.43086176 42.40662925 20.37255859 45.99414062 C26.11747615 67.96149057 24.44921875 86.64199603 24.44921875 110.4765625 C-25.38078125 110.4765625 -75.21078125 110.4765625 -126.55078125 110.4765625 C-126.57140625 94.4921875 -126.59203125 78.5078125 -126.61328125 62.0390625 C-126.62238525 56.98408447 -126.63148926 51.92910645 -126.64086914 46.72094727 C-126.64538574 40.5682373 -126.64538574 40.5682373 -126.64622498 37.6917572 C-126.64776482 35.67429891 -126.65129056 33.65684156 -126.65635681 31.63938904 C-126.66363197 28.59103791 -126.66468875 25.54274322 -126.66430664 22.49438477 C-126.6697038 21.13668519 -126.6697038 21.13668519 -126.67521 19.75155735 C-126.66480759 13.59058884 -126.66480759 13.59058884 -125.55078125 12.4765625 C-123.71595788 12.15259172 -121.87083804 11.88669879 -120.0234375 11.64453125 C-118.85296875 11.48807129 -117.6825 11.33161133 -116.4765625 11.17041016 C-115.20167969 11.00331543 -113.92679687 10.8362207 -112.61328125 10.6640625 C-109.92666562 10.30384634 -107.24063021 9.93941536 -104.5546875 9.57421875 C-103.87391144 9.48186951 -103.19313538 9.38952026 -102.49172974 9.29437256 C-83.60895033 6.72128239 -64.80643826 3.56839092 -46 0.49462891 C-45.22726242 0.36852737 -44.45452484 0.24242584 -43.65837097 0.11250305 C-42.21256062 -0.1235422 -40.76684379 -0.36016139 -39.32124329 -0.5974884 C-25.56644441 -2.842557 -13.51510399 -3.61400822 0 0 Z " fill="#04A3EB" transform="translate(617.55078125,348.5234375)"/>
<path d="M0 0 C46.2 0 92.4 0 140 0 C140 28.71 140 57.42 140 87 C104 93 104 93 92.9609375 94.828125 C89.70677884 95.36713759 89.70677884 95.36713759 86.45263672 95.90625 C85.021083 96.14310401 83.58943674 96.3793991 82.15771484 96.61523438 C71.24175832 98.4056903 71.24175832 98.4056903 60.39306641 100.56152344 C54.14840169 101.70572032 48.11153432 102.14417043 41.78125 102.09765625 C41.03790405 102.0962413 40.29455811 102.09482635 39.52868652 102.09336853 C37.18574771 102.08783109 34.84290927 102.07529091 32.5 102.0625 C30.89843889 102.05747689 29.29687627 102.05291542 27.6953125 102.04882812 C23.79683712 102.03788227 19.8984355 102.02066196 16 102 C12.58477279 93.67486178 9.25869405 85.40268802 6.75 76.75 C6.49895508 75.89067871 6.24791016 75.03135742 5.98925781 74.14599609 C4.26119498 68.12516951 2.74415588 62.23032635 2 56 C1.86899902 54.98800537 1.86899902 54.98800537 1.73535156 53.95556641 C-0.53412305 35.87236214 0 18.38374532 0 0 Z " fill="#04A0E7" transform="translate(313,497)"/>
<path d="M0 0 C8.42535091 0.7012475 16.80608685 1.66374727 25.1953125 2.70703125 C26.55459225 2.87541134 27.91387578 3.04376085 29.27316284 3.21208191 C32.11570814 3.56460722 34.95805448 3.9186916 37.80029297 4.27368164 C40.65802126 4.63037419 43.51607901 4.98420272 46.37451172 5.33520508 C61.62387442 7.20826497 76.83971059 9.15480159 91.99319458 11.71382141 C98.81905458 12.86066565 105.5964837 13.63948883 112.5 14.1171875 C117.70269584 15.42947462 121.57430475 16.68233635 125 21 C126.31176296 27.16396466 126.04922957 33.2502449 125.87890625 39.5234375 C125.86566339 41.14556097 125.8564881 42.7677229 125.85144043 44.38989258 C125.80437213 50.38551725 125.67871855 56.38031703 125.5625 62.375 C125.376875 75.78125 125.19125 89.1875 125 103 C78.47 103 31.94 103 -16 103 C-16 67.92540331 -13.68944735 32.64872619 0 0 Z " fill="#04A1E9" transform="translate(329,351)"/>
<path d="M0 0 C46.2 0 92.4 0 140 0 C139.33158961 12.03138694 138.53588152 23.91889033 137.1875 35.875 C137.05736008 37.04473358 137.05736008 37.04473358 136.92459106 38.23809814 C135.64704645 49.62387822 134.04089756 60.83810937 131.45703125 72.01123047 C130.7372383 75.14340642 130.09472926 78.29169952 129.4375 81.4375 C128.96190032 83.62577829 128.48274684 85.8132873 128 88 C127.73058594 89.22460938 127.46117187 90.44921875 127.18359375 91.7109375 C126.91675781 92.89945313 126.64992188 94.08796875 126.375 95.3125 C126.13523437 96.38113281 125.89546875 97.44976563 125.6484375 98.55078125 C125 101 125 101 124 102 C121.07107164 101.99980491 118.18522431 101.9200088 115.26171875 101.77734375 C114.3349382 101.73214096 113.40815765 101.68693817 112.45329285 101.6403656 C100.78186289 100.98228463 89.20420848 99.51327645 77.61206055 98.04370117 C73.78085698 97.55849252 69.94823937 97.08597995 66.11523438 96.61523438 C63.64574211 96.30802409 61.17633763 96.00010707 58.70703125 95.69140625 C57.57771683 95.55174942 56.4484024 95.41209259 55.28486633 95.26820374 C49.54473609 94.53631497 43.89903923 93.63633543 38.23551941 92.45057678 C35.06449009 91.81144469 31.87919961 91.37938536 28.671875 90.96484375 C26.73054687 90.71057617 26.73054687 90.71057617 24.75 90.45117188 C23.41668958 90.27976959 22.08335604 90.10854701 20.75 89.9375 C18.09875643 89.59397385 15.447805 89.24829012 12.796875 88.90234375 C11.63510742 88.75273193 10.47333984 88.60312012 9.27636719 88.44897461 C6.17572743 88.02408068 3.08703506 87.51450584 0 87 C0 58.29 0 29.58 0 0 Z " fill="#04A2EA" transform="translate(497,497)"/>
<path d="M0 0 C0 53.46 0 106.92 0 162 C-50.60127028 157.39988452 -50.60127028 157.39988452 -74.25 154.4375 C-75.10392334 154.3351001 -75.95784668 154.2327002 -76.83764648 154.12719727 C-86.18267076 152.90092711 -94.72062492 150.5302241 -103 146 C-102.49888647 139.31180474 -101.15122604 133.78220946 -98.6875 127.5625 C-98.33921143 126.66926025 -97.99092285 125.77602051 -97.63208008 124.85571289 C-83.52417098 89.36536144 -64.86948338 55.13911149 -40 26 C-39.28199219 25.14664063 -38.56398438 24.29328125 -37.82421875 23.4140625 C-28.22500298 12.33148657 -15.42940568 0 0 0 Z " fill="#049FE6" transform="translate(454,162)"/>
<path d="M0 0 C0 42.9 0 85.8 0 130 C-41.2716763 130 -41.2716763 130 -48 124 C-52.35709874 119.28818288 -56.17300045 114.14253065 -60 109 C-61.16015625 107.47246094 -61.16015625 107.47246094 -62.34375 105.9140625 C-63.79459037 103.99537868 -65.23585827 102.06942281 -66.66796875 100.13671875 C-68.36402497 97.8554237 -70.07326338 95.58920435 -71.80078125 93.33203125 C-82.42770348 79.4060776 -93.08537763 65.19477346 -100 49 C-100.53753906 47.74509766 -100.53753906 47.74509766 -101.0859375 46.46484375 C-104.40390526 36.86100128 -103.25851867 26.01859294 -103 16 C-101.66207397 15.66005005 -101.66207397 15.66005005 -100.29711914 15.31323242 C-96.9473146 14.46040075 -93.59830019 13.60458694 -90.24975586 12.74682617 C-88.80799826 12.37813919 -87.36594688 12.01059888 -85.92358398 11.64428711 C-76.45086248 9.28041875 -76.45086248 9.28041875 -67.13671875 6.37109375 C-62.4273946 4.73207248 -57.64568783 3.78430309 -52.75 2.875 C-51.89792969 2.70613281 -51.04585938 2.53726563 -50.16796875 2.36328125 C-33.50168474 -0.7911421 -16.96833773 0 0 0 Z " fill="#04A0E7" transform="translate(454,626)"/>
<path d="M0 0 C9.01235052 6.75926289 9.01235052 6.75926289 11.76171875 9.34765625 C12.39529297 9.94231689 13.02886719 10.53697754 13.68164062 11.1496582 C14.34357422 11.780896 15.00550781 12.41213379 15.6875 13.0625 C16.40228516 13.74078857 17.11707031 14.41907715 17.85351562 15.11791992 C23.96586251 20.9511851 29.99961492 26.86430608 36 32.8125 C36.85940186 33.6588501 37.71880371 34.5052002 38.60424805 35.37719727 C44.50424433 41.26919356 49.7944412 47.49272591 55 54 C55.87521516 55.03918886 56.75532822 56.07431714 57.64453125 57.1015625 C70.06031518 71.55308757 80.38765467 87.58424077 90 104 C90.57443848 104.97936523 91.14887695 105.95873047 91.74072266 106.96777344 C104.33068474 128.75660416 104.33068474 128.75660416 102 140 C91.04406624 143.57487282 79.91825992 146.44183436 68.75732422 149.29492188 C66.28632407 149.92678379 63.81686349 150.56430357 61.34765625 151.203125 C59.98190703 151.552616 58.61603148 151.90161387 57.25 152.25 C56.10015625 152.54390625 54.9503125 152.8378125 53.765625 153.140625 C34.42586192 157.55426388 22.92579305 156 0 156 C0 104.52 0 53.04 0 0 Z " fill="#03A4EE" transform="translate(497,168)"/>
<path d="M0 0 C26.49678417 1.15203409 26.49678417 1.15203409 35.015625 2.41796875 C35.99894806 2.55579269 36.98227112 2.69361664 37.99539185 2.83561707 C41.08229159 3.27333232 44.16614343 3.72887704 47.25 4.1875 C48.31019348 4.34140198 49.37038696 4.49530396 50.46270752 4.65386963 C86.82755321 9.94251774 86.82755321 9.94251774 102 15 C100.2433608 41.31373818 86.33888032 62.45384448 72.07470703 83.8828125 C69.93723367 87.0943046 67.80988912 90.31234825 65.68359375 93.53125 C64.26882253 95.66705983 62.85347383 97.80248727 61.4375 99.9375 C60.78330078 100.92548584 60.12910156 101.91347168 59.45507812 102.93139648 C45.45006208 123.94793511 45.45006208 123.94793511 35 128 C23.4187006 129.44766242 11.6714276 129 0 129 C0 86.43 0 43.86 0 0 Z " fill="#03A4ED" transform="translate(497,627)"/>
<path d="M0 0 C0.7724084 15.70563755 -5.59108598 25.10838475 -15.48071289 36.58300781 C-37.81043343 62.77269172 -53.71447717 93.90264843 -70 124 C-93.97899559 125.34148227 -120.59331163 110.93779224 -140 98 C-137.3376187 78.71572462 -116.10295123 60.65227556 -101.57421875 49.5625 C-78.17348957 32.3076607 -30.33213716 0 0 0 Z " fill="#04A2E9" transform="translate(378,162)"/>
<path d="M0 0 C49.57977634 1.10849093 96.68987933 35.88028329 131.78125 68.02734375 C134.02225132 70.08576189 134.02225132 70.08576189 136.75 71.9921875 C139 74 139 74 139.59375 76.04296875 C139.34253111 81.78960085 138.12325747 86.66263717 136 92 C135.75459473 92.80115234 135.50918945 93.60230469 135.25634766 94.42773438 C130.77206399 103.60892612 112.26342322 108.42493852 103.25 112.25 C101.5895557 112.9628711 99.92939758 113.67640916 98.26953125 114.390625 C96.6643183 115.07872204 95.05885806 115.76624256 93.453125 116.453125 C92.7227301 116.76566223 91.99233521 117.07819946 91.23980713 117.40020752 C78.03739882 123 78.03739882 123 74 123 C71.99817856 119.43852081 69.9986887 115.87573818 68 112.3125 C67.37496582 111.1985083 66.74993164 110.0845166 66.10595703 108.93676758 C62.6863585 102.83473813 59.28898621 96.72139002 55.9296875 90.5859375 C48.23966131 76.54483043 40.45166477 62.60248791 32 49 C31.44602539 48.10732422 30.89205078 47.21464844 30.32128906 46.29492188 C22.13615653 33.15671138 13.76386666 20.10298034 4.32421875 7.81933594 C3.77378906 7.10293945 3.22335937 6.38654297 2.65625 5.6484375 C2.14900391 4.99794434 1.64175781 4.34745117 1.11914062 3.67724609 C0 2 0 2 0 0 Z " fill="#04A3EB" transform="translate(568,168)"/>
<path d="M0 0 C8.11056465 14.79484397 16.1174272 29.64364987 24.06994629 44.52392578 C26.39953129 48.88142291 28.73743698 53.23439633 31.078125 57.5859375 C32.08316714 59.45604654 33.08804929 61.32624145 34.09286499 63.19647217 C35.02797922 64.93579111 35.96476343 66.6742119 36.90161133 68.41259766 C48 89.08090054 48 89.08090054 48 92 C39.89789631 94.04898309 32.07985721 94.33421496 23.75 94.3125 C21.91888672 94.33666992 21.91888672 94.33666992 20.05078125 94.36132812 C-3.47284176 94.37377449 -19.50562946 85.60358531 -37 71 C-37.67192383 70.44376953 -38.34384766 69.88753906 -39.03613281 69.31445312 C-43.08998547 65.94814367 -47.0690746 62.50874964 -51 59 C-51.79019531 58.30648437 -52.58039063 57.61296875 -53.39453125 56.8984375 C-61.13493715 49.70563202 -67.3476259 39.27794964 -70 29 C-68.67405567 25.02216701 -67.21646655 24.78904289 -63.5234375 22.92578125 C-62.38463135 22.34425293 -61.2458252 21.76272461 -60.07250977 21.16357422 C-58.84014526 20.5462724 -57.6076393 19.92925291 -56.375 19.3125 C-54.5071887 18.3661016 -52.64087693 17.41679042 -50.77461243 16.46734619 C-49.54449899 15.84191882 -48.31377717 15.21768656 -47.08244324 14.59466553 C-43.1278111 12.59044525 -39.22426458 10.51324392 -35.34814453 8.36206055 C-23.26051718 1.68031631 -13.64628795 -0.67112892 0 0 Z " fill="#04A3EB" transform="translate(308,664)"/>
<path d="M0 0 C24.9540346 1.41518422 46.83759685 17.38043806 66.41015625 31.4140625 C64.92601895 34.90060726 62.94801573 37.05597322 60.22265625 39.6640625 C57.47192479 42.30399392 54.88438681 44.99823277 52.41015625 47.89453125 C47.6243317 53.41251793 42.47681263 58.57006318 37.32299805 63.74145508 C35.60451373 65.46966621 33.89702752 67.20828305 32.18945312 68.94726562 C26.02059944 75.17521756 19.89653411 80.75968312 12.41015625 85.4140625 C11.62761475 85.90245605 10.84507324 86.39084961 10.03881836 86.89404297 C-5.74642633 96.31196278 -31.05082087 95.29572752 -48.58984375 92.4140625 C-49.57984375 92.0840625 -50.56984375 91.7540625 -51.58984375 91.4140625 C-43.02820449 63.65281903 -26.96000499 38.04798547 -11.82226562 13.46289062 C-10.68907323 11.57902561 -9.62092042 9.67505378 -8.57421875 7.7421875 C-7.71570313 6.21851563 -7.71570313 6.21851563 -6.83984375 4.6640625 C-6.16695312 3.40335938 -6.16695312 3.40335938 -5.48046875 2.1171875 C-3.58984375 0.4140625 -3.58984375 0.4140625 0 0 Z " fill="#04A2EA" transform="translate(645.58984375,664.5859375)"/>
<path d="M0 0 C46.21052632 0 46.21052632 0 55.4375 6.375 C60.32993015 11.38675771 61.508422 16.13990799 61.4375 23 C61.4674707 24.02867187 61.4674707 24.02867187 61.49804688 25.078125 C61.49237932 31.01771783 59.4241553 34.38984813 55.47265625 38.64453125 C52.37605971 41.20930235 50.02918718 42.64448348 46 43 C46.721875 43.66 47.44375 44.32 48.1875 45 C55.5238674 52.48001655 58.2162307 61.78809232 61.3125 71.5 C61.77049812 72.90917509 62.22947494 74.31803249 62.68945312 75.7265625 C63.80613826 79.14703949 64.90245393 82.57309887 66 86 C60.06 86 54.12 86 48 86 C47.33613281 83.96457031 46.67226563 81.92914062 45.98828125 79.83203125 C45.32983915 77.84830675 44.66627219 75.86636641 44.00219727 73.88452148 C43.54597099 72.51390471 43.09503272 71.14151531 42.6496582 69.76733398 C42.00578434 67.78391472 41.34269677 65.80780462 40.67578125 63.83203125 C40.28302002 62.64327393 39.89025879 61.4545166 39.4855957 60.22973633 C37.58475279 56.09723823 35.11681974 53.05840987 31 51 C24.07 50.505 24.07 50.505 17 50 C17 61.88 17 73.76 17 86 C11.39 86 5.78 86 0 86 C0 57.62 0 29.24 0 0 Z " fill="#FAFAFA" transform="translate(789,881)"/>
<path d="M0 0 C46.21052632 0 46.21052632 0 55.4375 6.375 C60.32993015 11.38675771 61.508422 16.13990799 61.4375 23 C61.4674707 24.02867187 61.4674707 24.02867187 61.49804688 25.078125 C61.49237932 31.01771783 59.4241553 34.38984813 55.47265625 38.64453125 C52.37605971 41.20930235 50.02918718 42.64448348 46 43 C46.721875 43.66 47.44375 44.32 48.1875 45 C55.5238674 52.48001655 58.2162307 61.78809232 61.3125 71.5 C61.77049812 72.90917509 62.22947494 74.31803249 62.68945312 75.7265625 C63.80613826 79.14703949 64.90245393 82.57309887 66 86 C60.06 86 54.12 86 48 86 C47.33613281 83.96457031 46.67226563 81.92914062 45.98828125 79.83203125 C45.32983915 77.84830675 44.66627219 75.86636641 44.00219727 73.88452148 C43.54597099 72.51390471 43.09503272 71.14151531 42.6496582 69.76733398 C42.00578434 67.78391472 41.34269677 65.80780462 40.67578125 63.83203125 C40.28302002 62.64327393 39.89025879 61.4545166 39.4855957 60.22973633 C37.58475279 56.09723823 35.11681974 53.05840987 31 51 C24.07 50.505 24.07 50.505 17 50 C17 61.88 17 73.76 17 86 C11.39 86 5.78 86 0 86 C0 57.62 0 29.24 0 0 Z " fill="#FAFAFA" transform="translate(488,881)"/>
<path d="M0 0 C46.71853147 0 46.71853147 0 54.4375 7.25 C55.24058594 7.97703125 56.04367187 8.7040625 56.87109375 9.453125 C62.33546327 15.9903157 62.68852792 22.85147512 62.4140625 31.0390625 C61.6989973 37.87940315 59.22617397 43.27513669 54.125 47.9375 C47.59949132 52.24433573 41.45317027 54.143001 33.69921875 54.09765625 C32.81838623 54.09515869 31.93755371 54.09266113 31.0300293 54.09008789 C29.92699463 54.08098389 28.82395996 54.07187988 27.6875 54.0625 C22.3971875 54.0315625 22.3971875 54.0315625 17 54 C17 64.56 17 75.12 17 86 C11.39 86 5.78 86 0 86 C0 57.62 0 29.24 0 0 Z " fill="#FBFBFB" transform="translate(410,881)"/>
<path d="M0 0 C19.14 0 38.28 0 58 0 C58 4.95 58 9.9 58 15 C44.8 15 31.6 15 18 15 C18 21.27 18 27.54 18 34 C29.55 34 41.1 34 53 34 C53 38.62 53 43.24 53 48 C41.12 48 29.24 48 17 48 C17 55.92 17 63.84 17 72 C30.53 72 44.06 72 58 72 C58 76.62 58 81.24 58 86 C38.86 86 19.72 86 0 86 C0 57.62 0 29.24 0 0 Z " fill="#F7F7F7" transform="translate(568,881)"/>
<path d="M0 0 C19.14 0 38.28 0 58 0 C58 4.95 58 9.9 58 15 C44.8 15 31.6 15 18 15 C18 21.27 18 27.54 18 34 C29.55 34 41.1 34 53 34 C53 38.62 53 43.24 53 48 C41.12 48 29.24 48 17 48 C17 55.92 17 63.84 17 72 C30.53 72 44.06 72 58 72 C58 76.62 58 81.24 58 86 C38.86 86 19.72 86 0 86 C0 57.62 0 29.24 0 0 Z " fill="#F7F7F7" transform="translate(151,881)"/>
<path d="M0 0 C19.14 0 38.28 0 58 0 C58 4.95 58 9.9 58 15 C44.47 15 30.94 15 17 15 C17 21.6 17 28.2 17 35 C28.55 35 40.1 35 52 35 C52 39.29 52 43.58 52 48 C40.45 48 28.9 48 17 48 C17 55.92 17 63.84 17 72 C30.53 72 44.06 72 58 72 C58 76.62 58 81.24 58 86 C38.86 86 19.72 86 0 86 C0 57.62 0 29.24 0 0 Z " fill="#F8F8F8" transform="translate(950,881)"/>
<path d="M0 0 C19.14 0 38.28 0 58 0 C58 4.95 58 9.9 58 15 C44.47 15 30.94 15 17 15 C17 21.6 17 28.2 17 35 C28.55 35 40.1 35 52 35 C52 39.29 52 43.58 52 48 C40.45 48 28.9 48 17 48 C17 55.92 17 63.84 17 72 C30.53 72 44.06 72 58 72 C58 76.62 58 81.24 58 86 C38.86 86 19.72 86 0 86 C0 57.62 0 29.24 0 0 Z " fill="#F8F8F8" transform="translate(715,881)"/>
<path d="M0 0 C1.36125 1.11375 1.36125 1.11375 2.75 2.25 C2.40986985 7.69208234 -0.95296528 11.18668198 -4.25 15.25 C-7.12578771 14.64190392 -9.35697632 13.75859569 -11.875 12.25 C-16.57561883 9.4644481 -19.67551116 9.00945444 -25.0625 8.9375 C-25.77470703 8.90849609 -26.48691406 8.87949219 -27.22070312 8.84960938 C-30.87831054 8.80562335 -33.05841064 9.13595272 -36.22265625 11.01953125 C-38.34226193 13.3515059 -38.93531343 14.16195227 -38.875 17.25 C-38.89433594 18.24 -38.89433594 18.24 -38.9140625 19.25 C-37.84633759 22.46573621 -36.0951987 23.47314188 -33.25 25.25 C-30.43811661 26.14908169 -27.59015191 26.66698674 -24.6875 27.1875 C-14.59257871 29.21568469 -3.0461639 31.60642482 3.33203125 40.44140625 C7.59269568 48.65163898 7.87228971 55.6571258 5.5625 64.5625 C3.01476099 71.98264311 -1.32619996 75.65995804 -8.06640625 79.26953125 C-17.38347452 83.45304491 -32.67297512 82.8321441 -42.078125 79.296875 C-55.04716129 73.0456129 -55.04716129 73.0456129 -58.25 67.25 C-57.84505847 63.62844743 -56.06941412 61.33329419 -53.875 58.5 C-53.26914062 57.70078125 -52.66328125 56.9015625 -52.0390625 56.078125 C-51.44867187 55.47484375 -50.85828125 54.8715625 -50.25 54.25 C-49.26 54.25 -48.27 54.25 -47.25 54.25 C-46.54875 55.136875 -45.8475 56.02375 -45.125 56.9375 C-40.86884143 62.20762576 -36.2934585 64.91324989 -29.5078125 65.6640625 C-23.34420915 65.88220321 -18.41506024 65.99945114 -13.25 62.25 C-11.59233202 60.59233202 -12.03950497 58.64653595 -12 56.375 C-11.96132813 55.04855469 -11.96132813 55.04855469 -11.921875 53.6953125 C-12.06138543 51.24709096 -12.06138543 51.24709096 -13.42578125 49.5546875 C-15.75243991 47.89065326 -17.96105979 47.11898493 -20.6875 46.25 C-21.75355469 45.9096875 -22.81960938 45.569375 -23.91796875 45.21875 C-27.0961496 44.29473025 -30.27768261 43.50337535 -33.5 42.75 C-42.79598354 40.45933391 -48.63079319 37.18849161 -54.25 29.25 C-57.11857442 23.76229241 -56.98923298 17.29614761 -56.25 11.25 C-53.68884195 3.42357749 -48.38256095 -0.93880479 -41.3671875 -4.78125 C-28.67366496 -10.15733013 -11.05988273 -7.71773129 0 0 Z " fill="#FAFAFA" transform="translate(693.25,886.75)"/>
<path d="M0 0 C0.65355469 0.32484375 1.30710938 0.6496875 1.98046875 0.984375 C5.04707895 2.62833099 7.73615739 4.33665576 10 7 C8.44298069 11.67105792 5.91552627 15.08705685 3 19 C-0.5726567 18.24786175 -3.14292769 16.83891743 -6.21875 14.9375 C-10.33696703 12.77001735 -14.3378657 12.83704447 -18.9375 12.8125 C-20.14277344 12.79832031 -21.34804687 12.78414062 -22.58984375 12.76953125 C-25.86019062 12.99055126 -28.06816515 13.59249674 -31 15 C-31.10867302 16.58179615 -31.18589827 18.16577153 -31.25 19.75 C-31.31960937 21.07257812 -31.31960937 21.07257812 -31.390625 22.421875 C-31.1691223 25.05768458 -31.1691223 25.05768458 -29.6171875 27.171875 C-25.6888783 29.91582829 -21.52318733 30.55867715 -16.875 31.5 C4.26718823 35.89200185 4.26718823 35.89200185 11 45 C14.67604884 51.07860933 14.92699856 58.09207805 14 65 C11.78840971 72.1979073 7.49090471 78.10339001 1 82 C-5.06434297 84.61910849 -10.67892335 85.52372926 -17.25 85.4375 C-18.07483887 85.42920166 -18.89967773 85.42090332 -19.74951172 85.41235352 C-30.97795615 85.10524889 -41.02762608 82.30024212 -49 74 C-49.99 72.35 -50.98 70.7 -52 69 C-47.545 63.555 -47.545 63.555 -43 58 C-38.9328768 60.0335616 -36.36866163 62.2743374 -33.09765625 65.34375 C-28.47557056 68.99321803 -24.2941979 69.29511741 -18.5 69.3125 C-16.56640625 69.33763672 -16.56640625 69.33763672 -14.59375 69.36328125 C-10.84019354 68.98384565 -8.96674816 68.27487592 -6 66 C-4.85636888 63.71273777 -4.73498068 62.17147573 -4.625 59.625 C-4.57601562 58.85414063 -4.52703125 58.08328125 -4.4765625 57.2890625 C-4.84761084 54.84291625 -4.84761084 54.84291625 -6.82421875 52.890625 C-12.17459355 49.70540802 -18.15532897 48.79180144 -24.18945312 47.46484375 C-33.14516248 45.33896389 -41.01582468 42.14750013 -46.625 34.5625 C-50.10298902 28.01278278 -50.05581465 21.21339017 -49 14 C-46.55722727 6.78322393 -40.57289206 2.5141419 -34.1171875 -1.03515625 C-24.35826043 -5.14921374 -9.42232405 -4.76160273 0 0 Z " fill="#FAFAFA" transform="translate(122,883)"/>
<path d="M0 0 C5.94 0 11.88 0 18 0 C19.41955687 4.06150994 20.83570032 8.12415939 22.25 12.1875 C22.64574219 13.31865234 23.04148437 14.44980469 23.44921875 15.61523438 C25.78577752 22.33762885 27.97470071 29.08490848 30.04003906 35.89526367 C31.79761925 41.57968565 33.75528093 47.19811508 35.70703125 52.81835938 C36.00480469 53.69427734 36.30257812 54.57019531 36.609375 55.47265625 C36.87717773 56.24875244 37.14498047 57.02484863 37.42089844 57.82446289 C38 60 38 60 38 64 C38.66 64 39.32 64 40 64 C40.24000732 63.06341553 40.24000732 63.06341553 40.48486328 62.10791016 C42.42894101 54.73644841 44.76249546 47.53377935 47.21533203 40.31738281 C50.71199506 30.02150898 54.09775464 19.71380716 57.0625 9.25 C57.95913556 6.14166339 58.97697938 3.06906185 60 0 C65.94 0 71.88 0 78 0 C77.22846673 3.85766633 76.3334032 7.43934652 75.1875 11.1875 C74.87167969 12.23292969 74.55585937 13.27835938 74.23046875 14.35546875 C73.30371978 17.10041092 72.30966916 19.7183559 71.20507812 22.38964844 C68.6922999 28.64067717 66.59134509 35.01188325 64.48828125 41.41015625 C63.85638929 43.31739982 63.22449411 45.22464233 62.59240246 47.13181973 C61.49650982 50.44119098 60.40464905 53.7518918 59.3125 57.0625 C57.99643695 61.05149359 56.67963645 65.04023328 55.35820007 69.02745056 C54.53852232 71.50159401 53.72156601 73.97664098 52.907547 76.45265198 C52.54013901 77.56148239 52.17273102 78.67031281 51.79418945 79.81274414 C51.30931816 81.28306847 51.30931816 81.28306847 50.81465149 82.78309631 C50 85 50 85 49 86 C47.43827255 86.08685603 45.87270656 86.10702219 44.30859375 86.09765625 C43.36435547 86.09443359 42.42011719 86.09121094 41.44726562 86.08789062 C40.45404297 86.07951172 39.46082031 86.07113281 38.4375 86.0625 C37.44041016 86.05798828 36.44332031 86.05347656 35.41601562 86.04882812 C32.94395151 86.03700007 30.47200482 86.02051849 28 86 C27.68248779 85.01193359 27.36497559 84.02386719 27.0378418 83.00585938 C25.84886492 79.30764167 24.65734335 75.61024784 23.46508789 71.91308594 C22.95138239 70.31890536 22.43834885 68.72450807 21.92602539 67.12988281 C21.18556431 64.82558525 20.4426155 62.52210192 19.69921875 60.21875 C19.47409103 59.51633179 19.24896332 58.81391357 19.01701355 58.09020996 C17.70871338 54.0458014 16.2909354 50.06233087 14.78092957 46.08914185 C13.32858891 42.20384186 11.99240169 38.27797458 10.64453125 34.35546875 C10.33803146 33.46386551 10.03153168 32.57226227 9.71574402 31.65364075 C9.07387794 29.78406275 8.43271843 27.91424203 7.79223633 26.04418945 C7.1357661 24.1300708 6.47721603 22.21666426 5.81665039 20.30395508 C4.85898545 17.53096882 3.90731573 14.75599159 2.95703125 11.98046875 C2.6602095 11.12422409 2.36338776 10.26797943 2.05757141 9.38578796 C1.78696396 8.59098526 1.51635651 7.79618256 1.23754883 6.97729492 C0.87805901 5.93094124 0.87805901 5.93094124 0.51130676 4.8634491 C0 3 0 3 0 0 Z " fill="#FAFAFA" transform="translate(860,881)"/>
<path d="M0 0 C17.82 0 35.64 0 54 0 C54 4.95 54 9.9 54 15 C41.79 15 29.58 15 17 15 C17 22.26 17 29.52 17 37 C28.22 37 39.44 37 51 37 C51 41.62 51 46.24 51 51 C39.78 51 28.56 51 17 51 C17 62.55 17 74.1 17 86 C11.39 86 5.78 86 0 86 C0 57.62 0 29.24 0 0 Z " fill="#F9F9F9" transform="translate(295,881)"/>
<path d="M0 0 C5.61 0 11.22 0 17 0 C17 23.76 17 47.52 17 72 C29.87 72 42.74 72 56 72 C56 76.62 56 81.24 56 86 C37.52 86 19.04 86 0 86 C0 57.62 0 29.24 0 0 Z " fill="#FCFCFC" transform="translate(225,881)"/>
<path d="M0 0 C21.45 0 42.9 0 65 0 C65 19.47 65 38.94 65 59 C62.20476191 56.20476191 60.0915166 53.91604397 57.86328125 50.76953125 C57.29077637 49.9707959 56.71827148 49.17206055 56.12841797 48.34912109 C55.52916504 47.51203613 54.92991211 46.67495117 54.3125 45.8125 C40.39618062 26.71567916 22.636412 13.15329444 0 6 C0 4.02 0 2.04 0 0 Z " fill="#F0F0F0" transform="translate(1015,0)"/>
<path d="M0 0 C1.98 0 3.96 0 6 0 C6 21.45 6 42.9 6 65 C-15.12 65 -36.24 65 -58 65 C-54.50491608 61.50491608 -51.25779966 59.13685641 -47.0625 56.6875 C-46.40515869 56.29723633 -45.74781738 55.90697266 -45.07055664 55.50488281 C-40.7531464 52.96248284 -36.37277289 50.57979277 -31.9375 48.25 C-13.27719579 38.23715384 -6.38635222 19.11376338 0 0 Z " fill="#EEEEEE" transform="translate(1074,1015)"/>
<path d="M0 0 C4.50446841 4.50446841 4.50446841 4.50446841 6.21875 7.57421875 C6.59128906 8.23728027 6.96382813 8.9003418 7.34765625 9.58349609 C7.72792969 10.27781738 8.10820312 10.97213867 8.5 11.6875 C9.10134766 12.76378662 9.10134766 12.76378662 9.71484375 13.86181641 C11.70604792 17.46801774 13.50844878 21.02873134 15 24.875 C22.33385268 41.94405536 43.51640221 50.11414454 59 58 C59 59.98 59 61.96 59 64 C39.53 64 20.06 64 0 64 C0 42.88 0 21.76 0 0 Z " fill="#EEEEEE" transform="translate(0,1016)"/>
<path d="M0 0 C19.47 0 38.94 0 59 0 C55.31338153 3.68661847 51.74168501 6.82807655 47.625 9.9375 C31.27068983 22.57234788 16.88315391 37.26325393 4.7434082 53.97216797 C3.5149599 55.66234984 2.2601644 57.33333096 1 59 C0.67 59 0.34 59 0 59 C0 39.53 0 20.06 0 0 Z " fill="#F0F0F0" transform="translate(0,0)"/>
<path d="M0 0 C3.17625 -0.0825 6.3525 -0.165 9.625 -0.25 C10.6145166 -0.28641602 11.6040332 -0.32283203 12.62353516 -0.36035156 C18.41781752 -0.43297042 21.59070069 0.15599548 26 4 C28.4503457 8.00965659 28.58496559 12.41027 28 17 C26.42299677 21.17905855 24.86067171 23.70772617 21 26 C18.23434618 26.92188461 16.61716298 27.11785222 13.76953125 27.09765625 C13.04612549 27.09515869 12.32271973 27.09266113 11.57739258 27.09008789 C10.66497803 27.08098389 9.75256348 27.07187988 8.8125 27.0625 C5.904375 27.041875 2.99625 27.02125 0 27 C0 18.09 0 9.18 0 0 Z " fill="#272727" transform="translate(427,895)"/>
<path d="M0 0 C3.17625 -0.061875 6.3525 -0.12375 9.625 -0.1875 C11.1092749 -0.22846802 11.1092749 -0.22846802 12.62353516 -0.27026367 C17.83142116 -0.31921591 21.52696879 0.01081087 26 3 C28.36170276 6.86460451 28.3972947 10.55029935 28 15 C26.6445307 18.31336941 25.49881237 19.67499256 22.5 21.62890625 C17.90926736 23.42728477 13.995428 23.32941809 9.125 23.1875 C6.11375 23.125625 3.1025 23.06375 0 23 C0 15.41 0 7.82 0 0 Z " fill="#282828" transform="translate(806,895)"/>
<path d="M0 0 C3.17625 -0.061875 6.3525 -0.12375 9.625 -0.1875 C11.1092749 -0.22846802 11.1092749 -0.22846802 12.62353516 -0.27026367 C17.83142116 -0.31921591 21.52696879 0.01081087 26 3 C28.36170276 6.86460451 28.3972947 10.55029935 28 15 C26.6445307 18.31336941 25.49881237 19.67499256 22.5 21.62890625 C17.90926736 23.42728477 13.995428 23.32941809 9.125 23.1875 C6.11375 23.125625 3.1025 23.06375 0 23 C0 15.41 0 7.82 0 0 Z " fill="#282828" transform="translate(505,895)"/>
<path d="M0 0 C11.88 0 23.76 0 36 0 C36 4.95 36 9.9 36 15 C24.12 15 12.24 15 0 15 C0 10.05 0 5.1 0 0 Z " fill="#F4F4F4" transform="translate(358,918)"/>
</svg>
