<?xml version="1.0" encoding="UTF-8"?>
<svg version="1.1" xmlns="http://www.w3.org/2000/svg" width="1080" height="1080">
<path d="M0 0 C356.4 0 712.8 0 1080 0 C1080 356.4 1080 712.8 1080 1080 C723.6 1080 367.2 1080 0 1080 C0 723.6 0 367.2 0 0 Z " fill="#222323" transform="translate(0,0)"/>
<path d="M0 0 C1.46590408 -0.00239569 2.93180694 -0.0056646 4.39770737 -0.0097166 C8.40271827 -0.01828013 12.40763463 -0.01453384 16.41264682 -0.00866088 C20.77870864 -0.00447139 25.14475381 -0.01190335 29.51081151 -0.01781338 C37.15538614 -0.02655988 44.79993398 -0.02789302 52.44451237 -0.02431011 C63.81254593 -0.01899618 75.18055362 -0.02510536 86.54858437 -0.03339304 C108.03416701 -0.04862641 129.51973785 -0.05033881 151.00532476 -0.04787002 C167.59714393 -0.04603678 184.18895924 -0.04779761 200.78077793 -0.05209446 C203.16520014 -0.05269686 205.54962235 -0.05329806 207.93404457 -0.05389806 C211.5272136 -0.05480532 215.12038262 -0.05571399 218.71355165 -0.05663041 C252.11716806 -0.06505894 285.52078301 -0.06939632 318.92440033 -0.06522369 C320.18342719 -0.06506732 321.44245406 -0.06491094 322.73963325 -0.06474983 C329.12076286 -0.06394405 335.50189245 -0.06309828 341.88302205 -0.06223653 C343.78396368 -0.06197989 343.78396368 -0.06197989 345.72330818 -0.06171808 C348.2860843 -0.06137142 350.84886043 -0.06102289 353.41163656 -0.06067249 C393.29071774 -0.05531499 433.16977682 -0.06324696 473.04885387 -0.08170605 C517.86189516 -0.1024247 562.67492275 -0.11314905 607.4879691 -0.10913056 C612.26670404 -0.10873522 617.04543898 -0.10837367 621.82417393 -0.10803318 C623.00080409 -0.10794245 624.17743425 -0.10785172 625.38971988 -0.10775824 C643.14701238 -0.10659258 660.90429104 -0.1132381 678.66158009 -0.1238451 C698.85762767 -0.13589661 719.05364479 -0.13745657 739.24969283 -0.12505493 C750.5484363 -0.11842719 761.84710691 -0.12005551 773.14584454 -0.13364345 C780.69847388 -0.14189291 788.25104867 -0.13918391 795.80367358 -0.12766818 C800.10324008 -0.12141678 804.40266449 -0.11979797 808.70222274 -0.13153151 C835.65412739 -0.19991185 864.61565309 -0.067825 886.00319958 19.25447559 C894.9285705 32.82103939 897.17517907 48.70983362 897.12904072 64.57704163 C897.13049416 65.4636699 897.1319476 66.35029818 897.13344508 67.26379398 C897.13708047 70.22076302 897.1336298 73.1776797 897.13018322 76.13464832 C897.13133616 78.28331285 897.13292485 80.43197717 897.13491046 82.58064109 C897.13908335 88.47780146 897.13702191 94.37494563 897.13392425 100.27210605 C897.13166068 106.64153043 897.13515548 113.01095203 897.13790417 119.38037586 C897.14210043 131.15993915 897.14172558 142.9394967 897.1389927 154.71906027 C897.13646668 165.6643713 897.13582512 176.60968046 897.13701534 187.55499172 C897.13712992 188.64857921 897.13712992 188.64857921 897.13724681 189.76425938 C897.13755827 192.72563641 897.13787668 195.68701345 897.13820658 198.64839048 C897.14126996 226.48371093 897.13849106 254.31902817 897.13310968 282.15434812 C897.12841399 306.62677193 897.12874522 331.09919051 897.13357067 355.57161427 C897.13900182 383.20695237 897.14100276 410.84228758 897.13795841 438.47762614 C897.13763788 441.46460648 897.13732502 444.45158682 897.13701534 447.43856716 C897.13693627 448.17375316 897.13685719 448.90893916 897.13677571 449.66640353 C897.13566408 460.50716498 897.13691947 471.34792427 897.1394949 482.18868542 C897.14244395 494.6625599 897.14146198 507.13642854 897.13621415 519.61030235 C897.13364451 525.91663044 897.13236512 532.22295063 897.1358633 538.52927876 C897.15885664 593.77629471 896.50093526 649.00581436 896.00319958 704.25447559 C716.15319958 704.25447559 536.30319958 704.25447559 351.00319958 704.25447559 C351.00319958 693.36447559 351.00319958 682.47447559 351.00319958 671.25447559 C364.15909466 668.14621467 377.27933333 665.12042322 390.56569958 662.62947559 C430.45538109 655.11835861 464.12132366 640.58939888 497.70241833 617.75056934 C499.33630505 616.66969044 499.33630505 616.66969044 501.00319958 615.56697559 C501.91069958 614.94435841 502.81819958 614.32174122 503.75319958 613.68025684 C507.11796408 612.20412818 508.93791991 612.1624904 512.54226208 612.12556934 C516.56555216 611.87975175 516.56555216 611.87975175 519.70925426 609.58968067 C521.16904099 607.1232471 522.28762161 604.65525621 523.37819958 602.00447559 C523.81825329 601.03590626 524.258307 600.06733692 524.71169567 599.069417 C525.66856197 596.94923607 526.60539516 594.81992901 527.52468395 592.68318653 C529.06276697 589.11633747 530.65754687 585.57766427 532.26882458 582.04353809 C535.04765228 575.93100762 537.77905055 569.79859325 540.49587536 563.65828419 C542.67110731 558.74622007 544.86540162 553.84285174 547.06569958 548.94197559 C547.41132946 548.1670879 547.75695934 547.3922002 548.11306286 546.59383106 C549.97130583 542.45021562 551.92698423 538.43206522 554.16897106 534.48030567 C556.61185578 527.96237181 556.17558514 520.50566663 556.20632458 513.64119434 C556.21202465 512.63216557 556.21772472 511.62313679 556.22359753 510.58353138 C556.23300789 508.45131431 556.23956566 506.31908296 556.24343395 504.18684864 C556.2530559 500.98971666 556.284083 497.79325171 556.31569958 494.59627247 C556.46700109 465.34142926 550.94571727 437.74827487 531.00319958 415.25447559 C530.49144176 414.62412403 529.97968395 413.99377247 529.45241833 413.34431934 C526.3365036 409.52291449 522.92800122 406.29709796 519.16726208 403.11385059 C517.71553882 401.86652158 516.29327119 400.58413429 514.90163708 399.27010059 C491.30881768 377.05555587 460.77589072 361.60351223 431.31569958 348.62947559 C430.18123898 348.12672611 430.18123898 348.12672611 429.02385998 347.61382008 C410.90415264 339.59708843 392.4775212 332.40657741 374.00319958 325.25447559 C366.41319958 322.28447559 358.82319958 319.31447559 351.00319958 316.25447559 C351.00319958 250.25447559 351.00319958 184.25447559 351.00319958 116.25447559 C364.507702 118.505226 364.507702 118.505226 368.98366833 119.55135059 C369.98978161 119.78467091 370.99589489 120.01799122 372.03249645 120.25838184 C373.595807 120.62769825 373.595807 120.62769825 375.19069958 121.00447559 C376.86422497 121.39699512 376.86422497 121.39699512 378.57155895 121.79744434 C380.89470619 122.34329906 383.21745901 122.89083506 385.53982067 123.44002247 C388.89594849 124.22925428 392.25557795 125.00149286 395.61648083 125.77010059 C413.64878201 129.93413676 430.74741113 135.6248675 448.00319958 142.25447559 C448.00319958 146.21447559 448.00319958 150.17447559 448.00319958 154.25447559 C445.8027416 154.77931601 443.60225426 155.30403357 441.40163708 155.82820606 C439.48859834 156.28439729 437.57584369 156.74178122 435.66335583 157.20027637 C431.3028267 158.24329523 426.94317825 159.2789586 422.56179333 160.23103809 C418.35170445 161.15119672 414.17537784 162.1760436 410.00319958 163.25447559 C409.11439098 163.4779668 408.22558239 163.70145802 407.3098402 163.93172169 C396.08053351 166.49486459 396.08053351 166.49486459 386.70241833 172.62556934 C385.32147039 175.50290049 384.646701 178.13113944 384.00319958 181.25447559 C383.62679333 182.32181934 383.25038708 183.38916309 382.86257458 184.48885059 C377.96181469 199.19113026 377.22098299 219.76782974 383.56569958 234.19197559 C388.25073525 242.68797312 394.59078924 250.96601999 402.00319958 257.25447559 C402.89136364 258.03049122 403.7795277 258.80650684 404.69460583 259.60603809 C413.74839143 266.74481773 421.66421722 267.99192009 433.00319958 268.25447559 C433.94679333 268.28331837 434.89038708 268.31216114 435.86257458 268.34187794 C438.86803556 268.42301358 441.8718226 268.4728888 444.87819958 268.50447559 C445.80422985 268.51422413 446.73026012 268.52397266 447.68435192 268.53401661 C459.17902543 268.47581832 469.55449057 266.05520209 480.37819958 262.31697559 C481.93860973 261.79587208 481.93860973 261.79587208 483.53054333 261.26424122 C494.96765081 257.38614156 501.35443646 253.554455 506.92849255 242.40340137 C515.42987214 223.86390856 516.35345021 199.46845826 509.60476208 180.12947559 C502.85712285 163.0028018 490.63688764 151.21399435 475.00319958 142.25447559 C474.36092419 141.87645802 473.7186488 141.49844044 473.05691051 141.10896778 C467.78227811 138.00912275 462.42014268 135.09743131 457.00319958 132.25447559 C456.04317028 131.7486797 455.08314098 131.2428838 454.09401989 130.72176075 C440.63411255 123.71894231 427.14453503 117.93573829 412.75319958 113.19197559 C412.07417583 112.96809162 411.39515209 112.74420765 410.69555187 112.51353931 C396.0961314 107.74189171 381.57906813 103.90035607 366.32937145 101.83260059 C359.27959846 100.7739939 355.11009626 99.36137228 350.00319958 94.25447559 C349.76269054 91.7740984 349.76269054 91.7740984 349.7761488 88.61140919 C349.77629986 87.43033588 349.77645092 86.24926258 349.77660656 85.03239918 C349.78692913 83.75216877 349.7972517 82.47193836 349.80788708 81.15291309 C349.81213192 79.19280796 349.81213192 79.19280796 349.81646252 77.19310474 C349.82410182 73.71765478 349.84375268 70.24237176 349.86587048 66.7669878 C349.88632262 63.22117337 349.89546287 59.67533199 349.90554333 56.12947559 C349.92699843 49.17106673 349.9621829 42.21279636 350.00319958 35.25447559 C343.07319958 35.25447559 336.14319958 35.25447559 329.00319958 35.25447559 C329.00319958 54.72447559 329.00319958 74.19447559 329.00319958 94.25447559 C311.18319958 94.25447559 293.36319958 94.25447559 275.00319958 94.25447559 C275.00319958 74.45447559 275.00319958 54.65447559 275.00319958 34.25447559 C267.74319958 34.25447559 260.48319958 34.25447559 253.00319958 34.25447559 C253.00319958 55.70447559 253.00319958 77.15447559 253.00319958 99.25447559 C242.95721588 102.60313683 242.95721588 102.60313683 238.20241833 103.94588184 C187.84749471 118.37570615 135.36612537 137.93011106 106.00319958 184.25447559 C105.29679333 185.36178028 104.59038708 186.46908497 103.86257458 187.60994434 C89.9670992 210.65415828 83.55944032 237.87770285 83.62819958 264.62947559 C83.62774639 265.32091663 83.62729321 266.01235767 83.62682629 266.72475147 C83.66329901 285.81067938 85.92111822 305.70507769 95.19069958 322.69197559 C95.78552135 323.79364063 95.78552135 323.79364063 96.39235973 324.91756153 C99.7885897 331.08685999 103.587828 336.76139948 108.00319958 342.25447559 C108.40232555 342.75898243 108.80145153 343.26348927 109.21267223 343.78328419 C136.75036695 378.40780832 177.87240263 397.70028588 217.00319958 416.25447559 C220.19793805 417.76997056 223.3924684 419.2858719 226.58547497 420.8050127 C228.44101432 421.68705764 230.29810711 422.56584757 232.15725231 423.44026661 C239.26720948 426.81284315 246.0433236 430.50685007 253.00319958 434.25447559 C253.00319958 503.55447559 253.00319958 572.85447559 253.00319958 644.25447559 C202.57195263 644.25447559 202.57195263 644.25447559 189.50319958 638.69197559 C188.65789684 638.34118946 187.81259411 637.99040333 186.94167614 637.62898731 C184.28882463 636.519301 181.64589541 635.38810434 179.00319958 634.25447559 C178.14532848 633.89402149 177.28745739 633.53356739 176.4035902 633.16219044 C164.55071117 628.16949139 153.69381286 622.40407664 143.00319958 615.25447559 C142.01319958 614.59447559 141.02319958 613.93447559 140.00319958 613.25447559 C139.71023083 610.43416309 139.71023083 610.43416309 139.81569958 607.12947559 C139.85630505 605.48592091 139.85630505 605.48592091 139.89773083 603.80916309 C139.93253551 602.96611622 139.9673402 602.12306934 140.00319958 601.25447559 C140.68608044 601.13966846 141.3689613 601.02486134 142.07253551 600.9065752 C173.8990231 595.45022511 199.96686439 586.62216944 221.50319958 561.31697559 C228.25772508 547.52648603 226.2081634 527.60737476 221.77370739 513.34138966 C215.76601821 497.069613 200.75489073 482.62191505 185.37819958 475.44197559 C173.15923752 470.78420164 159.49879133 470.87326966 146.56569958 470.94197559 C145.48876339 470.94470982 145.48876339 470.94470982 144.39007092 470.94749928 C128.99054182 471.01319309 115.00657478 472.19172677 101.00319958 479.25447559 C99.76569958 479.84808887 99.76569958 479.84808887 98.50319958 480.45369434 C84.70215118 487.8186769 74.73971516 500.17873661 70.14382458 515.03181934 C64.97648817 539.36718065 69.86745079 567.86164338 82.82741833 588.96150684 C86.19542293 594.0588639 89.9321155 598.70531926 94.00319958 603.25447559 C94.53042614 603.86420216 95.0576527 604.47392872 95.60085583 605.10213184 C105.34188264 615.64037824 118.62450446 623.24250319 131.00319958 630.25447559 C131.62823376 630.61750782 132.25326794 630.98054005 132.89724255 631.35457325 C152.83646976 642.88281301 174.92634812 650.02574833 197.00319958 656.25447559 C197.85672009 656.49585255 198.71024059 656.7372295 199.58962536 656.98592091 C206.04583792 658.79866966 212.52192116 660.53383165 219.00319958 662.25447559 C219.68295849 662.43510548 220.3627174 662.61573536 221.06307507 662.80183887 C231.7069624 665.63013289 242.35476254 668.44328821 253.00319958 671.25447559 C253.00319958 682.14447559 253.00319958 693.03447559 253.00319958 704.25447559 C144.43319958 704.25447559 35.86319958 704.25447559 -75.99680042 704.25447559 C-77.12180068 695.25447357 -77.12180068 695.25447357 -77.12741095 692.17634362 C-77.13293201 691.11483539 -77.13293201 691.11483539 -77.13856462 690.03188255 C-77.13754195 689.28083267 -77.13651928 688.52978279 -77.13546562 687.75597382 C-77.13972895 686.52311793 -77.13972895 686.52311793 -77.1440784 685.26535586 C-77.15238734 682.5162507 -77.15369081 679.76718791 -77.15501881 677.01807117 C-77.15958764 675.02308103 -77.16458814 673.02809184 -77.16998237 671.03310376 C-77.1835525 665.5503397 -77.19097974 660.06758183 -77.19740903 654.58480537 C-77.20542517 648.66334268 -77.21912541 642.74189281 -77.23212147 636.82043934 C-77.25391486 626.52965368 -77.27209487 616.23886633 -77.2877264 605.94806957 C-77.30426405 595.06664727 -77.32277339 584.18523127 -77.34385967 573.3038168 C-77.34517728 572.62304758 -77.34649489 571.94227836 -77.34785242 571.24087978 C-77.35321208 568.47505706 -77.35858627 565.70923438 -77.36397931 562.94341173 C-77.413273 537.66225926 -77.45785773 512.38110075 -77.49948597 487.09993458 C-77.53824714 463.56249376 -77.57968016 440.02505999 -77.62448597 416.48762989 C-77.62723508 415.04131976 -77.62998367 413.59500964 -77.63273175 412.14869951 C-77.64368911 406.38300886 -77.65465886 400.61731824 -77.66564033 394.85162764 C-77.76561935 342.34227448 -77.85452784 289.8329176 -77.92765797 237.32351973 C-77.93641034 231.04055618 -77.9452439 224.75759275 -77.95413685 218.4746294 C-77.9558512 217.26181681 -77.95756555 216.04900423 -77.95933186 214.79943974 C-77.98549527 196.44821974 -78.01992113 178.09702914 -78.05980283 159.74583429 C-78.08944939 146.03343576 -78.11297736 132.32103827 -78.12978572 118.60861784 C-78.1398435 110.57642035 -78.15521622 102.5442787 -78.1789998 94.5121098 C-78.19556405 88.72069698 -78.2018915 82.92930508 -78.20384622 77.13786769 C-78.20622309 74.86520212 -78.21196209 72.5925368 -78.2215631 70.31989026 C-78.30349607 50.26859383 -76.48832083 36.09505562 -64.99680042 19.25447559 C-64.59332386 18.59189747 -64.1898473 17.92931934 -63.77414417 17.24666309 C-57.97848673 8.93520579 -45.30704763 5.56117897 -35.87180042 3.44197559 C-33.58195047 3.03576463 -31.29005642 2.64099478 -28.99680042 2.25447559 C-27.93860412 2.07478387 -26.88040782 1.89509214 -25.79014497 1.7099552 C-17.15127631 0.35908553 -8.73090454 -0.0300507 0 0 Z " fill="#008779" transform="translate(129.99680042266846,51.745524406433105)"/>
<path d="M0 0 C7.78477833 1.29746306 13.95373649 2.33587358 21 5.25 C21.77053711 5.56155029 22.54107422 5.87310059 23.33496094 6.1940918 C42.24154322 13.94673863 56.51156091 24.82008469 71 39 C71.61246582 39.58475098 72.22493164 40.16950195 72.85595703 40.77197266 C78.88135325 46.61142954 82.41235182 52.11310028 84.625 60.1875 C84.83664795 60.94506592 85.0482959 61.70263184 85.26635742 62.4831543 C85.86105399 64.65138147 86.43453509 66.82399351 87 69 C87.25136719 69.94101562 87.50273438 70.88203125 87.76171875 71.8515625 C90.86211001 85.7043745 91.05451056 104.47236624 84.3359375 117.13671875 C79.80351037 124.18816415 74.39816191 130.60140654 69 137 C68.14577674 138.08328871 67.29159869 139.16661307 66.4375 140.25 C53.89505126 154.40045499 35.87646091 166.0411797 18 172 C12.06 172 6.12 172 0 172 C0 115.24 0 58.48 0 0 Z " fill="#018477" transform="translate(481,524)"/>
<path d="M0 0 C8.64245763 0.6173184 16.84805157 1.25165367 25.3125 2.75 C26.20388672 2.894375 27.09527344 3.03875 28.01367188 3.1875 C37.01962653 4.7526554 45.05126418 7.36801888 54 10 C54 74.35 54 138.7 54 205 C36.18 205 18.36 205 0 205 C0 137.35 0 69.7 0 0 Z " fill="#018477" transform="translate(405,497)"/>
<path d="M0 0 C17.82 0 35.64 0 54 0 C54 62.37 54 124.74 54 189 C43.62923848 187.70365481 33.75491269 186.28120665 23.625 184 C21.26314897 183.47858589 18.90117195 182.95774213 16.5390625 182.4375 C15.52021973 182.20933594 14.50137695 181.98117187 13.45166016 181.74609375 C8.97859798 180.7792188 4.48749678 179.89749936 0 179 C0 119.93 0 60.86 0 0 Z " fill="#018376" transform="translate(405,167)"/>
<path d="M0 0 C0 49.5 0 99 0 150 C-23.98696631 142.00434456 -45.65572288 129.51992615 -61 109 C-61.88171875 107.94425781 -61.88171875 107.94425781 -62.78125 106.8671875 C-72.63037106 94.16954614 -71.3237821 73.14356773 -70 58 C-69.11504602 52.62767146 -67.36138397 47.91269159 -65 43 C-64.61199219 42.1440625 -64.22398437 41.288125 -63.82421875 40.40625 C-54.63355238 22.87853952 -35.99929736 7.59101811 -17.49609375 1.125 C-11.54583313 -0.40780417 -6.32795861 0 0 0 Z " fill="#008578" transform="translate(383,179)"/>
<path d="M0 0 C6.77179523 5.58601674 10.34417087 12.90333717 12.5625 21.25 C12.73523438 21.85585938 12.90796875 22.46171875 13.0859375 23.0859375 C13.98002682 27.14598245 13.74712256 31.29686909 13.75 35.4375 C13.76224609 36.34564453 13.77449219 37.25378906 13.78710938 38.18945312 C13.81197479 49.76844929 11.19745764 60.62380698 3.51953125 69.65234375 C-6.58169463 79.2529779 -18.24424543 80.82415107 -31.58203125 80.58984375 C-41.68313696 80.11852401 -49.63199311 75.54728011 -56.4375 68.25 C-56.91832031 67.73953125 -57.39914062 67.2290625 -57.89453125 66.703125 C-65.34053711 57.61494866 -65.84353766 46.41228305 -66 35.1875 C-66.02682861 34.09977295 -66.05365723 33.0120459 -66.08129883 31.89135742 C-66.03056898 20.85803065 -62.28728818 10.22002564 -54.4375 2.25 C-38.67754629 -11.29755119 -17.07208878 -11.5317128 0 0 Z " fill="#FBFBFB" transform="translate(374.4375,887.75)"/>
<path d="M0 0 C50.62277919 0 50.62277919 0 61.3984375 9.3515625 C69.69108494 17.88692157 73.46110443 27.31232321 73.55615234 39.24829102 C73.53762207 40.30072998 73.5190918 41.35316895 73.5 42.4375 C73.48791504 43.53698975 73.47583008 44.63647949 73.46337891 45.76928711 C73.13679537 59.08696782 69.74638598 68.09298578 60.375 77.6875 C43.69409857 90.77490937 18.44719201 86 0 86 C0 57.62 0 29.24 0 0 Z " fill="#FBFBFB" transform="translate(570,881)"/>
<path d="M0 0 C48.87301587 0 48.87301587 0 57.0625 7.9375 C61.46678226 13.3540134 62.47613803 18.29497076 62.30078125 25.15234375 C61.70880507 30.75689744 60.22424616 35.1589721 55.80078125 38.8203125 C54.23792297 39.86221802 52.64608781 40.86249698 51.0234375 41.80859375 C48.87051177 42.9624523 48.87051177 42.9624523 47 45 C48.051875 45.7425 49.10375 46.485 50.1875 47.25 C55.15317102 51.57879137 56.91020778 56.91184414 59 63 C59.29471191 63.84836426 59.58942383 64.69672852 59.89306641 65.57080078 C61.50887158 70.24744677 63.09625464 74.93336291 64.64453125 79.6328125 C64.90596924 80.42574707 65.16740723 81.21868164 65.43676758 82.03564453 C66 84 66 84 66 86 C60.06 86 54.12 86 48 86 C47.278125 83.628125 46.55625 81.25625 45.8125 78.8125 C44.13925425 73.44488201 42.41045825 68.10113362 40.5 62.8125 C39.95859375 61.30623047 39.95859375 61.30623047 39.40625 59.76953125 C37.83249967 56.31524536 37.83249967 56.31524536 33 52 C28.05 51.67 23.1 51.34 18 51 C18 62.55 18 74.1 18 86 C12.06 86 6.12 86 0 86 C0 57.62 0 29.24 0 0 Z " fill="#F7F7F7" transform="translate(489,881)"/>
<path d="M0 0 C6.27 0 12.54 0 19 0 C25.40764223 7.80060793 25.40764223 7.80060793 27.25390625 11.671875 C30.33101839 17.79135583 34.00651745 23.48040803 37.6875 29.25 C41.04455244 34.6095933 44.39090797 39.9753933 47.6640625 45.38671875 C48.03700439 46.00192383 48.40994629 46.61712891 48.79418945 47.25097656 C49.72851196 48.79839921 50.65563192 50.35016474 51.58203125 51.90234375 C52.83126895 54.12003282 52.83126895 54.12003282 55 55 C55 36.85 55 18.7 55 0 C60.28 0 65.56 0 71 0 C71 28.38 71 56.76 71 86 C54 86 54 86 50.1875 82.25 C49.08651893 80.18674415 48.03067509 78.09926008 47 76 C45.70066305 73.76724661 44.35782212 71.56394135 43.01245117 69.35864258 C41.45985132 66.80907062 39.93622765 64.24362206 38.4140625 61.67578125 C34.04258373 54.35413734 29.47721505 47.15307395 24.90039062 39.95849609 C24.29130859 38.99379395 23.68222656 38.0290918 23.0546875 37.03515625 C22.51312012 36.1831665 21.97155273 35.33117676 21.41357422 34.45336914 C20.01569954 32.02724779 18.97099581 29.62262629 18 27 C17.34 27 16.68 27 16 27 C16 46.47 16 65.94 16 86 C10.72 86 5.44 86 0 86 C0 57.62 0 29.24 0 0 Z " fill="#FDFDFD" transform="translate(701,881)"/>
<path d="M0 0 C0.91644287 0.00523682 1.83288574 0.01047363 2.77709961 0.01586914 C4.26113281 0.02070312 4.26113281 0.02070312 5.77514648 0.02563477 C6.81606445 0.03401367 7.85698242 0.04239258 8.92944336 0.05102539 C10.49662109 0.05779297 10.49662109 0.05779297 12.09545898 0.06469727 C14.68600996 0.07652627 17.27644895 0.0930085 19.86694336 0.11352539 C20.71204394 2.52626883 21.55709174 4.93903073 22.40209961 7.35180664 C22.80764824 8.50972717 22.80764824 8.50972717 23.22138977 9.69104004 C24.7503218 14.0569943 26.27834406 18.42326445 27.80493164 22.79003906 C28.45448568 24.6478758 29.10406295 26.50570443 29.75366211 28.36352539 C30.25159271 29.78759453 30.25159271 29.78759453 30.75958252 31.24043274 C32.85692129 37.23556906 34.96203518 43.22791598 37.07279968 49.21833801 C38.46251614 53.16428427 39.8485829 57.11150713 41.23410034 61.05892944 C41.90571526 62.96952898 42.57899319 64.87954476 43.25393677 66.78897095 C44.19951233 69.4646902 45.13932739 72.14236769 46.07788086 74.82055664 C46.36158035 75.61876831 46.64527985 76.41697998 46.93757629 77.23937988 C48.01071792 80.31655215 48.86694336 82.8295263 48.86694336 86.11352539 C42.92694336 86.11352539 36.98694336 86.11352539 30.86694336 86.11352539 C29.86330627 83.15638041 28.86388856 80.19792579 27.86694336 77.23852539 C27.58077148 76.39676758 27.29459961 75.55500977 26.99975586 74.68774414 C26.72905273 73.88208008 26.45834961 73.07641602 26.17944336 72.24633789 C25.92807617 71.50270996 25.67670898 70.75908203 25.41772461 69.99291992 C24.86694336 68.11352539 24.86694336 68.11352539 24.86694336 66.11352539 C13.97694336 66.11352539 3.08694336 66.11352539 -8.13305664 66.11352539 C-9.12305664 69.74352539 -10.11305664 73.37352539 -11.13305664 77.11352539 C-12.11129183 80.12069282 -13.10369434 83.12347301 -14.13305664 86.11352539 C-20.07305664 86.11352539 -26.01305664 86.11352539 -32.13305664 86.11352539 C-25.59717148 66.27919182 -18.93075152 46.49288018 -12.09909058 26.75827026 C-11.32869102 24.53279609 -10.55926481 22.30698474 -9.790802 20.08084106 C-8.70624066 16.94088438 -7.61761907 13.80236804 -6.52758789 10.66430664 C-6.19893738 9.71179016 -5.87028687 8.75927368 -5.53167725 7.77789307 C-5.2297345 6.91194519 -4.92779175 6.04599731 -4.61669922 5.15380859 C-4.35311111 4.39413284 -4.08952301 3.63445709 -3.81794739 2.85176086 C-2.84828508 0.39078234 -2.70260763 0.14383799 0 0 Z " fill="#FBFBFB" transform="translate(428.133056640625,880.886474609375)"/>
<path d="M0 0 C1.11362915 0.00737183 1.11362915 0.00737183 2.24975586 0.01489258 C12.10077305 0.22439725 20.89992452 2.91497859 28.1953125 9.79296875 C30.96513956 12.87143368 31.98048797 15.29617242 32.625 19.3125 C30.86254778 20.5124038 29.08973019 21.69709517 27.3125 22.875 C25.83330078 23.86693359 25.83330078 23.86693359 24.32421875 24.87890625 C23.43347656 25.35199219 22.54273438 25.82507813 21.625 26.3125 C17.81078022 25.04109341 16.69966832 23.11787192 14.3203125 20.00390625 C10.35073522 16.04347547 5.69318813 15.96843381 0.3125 15.875 C-5.10591277 15.89075502 -9.39410757 16.31975873 -13.79296875 19.68359375 C-21.0614387 27.16742577 -21.5926722 34.44897129 -21.6875 44.4375 C-21.73100586 45.93023438 -21.73100586 45.93023438 -21.77539062 47.453125 C-21.83775716 54.80278146 -20.91479772 62.17070419 -15.96240234 67.96533203 C-10.7143893 72.60166504 -5.83621649 73.78821669 0.98828125 73.625 C5.34872277 73.10820693 8.98935649 71.77981832 12.625 69.3125 C16.30799321 64.36347788 15.8943016 60.88878563 16.625 54.3125 C10.025 54.3125 3.425 54.3125 -3.375 54.3125 C-3.375 49.6925 -3.375 45.0725 -3.375 40.3125 C8.835 40.3125 21.045 40.3125 33.625 40.3125 C33.625 55.8225 33.625 71.3325 33.625 87.3125 C28.345 87.3125 23.065 87.3125 17.625 87.3125 C17.625 83.6825 17.625 80.0525 17.625 76.3125 C16.965 76.3125 16.305 76.3125 15.625 76.3125 C15.41875 77.034375 15.2125 77.75625 15 78.5 C12.90670325 82.78174336 9.65025181 85.27270166 5.44140625 87.43359375 C-1.83180564 89.70332007 -12.3114244 89.6578382 -19.4375 86.75 C-28.77906352 81.60039535 -34.97704858 74.27676678 -38.125 64.125 C-38.56872495 62.52810615 -38.98602206 60.92360458 -39.375 59.3125 C-39.55933594 58.58417969 -39.74367188 57.85585938 -39.93359375 57.10546875 C-42.13385538 43.18345934 -41.09128813 28.61611752 -33.625 16.4375 C-25.2531069 4.93671756 -14.03134523 -0.11073577 0 0 Z " fill="#FAFAFA" transform="translate(830.375,879.6875)"/>
<path d="M0 0 C5.94 0 11.88 0 18 0 C18 10.56 18 21.12 18 32 C30.21 32 42.42 32 55 32 C55 21.44 55 10.88 55 0 C60.94 0 66.88 0 73 0 C73 28.38 73 56.76 73 86 C67.39 86 61.78 86 56 86 C56 73.13 56 60.26 56 47 C43.13 47 30.26 47 17 47 C17 59.87 17 72.74 17 86 C11.39 86 5.78 86 0 86 C0 57.62 0 29.24 0 0 Z " fill="#F6F6F6" transform="translate(218,881)"/>
<path d="M0 0 C6.14726876 2.84253405 9.081857 7.00484063 11.703125 13.1484375 C15.19384913 23.33200671 14.97832036 36.62442869 10.41796875 46.51953125 C7.28709709 52.00610699 3.53394013 55.24649912 -2.546875 57.2734375 C-9.72836518 57.77808276 -16.33823918 58.20134996 -22.546875 54.2734375 C-28.19563884 49.32238321 -30.96743203 43.26716432 -31.83203125 35.81591797 C-31.94719749 33.29467092 -31.95681511 30.79688962 -31.921875 28.2734375 C-31.93347656 27.43554688 -31.94507813 26.59765625 -31.95703125 25.734375 C-31.92348976 18.51177464 -30.74482966 10.94720547 -25.734375 5.3984375 C-25.27417969 4.86476563 -24.81398438 4.33109375 -24.33984375 3.78125 C-17.50347901 -1.96784976 -8.39409925 -2.39463568 0 0 Z " fill="#252525" transform="translate(357.546875,895.7265625)"/>
<path d="M0 0 C26.96359223 0 26.96359223 0 33.62109375 6.609375 C39.95301991 14.43011099 39.6624378 24.43605429 39 34 C37.92907678 41.19526538 36.59478157 47.13497255 31 52 C20.06761116 57.94737351 14.10782952 57 0 57 C0 38.19 0 19.38 0 0 Z " fill="#242424" transform="translate(587,896)"/>
<path d="M0 0 C17.82 0 35.64 0 54 0 C54 10.89 54 21.78 54 33 C36.18 33 18.36 33 0 33 C0 22.11 0 11.22 0 0 Z " fill="#018375" transform="translate(405,723)"/>
<path d="M0 0 C21.45 0 42.9 0 65 0 C65 19.47 65 38.94 65 59 C62.20476191 56.20476191 60.0915166 53.91604397 57.86328125 50.76953125 C57.29077637 49.9707959 56.71827148 49.17206055 56.12841797 48.34912109 C55.52916504 47.51203613 54.92991211 46.67495117 54.3125 45.8125 C40.39618062 26.71567916 22.636412 13.15329444 0 6 C0 4.02 0 2.04 0 0 Z " fill="#F0F0F0" transform="translate(1015,0)"/>
<path d="M0 0 C1.98 0 3.96 0 6 0 C6 21.45 6 42.9 6 65 C-15.12 65 -36.24 65 -58 65 C-54.50491608 61.50491608 -51.25779966 59.13685641 -47.0625 56.6875 C-46.40515869 56.29723633 -45.74781738 55.90697266 -45.07055664 55.50488281 C-40.7531464 52.96248284 -36.37277289 50.57979277 -31.9375 48.25 C-13.27719579 38.23715384 -6.38635222 19.11376338 0 0 Z " fill="#EEEEEE" transform="translate(1074,1015)"/>
<path d="M0 0 C4.50446841 4.50446841 4.50446841 4.50446841 6.21875 7.57421875 C6.59128906 8.23728027 6.96382813 8.9003418 7.34765625 9.58349609 C7.72792969 10.27781738 8.10820312 10.97213867 8.5 11.6875 C9.10134766 12.76378662 9.10134766 12.76378662 9.71484375 13.86181641 C11.70604792 17.46801774 13.50844878 21.02873134 15 24.875 C22.33385268 41.94405536 43.51640221 50.11414454 59 58 C59 59.98 59 61.96 59 64 C39.53 64 20.06 64 0 64 C0 42.88 0 21.76 0 0 Z " fill="#EEEEEE" transform="translate(0,1016)"/>
<path d="M0 0 C19.47 0 38.94 0 59 0 C55.31338153 3.68661847 51.74168501 6.82807655 47.625 9.9375 C31.27068983 22.57234788 16.88315391 37.26325393 4.7434082 53.97216797 C3.5149599 55.66234984 2.2601644 57.33333096 1 59 C0.67 59 0.34 59 0 59 C0 39.53 0 20.06 0 0 Z " fill="#F0F0F0" transform="translate(0,0)"/>
<path d="M0 0 C5.94 0 11.88 0 18 0 C18 28.38 18 56.76 18 86 C12.06 86 6.12 86 0 86 C0 57.62 0 29.24 0 0 Z " fill="#F2F2F2" transform="translate(661,881)"/>
<path d="M0 0 C3.361875 -0.0825 6.72375 -0.165 10.1875 -0.25 C11.23832764 -0.28641602 12.28915527 -0.32283203 13.37182617 -0.36035156 C17.74859079 -0.41239095 20.29968768 -0.42528377 24.11328125 1.890625 C27.60967782 5.7996398 27.38883675 9.20101208 27.35546875 14.29296875 C27 17 27 17 24.6875 20.125 C21.1874398 22.56690247 18.71345937 23.12559369 14.55078125 23.09765625 C13.78677002 23.09515869 13.02275879 23.09266113 12.2355957 23.09008789 C11.27097412 23.08098389 10.30635254 23.07187988 9.3125 23.0625 C4.7028125 23.0315625 4.7028125 23.0315625 0 23 C0 15.41 0 7.82 0 0 Z " fill="#262626" transform="translate(507,895)"/>
<path d="M0 0 C2 1 2 1 3.14501953 3.81982422 C3.55349121 5.0523291 3.96196289 6.28483398 4.3828125 7.5546875 C4.60194305 8.21203888 4.82107361 8.86939026 5.04684448 9.54666138 C5.50925706 10.93926614 5.96799 12.33309726 6.42333984 13.72802734 C7.12080674 15.86216926 7.83089964 17.99178536 8.54296875 20.12109375 C12 30.57329269 12 30.57329269 12 34 C4.41 34 -3.18 34 -11 34 C-8.74746374 23.86358682 -8.74746374 23.86358682 -7.08984375 18.90625 C-6.73986328 17.85695313 -6.38988281 16.80765625 -6.02929688 15.7265625 C-5.66900391 14.66179688 -5.30871094 13.59703125 -4.9375 12.5 C-4.57333984 11.40429688 -4.20917969 10.30859375 -3.83398438 9.1796875 C-1.13368056 1.13368056 -1.13368056 1.13368056 0 0 Z " fill="#2A2A2A" transform="translate(436,899)"/>
</svg>
