<?xml version="1.0" encoding="UTF-8"?>
<svg version="1.1" xmlns="http://www.w3.org/2000/svg" width="1080" height="1080">
<path d="M0 0 C356.4 0 712.8 0 1080 0 C1080 356.4 1080 712.8 1080 1080 C723.6 1080 367.2 1080 0 1080 C0 723.6 0 367.2 0 0 Z " fill="#232323" transform="translate(0,0)"/>
<path d="M0 0 C35.68061618 -0.0795503 71.36122066 -0.1439583 107.04189968 -0.18763173 C110.84780035 -0.19236063 114.65370091 -0.19716764 118.4596014 -0.20203507 C119.39145683 -0.2032191 120.32331225 -0.20440314 121.28340572 -0.20562305 C136.14566026 -0.22494916 151.00782813 -0.26097456 165.87003262 -0.30343833 C180.55542658 -0.34502709 195.2407585 -0.36867096 209.92621171 -0.37301677 C218.43852595 -0.37605739 226.95054413 -0.39247369 235.46277884 -0.42977613 C241.72311452 -0.45568516 247.98319137 -0.45535364 254.24356604 -0.44479752 C256.74521943 -0.44460171 259.24689166 -0.45276679 261.74848223 -0.47049642 C285.63114849 -0.63111602 307.62721074 3.80238494 327.97119808 17.13899887 C330.66297341 20.13414065 332.89602538 23.35512346 335.03369808 26.76399887 C335.51967464 27.51938949 336.00565121 28.27478012 336.50635433 29.05306137 C340.25527562 36.95078889 341.41598323 44.89554342 341.33869076 53.55582321 C341.34196101 54.54949232 341.34523127 55.54316144 341.34860063 56.56694174 C341.35585442 59.88514553 341.34173481 63.20290232 341.32764339 66.52107894 C341.32841534 68.93435159 341.33049694 71.34762411 341.3337698 73.76089466 C341.33781783 79.01329928 341.33248525 84.26560804 341.31881618 89.51799285 C341.29838423 97.37454677 341.29505912 105.23104513 341.29488829 113.08762228 C341.29398187 127.23276399 341.27558267 141.37784362 341.25022128 155.52296019 C341.22800049 167.96846821 341.21258734 180.41396394 341.20337582 192.85948837 C341.2021154 194.53484732 341.20085464 196.21020627 341.19959354 197.88556522 C341.19769661 200.41531129 341.19580263 202.94505737 341.19392192 205.47480345 C341.13436864 284.6256875 340.94200245 363.77642543 340.74431622 442.92706484 C340.73496286 446.6730779 340.72564768 450.41909107 340.71633571 454.16510424 C340.50770631 537.48985965 340.23148583 620.814382 339.97119808 704.13899887 C111.94119808 704.13899887 -116.08880192 704.13899887 -351.02880192 704.13899887 C-352.29232773 699.71665852 -353.46013256 695.43915742 -354.43895817 690.96712387 C-354.70208805 689.76692611 -354.96521793 688.56672836 -355.23632145 687.33016098 C-355.52148123 686.01647636 -355.80646917 684.70275443 -356.09130192 683.38899887 C-356.2392017 682.71047866 -356.38710148 682.03195846 -356.53948307 681.33287704 C-359.72076229 666.73606055 -362.77139654 652.11193386 -365.81859684 637.48665512 C-367.97754915 627.12896792 -370.15444976 616.77685774 -372.44530582 606.44734848 C-373.4927654 601.70388145 -374.47246331 596.95050257 -375.41942692 592.18587387 C-377.18158578 583.32289211 -379.03821836 574.48070415 -380.90380192 565.63899887 C-381.16609089 564.39374938 -381.16609089 564.39374938 -381.43367863 563.12334335 C-383.71187573 552.30823869 -386.00596933 541.49700742 -388.39354801 530.70540512 C-389.89970856 523.86452109 -391.26611887 516.9978021 -392.63216496 510.12773788 C-393.82882718 504.12766961 -395.05091074 498.1327419 -396.27880192 492.13899887 C-396.50124073 491.05315002 -396.50124073 491.05315002 -396.72817326 489.94536483 C-398.80553732 479.82973869 -400.97706341 469.73975072 -403.26863956 459.67049301 C-403.71422239 457.71064543 -404.15666561 455.75011176 -404.598382 453.78938949 C-405.96555228 447.73953372 -407.35068014 441.70032931 -408.89696598 435.69344223 C-410.67425024 427.71928904 -411.23127943 420.25578249 -411.12645817 412.07649887 C-411.11940861 411.02011215 -411.11235905 409.96372543 -411.10509586 408.87532699 C-411.08686251 406.29640163 -411.06128452 403.71777739 -411.02880192 401.13899887 C-404.14496151 398.64343027 -397.25814274 396.15625767 -390.36781406 393.67865551 C-387.1655249 392.52691596 -383.96417662 391.3727157 -380.76513004 390.21199691 C-341.23475568 375.88612699 -304.93022261 367.94283759 -262.84130192 367.70149887 C-261.27380695 367.68344696 -261.27380695 367.68344696 -259.67464542 367.66503036 C-230.81340659 367.38040276 -207.46371984 374.26393396 -186.02880192 394.13899887 C-181.01619934 399.06484486 -177.09629743 404.77480811 -173.07323551 410.50887191 C-169.38853824 415.72920512 -165.44542749 420.70567866 -161.42284489 425.6680516 C-158.3455104 429.47094855 -155.36906999 433.32452791 -152.46630192 437.26399887 C-148.04007808 443.2214569 -143.28879102 448.8510375 -138.45360661 454.47591293 C-136.5219224 456.73064781 -134.60874799 459.0007331 -132.69603825 461.27156723 C-131.30753761 462.91743679 -129.91288218 464.55791141 -128.51708317 466.19759262 C-127.03829785 467.94567008 -125.57219497 469.7048149 -124.13427067 471.48665512 C-112.1057823 486.10676159 -93.35911888 492.93894896 -75.02880192 495.13899887 C-71.6530944 495.31862225 -68.27986272 495.37288129 -64.89989567 495.41243637 C-63.43777401 495.4311605 -63.43777401 495.4311605 -61.94611454 495.4502629 C-39.70337358 495.67969226 -18.79702519 495.07667779 2.97119808 490.13899887 C4.62300386 489.8068848 6.27530778 489.4772332 7.92822933 489.15071762 C44.72705955 481.39337822 80.6258225 464.37211292 115.16065121 449.9817723 C115.95445187 449.65164138 116.74825253 449.32151046 117.56610775 448.98137558 C119.03239098 448.37015746 120.497369 447.75579481 121.96076107 447.13768661 C126.75110201 445.13899887 126.75110201 445.13899887 128.97119808 445.13899887 C128.85131915 438.68749764 128.72660964 432.23610141 128.59888363 425.78475082 C128.55616226 423.60020088 128.51445862 421.41563074 128.47388363 419.23103988 C128.06012861 397.02618729 127.05837608 375.09757923 124.65869808 353.01399887 C124.4331671 350.89937166 124.20799349 348.78470631 123.98316097 346.67000473 C122.15006026 329.50283595 120.23834086 312.34472663 118.21405697 295.19905746 C117.96672426 293.10104948 117.72101642 291.00285594 117.47559261 288.90462387 C116.35134678 279.31043704 115.18251 269.72257801 113.97119808 260.13899887 C113.82215023 258.94790512 113.67310238 257.75681137 113.51953793 256.52962387 C109.50557041 224.94894887 103.11769093 193.69986673 92.729743 163.56819808 C91.97119808 161.13899887 91.97119808 161.13899887 91.97119808 159.13899887 C71.79312854 162.69723457 52.84613913 168.37271354 33.89502621 176.15169418 C25.27006378 179.67572917 16.56157117 182.89647956 7.78369808 186.01399887 C7.14424252 186.24292831 6.50478695 186.47185775 5.84595394 186.70772445 C-3.02312445 189.87786788 -11.94556596 192.65193065 -21.02880192 195.13899887 C-21.89368229 195.38005355 -22.75856266 195.62110824 -23.64965153 195.86946762 C-47.14684571 202.38053154 -70.26357409 205.5869447 -94.65380192 205.57649887 C-96.10564381 205.57710311 -96.10564381 205.57710311 -97.58681583 205.57771957 C-131.46731466 205.49654102 -157.6881477 196.27424672 -182.02880192 172.13899887 C-187.61568017 166.31896037 -192.70762334 160.12628905 -197.77880192 153.85774887 C-199.96381761 151.21752157 -202.22051582 148.67170166 -204.52880192 146.13899887 C-208.75027897 141.4961007 -212.72182974 136.6880611 -216.66698551 131.8098973 C-218.23043604 129.89160125 -219.81024259 127.98747022 -221.39208317 126.08431137 C-221.98617985 125.36831771 -222.58027653 124.65232406 -223.19237614 123.91463363 C-224.41804226 122.43754464 -225.64493387 120.9614717 -226.8730402 119.48641098 C-229.51402235 116.29162849 -232.1092803 113.10647822 -234.47020817 109.69759262 C-245.37176596 93.97766674 -262.65175385 86.57831537 -281.02880192 83.13899887 C-293.46874948 81.3793855 -305.7861918 80.73657831 -318.34130192 80.76399887 C-319.20232517 80.76387802 -320.06334843 80.76375717 -320.95046329 80.76363266 C-336.92846034 80.79529449 -352.303593 82.16596815 -368.02880192 85.13899887 C-368.83639957 85.28853012 -369.64399723 85.43806137 -370.47606754 85.59212387 C-397.71777569 90.83184689 -424.20803217 101.49324863 -450.21630192 110.88899887 C-464.71759674 116.12354677 -464.71759674 116.12354677 -470.77880192 118.20149887 C-471.88739567 118.58435043 -472.99598942 118.96720199 -474.13817692 119.36165512 C-477.05007452 120.14471947 -479.05273445 120.64974312 -482.02880192 120.13899887 C-484.09911442 118.13509262 -484.09911442 118.13509262 -486.15380192 115.57649887 C-489.35579999 112.1262132 -489.35579999 112.1262132 -493.66942692 110.65853012 C-500.28497129 111.216126 -506.65207507 113.37105381 -513.02880192 115.13899887 C-512.37411703 119.91839284 -511.71681255 124.69741771 -511.05736637 129.47615707 C-510.83468981 131.09227565 -510.61265561 132.7084829 -510.39135075 134.32478988 C-507.92673631 152.31815952 -505.10391857 170.22180875 -501.77880192 188.07649887 C-501.62851536 188.88735946 -501.4782288 189.69822006 -501.3233881 190.53365219 C-496.01326641 219.18035215 -490.32260577 247.74978646 -484.58910465 276.31429183 C-482.43792432 287.03896215 -480.31121439 297.7661084 -478.27880192 308.51399887 C-476.00883939 320.47122487 -473.46005374 332.36326251 -470.87206364 344.2552098 C-469.98228138 348.35325734 -469.10042101 352.45295101 -468.22020817 356.55306137 C-464.56755963 373.55260436 -460.85691959 390.53911712 -457.09130192 407.51399887 C-456.77373936 408.94562866 -456.77373936 408.94562866 -456.44976139 410.40618026 C-454.28153674 420.16854126 -452.09467684 429.92567564 -449.81395817 439.66243637 C-449.63543308 440.42492691 -449.456908 441.18741745 -449.27297306 441.97301376 C-449.00563862 443.11454406 -449.00563862 443.11454406 -448.73290348 444.27913558 C-443.97054192 464.6169736 -439.61831587 485.03150963 -435.3652277 505.4817723 C-430.6846567 527.96940428 -425.70967401 550.38656414 -420.52880192 572.76399887 C-420.33903782 573.58531295 -420.14927372 574.40662704 -419.95375919 575.25282943 C-417.12937956 587.4745941 -414.25040625 599.68174955 -411.29833317 611.87337387 C-409.97290119 617.34931838 -408.69834035 622.83656224 -407.42601871 628.32503402 C-406.39729494 632.71174858 -405.23799843 637.04901449 -404.02880192 641.38899887 C-400.27572782 655.38575755 -397.9605182 669.56709038 -396.27880192 683.95149887 C-396.15110416 685.04244857 -396.02340641 686.13339828 -395.89183903 687.25740707 C-395.25997137 692.98861986 -395.02880192 698.31775734 -395.02880192 704.13899887 C-473.23880192 704.13899887 -551.44880192 704.13899887 -632.02880192 704.13899887 C-633.18271354 632.59647861 -633.18271354 632.59647861 -633.31395747 605.63118044 C-633.33535557 601.39417876 -633.3607222 597.15719985 -633.3854332 592.92021644 C-633.43287558 584.68252252 -633.47682189 576.44481394 -633.51934097 568.20709328 C-633.55439967 561.42979559 -633.59094011 554.65250715 -633.62835789 547.87522209 C-633.77857843 520.64898701 -633.92066266 493.42271579 -634.058393 466.19641483 C-634.09129413 459.69595947 -634.12450147 453.19550569 -634.15773487 446.69505203 C-635.19189047 244.22146206 -635.19189047 244.22146206 -635.33028775 137.3826161 C-635.33750701 129.54033525 -635.35203771 121.69809002 -635.36965275 113.85582626 C-635.39018123 104.57444847 -635.39993699 95.29314246 -635.39411342 86.01174206 C-635.39133117 81.44993711 -635.39262281 76.88825681 -635.40683079 72.32647026 C-635.41924519 68.26196271 -635.41770935 64.19771431 -635.40464485 60.1332109 C-635.40234306 58.68736175 -635.4050123 57.24149362 -635.41335309 55.79566669 C-635.49419377 40.74881255 -632.25002614 30.75583492 -621.96630192 19.63899887 C-612.84983658 10.93597867 -600.29857366 0.98272535 -587.49877644 1.00033367 C-586.7081525 0.99749152 -585.91752857 0.99464936 -585.10294633 0.99172109 C-582.42215438 0.98332346 -579.74140538 0.98210166 -577.06060123 0.98078048 C-575.12670663 0.97621533 -573.19281301 0.97121445 -571.25892055 0.9658137 C-565.90791726 0.95216068 -560.55692037 0.94478629 -555.20590416 0.93838552 C-549.41834121 0.93039456 -543.63079141 0.91670395 -537.84323788 0.90372932 C-526.40147931 0.87900098 -514.95971736 0.85967768 -503.51794595 0.84201902 C-494.08108836 0.82734319 -484.64423743 0.81025565 -475.20738697 0.79156196 C-474.53192201 0.79022606 -473.85645705 0.78889016 -473.16052345 0.78751378 C-470.41300819 0.78207542 -467.66549295 0.77662596 -464.91797774 0.77116127 C-431.93436785 0.70560352 -398.95074313 0.65068217 -365.96711003 0.5983094 C-355.36042287 0.58146421 -344.75373624 0.5643068 -334.1470499 0.54695022 C-280.3171549 0.45891467 -226.48725701 0.37296765 -172.65734323 0.29716955 C-160.64975934 0.28025196 -148.64217559 0.26323386 -136.63459192 0.24616571 C-135.15145373 0.24405822 -133.66831554 0.24195246 -132.18517734 0.23984842 C-88.12340701 0.17733673 -44.06170787 0.09824642 0 0 Z " fill="#FD9600" transform="translate(686.0288019180298,51.86100113391876)"/>
<path d="M0 0 C15.39041771 5.30513501 27.42155142 21.74080869 36 35 C36.37479492 35.5789502 36.74958984 36.15790039 37.13574219 36.75439453 C61.56443299 75.38104905 66.5816362 120.41519282 59.75 164.8125 C59.64776123 165.4821579 59.54552246 166.1518158 59.44018555 166.84176636 C57.4251881 179.69055582 54.17422207 192.0552533 49 204 C37.81371844 191.22312829 31.72443413 173.29595948 25.95507812 157.58349609 C25.12650215 155.3421896 24.26749397 153.1172276 23.390625 150.89453125 C14.83709882 128.69999518 10.33736244 104.59513566 6.55908203 81.19775391 C6.09139345 78.52273861 5.55928297 75.8779419 5.00390625 73.22045898 C4.01811657 68.32752662 3.4030834 63.46196423 2.9296875 58.49609375 C2.84355194 57.62222015 2.75741638 56.74834656 2.66867065 55.84799194 C2.39653053 53.04515683 2.13451195 50.24153087 1.875 47.4375 C1.78528931 46.48467133 1.69557861 45.53184265 1.60314941 44.55014038 C0.21606199 29.65462037 -0.53189348 14.9668916 0 0 Z " fill="#EB8D02" transform="translate(221,211)"/>
<path d="M0 0 C11.570625 -0.12375 11.570625 -0.12375 23.375 -0.25 C26.99734619 -0.30462402 26.99734619 -0.30462402 30.69287109 -0.36035156 C32.63638423 -0.372049 34.57990726 -0.38223832 36.5234375 -0.390625 C37.50868408 -0.41108887 38.49393066 -0.43155273 39.5090332 -0.45263672 C47.5860582 -0.45664815 53.84498161 1.59932271 60.8125 5.625 C66.15934883 11.43015016 68.32562573 17.24047059 68.5625 25.125 C68.27865587 32.011955 67.11328998 36.70965087 62.3515625 41.7421875 C59.11675316 44.69448074 56.15474491 46.53361944 52 48 C51.505 48.99 51.505 48.99 51 50 C51.5775 50.2475 52.155 50.495 52.75 50.75 C63.06540593 56.48078107 65.57735373 71.30381089 68.8125 81.6875 C69.22267649 82.98652747 69.63348043 84.285357 70.04492188 85.58398438 C71.03608485 88.72072367 72.01891315 91.86009458 73 95 C66.4 95 59.8 95 53 95 C52.25234375 92.74800781 51.5046875 90.49601563 50.734375 88.17578125 C49.99874587 85.98393287 49.25955719 83.79331547 48.52001953 81.6027832 C48.01010299 80.08612908 47.50386445 78.56823298 47.00146484 77.04907227 C46.27637483 74.85872608 45.53793472 72.6732684 44.796875 70.48828125 C44.57690857 69.81412674 44.35694214 69.13997223 44.13031006 68.44538879 C42.03006087 62.33078613 39.8219885 58.91099425 34 56 C29.05 55.67 24.1 55.34 19 55 C19 68.2 19 81.4 19 95 C12.73 95 6.46 95 0 95 C0 63.65 0 32.3 0 0 Z " fill="#FCFCFC" transform="translate(411,878)"/>
<path d="M0 0 C8.25 0 16.5 0 25 0 C29.29880781 12.24676438 33.58634165 24.49742323 37.86523438 36.75115967 C39.05271087 40.15091152 40.24120679 43.55030612 41.4296875 46.94970703 C43.50855586 52.89803561 45.58189956 58.84826829 47.6519165 64.79968262 C48.46778718 67.14294431 49.28529439 69.48563683 50.10443115 71.82775879 C51.25889653 75.12976042 52.40748823 78.43374938 53.5546875 81.73828125 C53.90402344 82.73340225 54.25335938 83.72852325 54.61328125 84.75379944 C54.92894043 85.66689377 55.24459961 86.5799881 55.56982422 87.52075195 C55.84736542 88.31721634 56.12490662 89.11368073 56.41085815 89.9342804 C57 92 57 92 57 95 C50.4 95 43.8 95 37 95 C36.01 91.926875 35.02 88.85375 34 85.6875 C33.68675781 84.72287842 33.37351562 83.75825684 33.05078125 82.7644043 C32.80714844 82.00039307 32.56351562 81.23638184 32.3125 80.44921875 C32.06113281 79.66893311 31.80976563 78.88864746 31.55078125 78.0847168 C31 76 31 76 31 73 C18.79 73.33 6.58 73.66 -6 74 C-8.31 80.93 -10.62 87.86 -13 95 C-19.27 95 -25.54 95 -32 95 C-30.87497512 87.12482585 -30.87497512 87.12482585 -29.42456055 82.97143555 C-29.10259705 82.03950882 -28.78063354 81.10758209 -28.44891357 80.14741516 C-28.09838928 79.15388535 -27.74786499 78.16035553 -27.38671875 77.13671875 C-27.02064514 76.08312668 -26.65457153 75.02953461 -26.27740479 73.9440155 C-25.08696435 70.52298095 -23.88742708 67.10521739 -22.6875 63.6875 C-21.86808812 61.33952392 -21.04916127 58.99137852 -20.23071289 56.64306641 C-18.20351658 50.83236745 -16.16842733 45.02447513 -14.12963867 39.21783447 C-13.0819306 36.23338356 -12.03574055 33.24840645 -10.99023438 30.26318359 C-9.30963648 25.4658365 -7.62540722 20.66978013 -5.9375 15.875 C-5.56109879 14.80528458 -5.56109879 14.80528458 -5.17709351 13.71395874 C-4.48297975 11.74361872 -3.78687801 9.77399596 -3.08984375 7.8046875 C-2.70691162 6.72171387 -2.32397949 5.63874023 -1.92944336 4.52294922 C-1 2 -1 2 0 0 Z " fill="#FBFBFB" transform="translate(184,878)"/>
<path d="M0 0 C6.27 0 12.54 0 19 0 C19.0093457 1.95744141 19.01869141 3.91488281 19.02832031 5.93164062 C19.06393834 12.4217894 19.11779363 18.91158977 19.18390274 25.40149689 C19.22329857 29.33376152 19.25552535 33.26580487 19.27099609 37.19824219 C19.28621529 40.99811155 19.32075237 44.79737225 19.36830902 48.5969696 C19.38306897 50.04166859 19.39103791 51.4864545 19.39188385 52.93122864 C19.4021792 61.70318388 19.47312119 69.06158675 25.71875 75.875 C31.63488284 79.61150495 37.13675322 79.84868105 44 79 C48.89880612 77.88663497 52.94374981 76.11418295 56 72 C57.73649688 67.64045851 58.26508793 63.93735004 58.31884766 59.26025391 C58.33391609 58.29333618 58.33391609 58.29333618 58.34928894 57.30688477 C58.37994044 55.19678562 58.39710505 53.08681226 58.4140625 50.9765625 C58.43278874 49.50539074 58.45236322 48.03422955 58.4727478 46.56307983 C58.52392149 42.70642349 58.56362578 38.84973239 58.60089111 34.99291992 C58.64102376 31.05118311 58.69207369 27.10958907 58.7421875 23.16796875 C58.83877187 15.44540335 58.92222204 7.7227819 59 0 C65.27 0 71.54 0 78 0 C78.09082205 8.65883431 78.1640138 17.31734578 78.20724869 25.97655106 C78.2280124 29.99854661 78.25612099 34.02019586 78.30175781 38.04199219 C78.34562106 41.93239433 78.36922115 45.82246604 78.37950897 49.71309662 C78.38682855 51.18808942 78.40111924 52.66306672 78.42292023 54.13791656 C78.58731105 65.7334989 77.48498411 76.96895866 69.828125 86.25 C61.00349914 94.6975051 50.8492229 96.35281714 39.125 96.3125 C38.19558594 96.32861328 37.26617188 96.34472656 36.30859375 96.36132812 C26.12940218 96.36842658 16.6754688 93.96967857 9 87 C0.33264566 76.21311796 -0.44456769 63.79313895 -0.29296875 50.48828125 C-0.28735947 49.02427103 -0.28309568 47.5602551 -0.28010559 46.09623718 C-0.26876143 42.28052671 -0.23938706 38.46516986 -0.20599365 34.64959717 C-0.17506503 30.74105612 -0.16155203 26.8324568 -0.14648438 22.92382812 C-0.1145048 15.28237374 -0.06182523 7.64128188 0 0 Z " fill="#FAFAFA" transform="translate(499,878)"/>
<path d="M0 0 C1.00748291 0.01208496 2.01496582 0.02416992 3.05297852 0.03662109 C14.53995582 0.34175693 23.96099392 2.59077999 32.6875 10.5 C32.10577275 14.4520518 30.13592259 16.72095053 27.625 19.75 C26.89152344 20.64203125 26.15804687 21.5340625 25.40234375 22.453125 C24.83644531 23.12859375 24.27054688 23.8040625 23.6875 24.5 C21.60731512 23.49964143 19.64341949 22.47130854 17.70703125 21.2109375 C12.14538424 17.84441843 7.31684968 16.99380252 0.9375 16.9375 C-0.14374146 16.91598877 -0.14374146 16.91598877 -1.24682617 16.89404297 C-6.3525787 16.989632 -9.49461743 18.11288316 -13.3125 21.5 C-14.21070005 23.65324482 -14.21070005 23.65324482 -14 25.9375 C-14.00386719 26.67871094 -14.00773438 27.41992188 -14.01171875 28.18359375 C-12.96438671 31.65324683 -11.34202213 33.63090769 -8.3125 35.5 C-4.32159831 36.84959299 -0.25158481 37.67227687 3.875 38.5 C14.22040827 40.61205961 24.7367756 42.91381104 31.6875 51.5 C36.84131682 59.42355512 37.40941273 66.17614119 36.6875 75.5 C34.93516023 82.35915854 30.75294041 88.89811813 24.734375 92.75 C22.73964173 93.78543406 20.78296404 94.68723729 18.6875 95.5 C17.84445312 95.85707031 17.00140625 96.21414063 16.1328125 96.58203125 C4.47361816 99.68850593 -11.60755798 99.19376387 -22.3125 93.5 C-27.81923014 90.24987396 -32.71495244 86.89632134 -36.3125 81.5 C-34.74882643 77.97761953 -32.61754111 75.22876006 -30.1875 72.25 C-29.46304688 71.35796875 -28.73859375 70.4659375 -27.9921875 69.546875 C-27.43789063 68.87140625 -26.88359375 68.1959375 -26.3125 67.5 C-22.93722034 68.96388534 -20.74363099 70.87610684 -18.125 73.4375 C-11.04234702 79.79343126 -4.46435127 81.04458774 4.94140625 80.79296875 C8.41997597 80.42185534 10.8353877 79.52650085 13.6875 77.5 C16.51833128 73.25375308 16.32685151 69.48366304 15.6875 64.5 C12.73124691 59.69608873 6.76704178 58.25257117 1.49462891 56.96411133 C-0.75048523 56.50045184 -2.99936725 56.0610166 -5.25 55.625 C-14.65511209 53.65916559 -21.83271336 50.93269644 -28.3125 43.5 C-28.869375 42.88125 -29.42625 42.2625 -30 41.625 C-33.93366435 35.2562101 -34.2025046 27.77764175 -33.3125 20.5 C-31.12648377 13.54183228 -27.41624863 8.44393868 -21.3125 4.5 C-14.23053555 0.85186068 -7.90188302 -0.15225208 0 0 Z " fill="#FBFBFB" transform="translate(672.3125,876.5)"/>
<path d="M0 0 C1.05574219 -0.020625 2.11148438 -0.04125 3.19921875 -0.0625 C14.10089786 -0.11653558 23.31608703 2.57782616 31.39453125 10.140625 C35.1588817 14.1579766 36.74677051 16.65955276 37.375 22.25 C35.2532637 23.58878572 33.12794812 24.92115476 31 26.25 C30.39671875 26.6315625 29.7934375 27.013125 29.171875 27.40625 C24.6015625 30.25 24.6015625 30.25 22.375 30.25 C21.44727995 28.86728349 20.58262643 27.44197873 19.75 26 C16.6010061 21.22765841 14.02345638 18.56420171 8.375 17.25 C1.1490656 16.49812293 -6.57338458 15.91518399 -12.98046875 19.8515625 C-18.58393191 24.61650267 -22.22991801 30.48261871 -22.84423828 37.89550781 C-22.96714858 41.07883312 -22.99624115 44.25187154 -23 47.4375 C-23.02449219 48.51064453 -23.04898438 49.58378906 -23.07421875 50.68945312 C-23.10575272 59.37706171 -21.78484285 67.36096264 -16.1875 74.25 C-8.8388925 79.98549854 -2.82558213 80.95087537 6.375 80.25 C11.97082621 79.05358598 15.80397289 76.81297909 19.375 72.25 C20.8808651 69.31232874 22.17597792 66.32458736 23.375 63.25 C27.51798667 63.84834725 30.55694377 65.25664285 34.1875 67.3125 C35.16332031 67.86035156 36.13914062 68.40820312 37.14453125 68.97265625 C37.88058594 69.39417969 38.61664062 69.81570313 39.375 70.25 C36.88139561 79.69944822 32.37573546 86.48947047 24.375 92.25 C12.97807234 98.78777245 -1.94465957 99.52146935 -14.6796875 96.44921875 C-25.07935338 92.82055835 -33.18351198 85.62338815 -38.375 75.93359375 C-45.49690508 60.64375378 -46.39187668 42.18078779 -40.88671875 26.12890625 C-38.95203492 21.71447286 -36.69232154 17.96346433 -33.625 14.25 C-33.12355469 13.62609375 -32.62210938 13.0021875 -32.10546875 12.359375 C-23.49633963 2.72385336 -12.3224097 0.05888846 0 0 Z " fill="#FBFBFB" transform="translate(887.625,876.75)"/>
<path d="M0 0 C24.75 0 49.5 0 75 0 C75 5.28 75 10.56 75 16 C65.76 16 56.52 16 47 16 C47 42.07 47 68.14 47 95 C40.73 95 34.46 95 28 95 C28 68.93 28 42.86 28 16 C18.76 16 9.52 16 0 16 C0 10.72 0 5.44 0 0 Z " fill="#FAFAFA" transform="translate(716,878)"/>
<path d="M0 0 C24.75 0 49.5 0 75 0 C75 5.28 75 10.56 75 16 C65.76 16 56.52 16 47 16 C47 42.07 47 68.14 47 95 C40.73 95 34.46 95 28 95 C28 68.93 28 42.86 28 16 C18.76 16 9.52 16 0 16 C0 10.72 0 5.44 0 0 Z " fill="#FAFAFA" transform="translate(322,878)"/>
<path d="M0 0 C6.27 0 12.54 0 19 0 C19 26.07 19 52.14 19 79 C33.19 79 47.38 79 62 79 C62 84.28 62 89.56 62 95 C41.54 95 21.08 95 0 95 C0 63.65 0 32.3 0 0 Z " fill="#FCFCFC" transform="translate(255,878)"/>
<path d="M0 0 C6.27 0 12.54 0 19 0 C19 31.35 19 62.7 19 95 C12.73 95 6.46 95 0 95 C0 63.65 0 32.3 0 0 Z " fill="#FBFBFB" transform="translate(805,878)"/>
<path d="M0 0 C6.27 0 12.54 0 19 0 C19 31.35 19 62.7 19 95 C12.73 95 6.46 95 0 95 C0 63.65 0 32.3 0 0 Z " fill="#FDFDFD" transform="translate(601,878)"/>
<path d="M0 0 C21.45 0 42.9 0 65 0 C65 19.47 65 38.94 65 59 C62.20476191 56.20476191 60.0915166 53.91604397 57.86328125 50.76953125 C57.29077637 49.9707959 56.71827148 49.17206055 56.12841797 48.34912109 C55.52916504 47.51203613 54.92991211 46.67495117 54.3125 45.8125 C40.39618062 26.71567916 22.636412 13.15329444 0 6 C0 4.02 0 2.04 0 0 Z " fill="#F0F0F0" transform="translate(1015,0)"/>
<path d="M0 0 C1.98 0 3.96 0 6 0 C6 21.45 6 42.9 6 65 C-15.12 65 -36.24 65 -58 65 C-54.50491608 61.50491608 -51.25779966 59.13685641 -47.0625 56.6875 C-46.40515869 56.29723633 -45.74781738 55.90697266 -45.07055664 55.50488281 C-40.7531464 52.96248284 -36.37277289 50.57979277 -31.9375 48.25 C-13.27719579 38.23715384 -6.38635222 19.11376338 0 0 Z " fill="#EEEEEE" transform="translate(1074,1015)"/>
<path d="M0 0 C4.50446841 4.50446841 4.50446841 4.50446841 6.21875 7.57421875 C6.59128906 8.23728027 6.96382813 8.9003418 7.34765625 9.58349609 C7.72792969 10.27781738 8.10820312 10.97213867 8.5 11.6875 C9.10134766 12.76378662 9.10134766 12.76378662 9.71484375 13.86181641 C11.70604792 17.46801774 13.50844878 21.02873134 15 24.875 C22.33385268 41.94405536 43.51640221 50.11414454 59 58 C59 59.98 59 61.96 59 64 C39.53 64 20.06 64 0 64 C0 42.88 0 21.76 0 0 Z " fill="#EEEEEE" transform="translate(0,1016)"/>
<path d="M0 0 C19.47 0 38.94 0 59 0 C55.31338153 3.68661847 51.74168501 6.82807655 47.625 9.9375 C31.27068983 22.57234788 16.88315391 37.26325393 4.7434082 53.97216797 C3.5149599 55.66234984 2.2601644 57.33333096 1 59 C0.67 59 0.34 59 0 59 C0 39.53 0 20.06 0 0 Z " fill="#F0F0F0" transform="translate(0,0)"/>
<path d="M0 0 C3.691875 -0.061875 7.38375 -0.12375 11.1875 -0.1875 C12.3427417 -0.21481201 13.4979834 -0.24212402 14.68823242 -0.27026367 C15.60967041 -0.27775635 16.5311084 -0.28524902 17.48046875 -0.29296875 C18.41785889 -0.3086792 19.35524902 -0.32438965 20.32104492 -0.34057617 C23.55132884 0.07009056 25.38194126 1.09147435 28 3 C30.89550431 7.39317896 31.55878366 10.78468583 31 16 C29.2502302 20.78884367 27.53560049 22.76442607 23 25 C20.32104492 25.34057617 20.32104492 25.34057617 17.48046875 25.29296875 C16.55903076 25.28547607 15.63759277 25.2779834 14.68823242 25.27026367 C13.53299072 25.24295166 12.37774902 25.21563965 11.1875 25.1875 C7.495625 25.125625 3.80375 25.06375 0 25 C0 16.75 0 8.5 0 0 Z " fill="#252525" transform="translate(430,893)"/>
<path d="M0 0 C0.99 0.33 1.98 0.66 3 1 C3.91967773 2.94262695 3.91967773 2.94262695 4.68359375 5.48828125 C4.96968506 6.41737305 5.25577637 7.34646484 5.55053711 8.30371094 C5.84323486 9.29661133 6.13593262 10.28951172 6.4375 11.3125 C7.0514243 13.32441997 7.66600313 15.33614033 8.28125 17.34765625 C8.72210938 18.80776123 8.72210938 18.80776123 9.171875 20.29736328 C10.47495739 24.55005257 11.91913753 28.7491346 13.37109375 32.953125 C14 35 14 35 14 37 C5.75 37 -2.5 37 -11 37 C-10.27535612 31.20284897 -9.58937556 27.19012817 -7.71484375 21.875 C-7.49429825 21.24263428 -7.27375275 20.61026855 -7.04652405 19.95874023 C-6.35095413 17.969787 -5.64446983 15.98492587 -4.9375 14 C-4.45955402 12.63958002 -3.98233408 11.27890473 -3.50585938 9.91796875 C-2.34560239 6.60899147 -1.1755343 3.30358543 0 0 Z " fill="#292929" transform="translate(195,898)"/>
</svg>
