<?xml version="1.0" encoding="UTF-8"?>
<svg version="1.1" xmlns="http://www.w3.org/2000/svg" width="1080" height="1080">
<path d="M0 0 C356.4 0 712.8 0 1080 0 C1080 356.4 1080 712.8 1080 1080 C723.6 1080 367.2 1080 0 1080 C0 723.6 0 367.2 0 0 Z " fill="#242324" transform="translate(0,0)"/>
<path d="M0 0 C41.90359388 -0.08756877 83.80717127 -0.15797413 125.71083355 -0.20309544 C130.05102737 -0.20783338 134.39122111 -0.21264044 138.73141479 -0.21749878 C139.79733754 -0.21868281 140.86326029 -0.21986685 141.96148372 -0.22108676 C159.04273023 -0.24048439 176.12390144 -0.27658755 193.20510483 -0.31890204 C210.24491599 -0.36071176 227.28467365 -0.38415973 244.32453632 -0.38848048 C254.3347919 -0.39154142 264.34479743 -0.40820484 274.35498627 -0.44523984 C281.001788 -0.46844666 287.64844213 -0.47330652 294.29527656 -0.4634285 C298.06256536 -0.45833439 301.82938849 -0.460839 305.59660733 -0.48596013 C326.14615352 -0.61579608 343.9755964 1.08336163 362.72558594 10.12353516 C363.84964844 10.64818359 364.97371094 11.17283203 366.13183594 11.71337891 C373.10214589 15.17498554 377.92221162 18.27005221 381.72558594 25.12353516 C382.18449219 25.93177734 382.64339844 26.74001953 383.11621094 27.57275391 C388.30987688 37.3183397 389.01688554 45.80771584 388.9728241 56.71034241 C388.97441605 58.09374975 388.97688358 59.4771563 388.9801448 60.86056072 C388.98655205 64.65912748 388.98049774 68.45758727 388.97238255 72.256147 C388.96576414 76.37827534 388.97072056 80.5003924 388.97418976 84.62252235 C388.97920359 92.7659842 388.97345058 100.90940574 388.96428286 109.05286258 C388.95384736 118.72782869 388.95456023 128.40278547 388.95553408 138.077756 C388.95698553 156.83365947 388.94655218 175.5895422 388.93088333 194.34543837 C388.91730331 210.62044922 388.90812394 226.89545556 388.90283203 243.17047119 C388.87269741 332.97405971 388.77410263 422.77737841 388.49511719 512.58056641 C388.48820159 514.8216036 388.48128692 517.0626408 388.47437976 519.30367802 C388.28196173 580.91053075 387.99199277 642.51695605 387.72558594 704.12353516 C229.32558594 704.12353516 70.92558594 704.12353516 -92.27441406 704.12353516 C-92.27441406 697.98300448 -92.27302635 692.85787491 -91.43457031 686.94384766 C-91.17063477 685.05666016 -91.17063477 685.05666016 -90.90136719 683.13134766 C-90.62196289 681.20935547 -90.62196289 681.20935547 -90.33691406 679.24853516 C-90.15451172 677.94400391 -89.97210937 676.63947266 -89.78417969 675.29541016 C-88.31084321 664.90169098 -88.31084321 664.90169098 -87.27441406 661.12353516 C-63.48656937 663.97018482 -39.10290691 667.63000378 -16.33691406 675.24853516 C22.75291973 688.31926426 69.85031637 688.95369947 107.39355469 670.96337891 C118.45335022 665.45794226 118.45335022 665.45794226 125.47558594 655.74853516 C125.88292969 654.83330078 126.29027344 653.91806641 126.70996094 652.97509766 C132.61689565 636.39024249 130.54787743 609.45126566 124.72558594 593.12353516 C124.5112793 592.5010791 124.29697266 591.87862305 124.07617188 591.23730469 C115.56429872 566.84775256 99.77855211 547.16373504 83.16552734 527.80615234 C81.64084567 526.02451347 80.12603088 524.23480105 78.61230469 522.44384766 C71.77376909 514.36864596 71.77376909 514.36864596 64.39257812 506.79321289 C62.76037655 505.15838181 61.29137222 503.45968694 59.80761719 501.68994141 C56.63109145 498.03016799 53.24031875 494.63229413 49.75683594 491.26806641 C49.22790237 490.75411316 48.69896881 490.24015991 48.15400696 489.71063232 C45.95058232 487.57017569 43.74662101 485.4310483 41.51953125 483.31518555 C39.87648007 481.75058935 38.25304091 480.16774652 36.63183594 478.58056641 C36.12366333 478.10649857 35.61549072 477.63243073 35.09191895 477.14399719 C33.70410156 475.76733398 33.70410156 475.76733398 31.72558594 473.12353516 C31.98630837 467.22260707 35.80917142 462.10143417 38.72558594 457.12353516 C39.15742187 456.37845703 39.58925781 455.63337891 40.03417969 454.86572266 C48.04394924 441.98354136 60.16321278 431.57913559 70.89550781 420.98999023 C76.06277697 415.8717021 81.04992716 410.69552909 85.72558594 405.12353516 C86.45201294 404.26489868 86.45201294 404.26489868 87.19311523 403.38891602 C110.31689394 375.77006249 130.27160033 342.63926015 129.93139648 305.61889648 C129.91308626 303.56107171 129.91088797 301.50369885 129.91113281 299.44580078 C130.2237235 283.09075906 130.2237235 283.09075906 122.72558594 269.12353516 C108.08735957 258.53811735 89.50350529 252.35405672 71.72558594 250.12353516 C71.07589844 250.03668457 70.42621094 249.94983398 69.75683594 249.86035156 C61.23371966 248.84941124 52.67100003 248.87988688 44.10058594 248.87353516 C43.28089325 248.87286041 42.46120056 248.87218567 41.6166687 248.87149048 C10.51022719 248.91201388 -17.77367434 255.69377596 -47.27441406 265.12353516 C-50.06724281 266.00817098 -52.86077175 266.89055645 -55.65454102 267.7722168 C-57.26710355 268.28206997 -58.87897216 268.79412543 -60.48999023 269.30883789 C-69.73768318 272.25638918 -69.73768318 272.25638918 -74.38378906 272.22119141 C-75.13789062 272.21796875 -75.89199219 272.21474609 -76.66894531 272.21142578 C-77.44625 272.20304687 -78.22355469 272.19466797 -79.02441406 272.18603516 C-79.8171875 272.18152344 -80.60996094 272.17701172 -81.42675781 272.17236328 C-83.37600915 272.1606208 -85.32522144 272.14268661 -87.27441406 272.12353516 C-91.46605343 260.38694493 -94.04641897 248.20128935 -96.77441406 236.06103516 C-98.73771415 227.34967907 -100.84029108 218.7176589 -103.27441406 210.12353516 C-103.48146973 209.37426758 -103.68852539 208.625 -103.90185547 207.85302734 C-113.52416294 173.20155605 -131.12914953 145.84206029 -154.09692383 118.44995117 C-156.85609096 115.14352983 -159.52814796 111.84095574 -161.96972656 108.29150391 C-166.38452279 101.89931975 -170.03483249 97.45947223 -177.82128906 95.57275391 C-199.39198738 92.76661103 -217.17252306 97.70648471 -234.39941406 110.87353516 C-270.7802483 141.52886105 -285.46742517 188.92429425 -297.22216797 233.52075195 C-299.00965306 240.28949029 -301.07084035 246.94370184 -303.22314453 253.60424805 C-305.18405316 259.71414434 -306.85028051 265.86484297 -308.27441406 272.12353516 C-325.95811127 270.14835216 -342.36858736 266.31957793 -359.34326172 261.03320312 C-402.04719927 247.78025699 -457.44946331 239.82320501 -499.27441406 259.12353516 C-500.58752774 259.64739944 -501.90134584 260.16950104 -503.21582031 260.68994141 C-513.7700649 265.1882799 -518.20368755 271.65123671 -522.49072266 282.13769531 C-522.74934082 282.79302246 -523.00795898 283.44834961 -523.27441406 284.12353516 C-523.67273438 285.09677734 -524.07105469 286.07001953 -524.48144531 287.07275391 C-531.28952809 307.3726537 -522.33791729 327.71817701 -513.57128906 345.80322266 C-499.40466446 374.12202105 -480.2106781 399.2861553 -458.74707031 422.43212891 C-456.76786139 424.58643372 -454.85215149 426.76720225 -452.96191406 428.99853516 C-449.02062092 433.56012868 -444.69042818 437.73530221 -440.40600586 441.97045898 C-436.66932615 445.67905467 -433.13877703 449.4801095 -429.73925781 453.50244141 C-427.47119359 456.01243248 -424.93787112 458.04473941 -422.27441406 460.12353516 C-424.38227393 474.53169123 -435.55968242 485.15523444 -446.36425781 493.76025391 C-451.55413172 497.9748495 -456.4325158 502.51875524 -461.27441406 507.12353516 C-461.84095703 507.66139648 -462.4075 508.19925781 -462.99121094 508.75341797 C-471.0289422 516.44033113 -478.29825561 524.4073442 -484.93896484 533.33056641 C-486.3072428 535.16761088 -487.69426935 536.98942447 -489.08300781 538.81103516 C-504.56352362 559.29373112 -516.75773481 582.20039767 -523.27441406 607.12353516 C-523.4494043 607.79271973 -523.62439453 608.4619043 -523.8046875 609.15136719 C-527.69574388 624.49599842 -526.65082644 639.53877409 -518.95800781 653.67822266 C-508.75364087 668.49941455 -496.28192551 675.51916114 -479.14941406 679.87353516 C-478.32691162 680.08421631 -477.50440918 680.29489746 -476.65698242 680.51196289 C-434.01134719 690.87306527 -388.06168477 677.85683137 -346.96191406 666.93603516 C-345.22167969 666.47390625 -345.22167969 666.47390625 -343.44628906 666.00244141 C-341.42543484 665.44247564 -339.41325372 664.84942264 -337.41503906 664.21337891 C-325.15350433 660.40379803 -315.14905577 661.82865961 -303.27441406 666.12353516 C-302.55754242 670.73096075 -301.84561395 675.33911336 -301.13818359 679.94799805 C-300.89701664 681.5146121 -300.65451855 683.08102186 -300.41064453 684.6472168 C-300.05961533 686.90311669 -299.71343643 689.15971664 -299.36816406 691.41650391 C-299.25879517 692.1125322 -299.14942627 692.80856049 -299.03674316 693.52568054 C-298.48761118 697.14787996 -298.27441406 700.43185622 -298.27441406 704.12353516 C-392.65441406 704.12353516 -487.03441406 704.12353516 -584.27441406 704.12353516 C-585.42585434 617.76551425 -585.42585434 617.76551425 -585.54489398 588.10916924 C-585.56416641 583.5214721 -585.58760843 578.93379543 -585.61048889 574.34611511 C-585.64897018 566.5408812 -585.68546153 558.73564065 -585.72024536 550.9303894 C-585.80924272 530.97363651 -585.90676499 511.0169239 -586.00483441 491.0602138 C-586.02050134 487.86313662 -586.03602642 484.66605878 -586.05152702 481.46898079 C-586.1771593 455.63693043 -586.32857276 429.80538007 -586.54159689 403.97389865 C-587.15020212 330.07496102 -587.42666943 256.17609443 -587.4974184 182.27475071 C-587.49809321 181.57260204 -587.49876803 180.87045337 -587.49946329 180.14702747 C-587.5001372 179.44500763 -587.5008111 178.74298779 -587.50150543 178.01969463 C-587.50217977 177.31787524 -587.5028541 176.61605586 -587.50354887 175.89296923 C-587.5049055 174.47652247 -587.50625025 173.0600757 -587.50758307 171.64362892 C-587.51768053 161.07635588 -587.5357651 150.50911763 -587.55813599 139.94186401 C-587.58362624 127.86810496 -587.59777078 115.79440232 -587.59825271 103.72061074 C-587.59874125 97.46645753 -587.60406518 91.21240442 -587.622015 84.95827484 C-587.63843272 79.16053256 -587.64072647 73.36295827 -587.63199508 67.56520092 C-587.63124958 65.45650687 -587.63558435 63.34780365 -587.64549839 61.23913276 C-587.65823516 58.36292994 -587.65233202 55.48732887 -587.64190674 52.61112976 C-587.64996297 51.7899986 -587.65801919 50.96886744 -587.66631955 50.12285352 C-587.5618975 37.75885596 -582.47830718 28.55961076 -574.21191406 19.62353516 C-565.47830989 11.28601281 -552.81668896 1.01072417 -540.53604794 0.98486996 C-539.83090244 0.98202781 -539.12575694 0.97918565 -538.3992434 0.97625738 C-536.00882144 0.96786195 -533.61844769 0.966638 -531.22801208 0.96531677 C-529.50219876 0.96075089 -527.77638653 0.9557499 -526.05057561 0.95034999 C-521.27288935 0.93669403 -516.49521027 0.92932071 -511.71750952 0.92292181 C-506.54346184 0.91492531 -501.36942883 0.90123237 -496.19539165 0.88826561 C-485.94547557 0.86350833 -475.69555568 0.84419143 -465.44562515 0.82655531 C-453.24810196 0.80533942 -441.05059291 0.77847366 -428.85308117 0.75157487 C-399.61834206 0.68745255 -370.38358717 0.63394658 -341.14882314 0.58284569 C-331.51233011 0.56599945 -321.87583769 0.54883725 -312.23934555 0.53148651 C-261.95779649 0.44102472 -211.6762423 0.35415366 -161.39466858 0.27850342 C-159.97675115 0.27636798 -158.55883371 0.27423242 -157.14091628 0.27209675 C-150.0690381 0.2614489 -142.99715988 0.25082773 -135.92528164 0.24021626 C-134.87807822 0.23864485 -134.87807822 0.23864485 -133.80971917 0.23704169 C-130.29003919 0.23176198 -126.7703592 0.22649095 -123.25067918 0.22123468 C-82.16708999 0.15986244 -41.08354678 0.08586946 0 0 Z " fill="#9A25AE" transform="translate(638.2744140625,51.87646484375)"/>
<path d="M0 0 C0.57034973 0.37664291 1.14069946 0.75328583 1.72833252 1.14134216 C5.77611279 3.73493005 9.46225247 5.14447451 14.12011719 6.37451172 C20.68972964 8.48816406 26.73752251 10.91211206 30.90869904 16.6944809 C38.34270851 31.2582569 34.22398523 54.42405146 33.56201172 70.15362549 C33.3152369 76.63441669 33.20662878 83.11741485 33.0859375 89.6015625 C32.82951882 102.29476836 32.42538233 114.97869589 31.9140625 127.6640625 C31.20237915 128.07230759 30.4906958 128.48055267 29.75744629 128.90116882 C16.8896427 136.28817145 4.04406165 143.68720424 -8.5859375 151.4765625 C-52.04485603 178.0824727 -52.04485603 178.0824727 -70.0859375 175.6640625 C-74.60676052 174.29310987 -78.82759648 172.44306359 -83.12060547 170.50195312 C-86.51505564 169.05477884 -90.02400607 167.95222466 -93.5234375 166.7890625 C-101.41382759 164.08767058 -108.69688757 160.56996833 -116.07128906 156.70068359 C-118.14026717 155.63610761 -120.22815411 154.62302494 -122.328125 153.62109375 C-138.94252934 145.66222407 -148.448665 137.22030543 -155.1796875 119.83984375 C-163.42426982 95.94929272 -163.95033126 66.32131718 -159.0859375 41.6640625 C-158.91884277 40.79168945 -158.75174805 39.91931641 -158.57958984 39.02050781 C-155.87296072 25.62739983 -152.64552653 16.60347232 -142.0859375 7.6640625 C-140.81943359 6.49423828 -140.81943359 6.49423828 -139.52734375 5.30078125 C-126.24791333 -6.40209579 -110.0532921 -13.52481839 -93.84716797 -20.18408203 C-91.28196399 -21.25416447 -88.74802623 -22.37617167 -86.21484375 -23.51953125 C-54.0994074 -37.63137932 -27.07970717 -15.99863172 0 0 Z " fill="#9725AA" transform="translate(503.0859375,445.3359375)"/>
<path d="M0 0 C0.67981934 0.47083008 1.35963867 0.94166016 2.06005859 1.42675781 C11.34297961 7.93549764 19.86781087 15.10176057 28 23 C28.62406738 23.59828613 29.24813477 24.19657227 29.89111328 24.81298828 C39.09199688 33.6578522 47.46063783 42.70449005 55 53 C55.46825195 53.62390625 55.93650391 54.2478125 56.41894531 54.890625 C65.44093734 66.92797261 72.90858446 79.74675523 80 93 C80.47969238 93.88059082 80.95938477 94.76118164 81.45361328 95.66845703 C85.39852037 103.15261434 86.17948468 109.63840385 86.1875 118.0625 C86.19974609 118.74376953 86.21199219 119.42503906 86.22460938 120.12695312 C86.23946837 125.2830238 85.69103684 129.65560802 82.625 133.90625 C70.42948871 145.86723223 56.91495985 149.34836433 40.25 149.3125 C35.83149222 149.25322886 31.41670851 149.13660653 27 149 C26.19046875 148.98308105 25.3809375 148.96616211 24.546875 148.94873047 C-11.55554132 148.17765818 -56.27992187 141.12104779 -89 125 C-94.49689623 118.16602091 -95.30225735 112.44157513 -95.265625 103.96875 C-95.26753845 102.98241577 -95.2694519 101.99608154 -95.27142334 100.9798584 C-95.2727839 98.88516994 -95.26909646 96.79047302 -95.26074219 94.69580078 C-95.25022362 91.56652554 -95.26054562 88.43784894 -95.2734375 85.30859375 C-95.29240132 58.90363571 -94.45974841 36.90208881 -75 17 C-72.31048234 14.76676209 -69.48829612 12.75342458 -66.625 10.75 C-65.83424072 10.19006348 -65.04348145 9.63012695 -64.22875977 9.05322266 C-61.82582076 7.35909888 -59.41351431 5.67900996 -57 4 C-56.2879541 3.49758789 -55.5759082 2.99517578 -54.84228516 2.47753906 C-35.77326383 -10.95880077 -19.64369037 -13.77310713 0 0 Z " fill="#9825AC" transform="translate(655,555)"/>
<path d="M0 0 C0.98648529 -0.00960754 1.97297058 -0.01921509 2.98934937 -0.02911377 C4.05070099 -0.03336365 5.11205261 -0.03761353 6.20556641 -0.04199219 C7.87771713 -0.0505423 7.87771713 -0.0505423 9.58364868 -0.05926514 C11.95240331 -0.06871186 14.32117107 -0.07524781 16.68994141 -0.07910156 C20.23186041 -0.08866398 23.77316212 -0.11962904 27.31494141 -0.15136719 C45.97661018 -0.23895608 64.32342223 1.11376224 82.49462891 5.59863281 C83.85769165 5.92275146 83.85769165 5.92275146 85.24829102 6.25341797 C96.22646215 8.89817251 106.96255469 12.12263259 117.68212891 15.66113281 C118.54588135 15.94585449 119.40963379 16.23057617 120.29956055 16.52392578 C122.85273142 17.37945642 125.39442299 18.26078921 127.93212891 19.16113281 C128.85445312 19.48734619 129.77677734 19.81355957 130.72705078 20.1496582 C131.62488281 20.48473389 132.52271484 20.81980957 133.44775391 21.16503906 C134.66640137 21.61472046 134.66640137 21.61472046 135.90966797 22.07348633 C137.93212891 23.16113281 137.93212891 23.16113281 139.93212891 26.59863281 C140.49194336 28.73364258 140.49194336 28.73364258 140.93212891 31.16113281 C141.10510498 32.05952881 141.27808105 32.9579248 141.45629883 33.88354492 C142.9529077 42.69628224 143.29361737 51.37112758 143.24462891 60.28613281 C143.24214142 61.01101898 143.23965393 61.73590515 143.23709106 62.48275757 C143.17639912 73.94092402 142.70417362 85.00365284 139.93212891 96.16113281 C139.66529297 97.36286133 139.66529297 97.36286133 139.39306641 98.58886719 C134.43473302 119.95928408 117.86042325 133.75000917 99.93212891 145.16113281 C95.35665782 148.00550827 90.67650217 150.60735717 85.93212891 153.16113281 C85.02591797 153.70125 84.11970703 154.24136719 83.18603516 154.79785156 C78.18755326 157.64410101 74.41828324 158.90397911 68.67822266 157.91894531 C42.22354426 150.61850775 20.53180913 128.97707284 3.93212891 108.16113281 C3.23732422 107.33355469 2.54251953 106.50597656 1.82666016 105.65332031 C-19.07473099 80.75439534 -37.14342971 53.7516558 -36.06787109 20.16113281 C-36.09623047 19.42378906 -36.12458984 18.68644531 -36.15380859 17.92675781 C-36.11801008 15.22993637 -35.44001458 13.54002501 -33.56005859 11.62597656 C-24.53095746 4.91423028 -11.21911182 0.08896455 0 0 Z " fill="#9825AC" transform="translate(180.06787109375,332.8388671875)"/>
<path d="M0 0 C1.78277344 0.20496094 1.78277344 0.20496094 3.6015625 0.4140625 C15.2132202 2.56612126 20.39304819 8.59816159 27 18 C27.44182617 18.61375488 27.88365234 19.22750977 28.33886719 19.85986328 C57.72132286 60.95367059 75.42953903 111.36499444 74 162 C40.86875344 177.84778933 40.86875344 177.84778933 27.4375 183.375 C26.59687012 183.7248999 25.75624023 184.0747998 24.89013672 184.43530273 C2.80943467 193.3184732 -17.06049938 188.26955729 -38.35546875 179.40234375 C-44.62322775 176.7146607 -50.81941298 173.88157205 -57 171 C-57.96744141 170.55205078 -58.93488281 170.10410156 -59.93164062 169.64257812 C-75.64604756 162.35395244 -75.64604756 162.35395244 -77 161 C-81.45298172 108.38059933 -61.97979311 53.66725178 -29.90234375 12.45703125 C-28.04730905 10.13253064 -28.04730905 10.13253064 -26.75390625 8.07421875 C-21.23683349 -0.07003151 -8.95516011 -1.05769608 0 0 Z " fill="#9825AB" transform="translate(444,179)"/>
<path d="M0 0 C1.61494535 -0.01006766 3.22987842 -0.02239933 4.8447876 -0.03717041 C19.09921767 -0.14901569 35.5292456 0.38081107 46.95254517 10.17221069 C52.35965439 17.56831105 54.04100624 23.73448952 53.30801392 32.90707397 C52.12787899 40.42719202 48.28680461 47.41270656 44.95254517 54.17221069 C44.59450806 54.91293823 44.23647095 55.65366577 43.86758423 56.4168396 C35.8579576 72.84429696 25.03168811 87.23003821 14.15176392 101.84017944 C11.71974052 105.11208869 9.38703242 108.43749303 7.07754517 111.79721069 C1.71482184 119.22162895 -4.88915002 125.642574 -11.2149353 132.23812866 C-13.55441533 134.70726812 -15.80350114 137.24105475 -18.04745483 139.79721069 C-25.61241732 148.21536444 -35.47388399 157.70635827 -46.92245483 159.92221069 C-48.78573608 159.68783569 -48.78573608 159.68783569 -51.04745483 159.17221069 C-52.13413452 158.96080444 -53.22081421 158.74939819 -54.34042358 158.53158569 C-76.4480173 153.49151251 -102.24465111 136.7999036 -114.56698608 117.76205444 C-130.66490566 89.60131387 -128.35146495 55.36792922 -126.04745483 24.17221069 C-92.50400412 11.61899373 -57.08561134 0.90308027 -20.93759155 0.25546265 C-19.72825706 0.23367195 -19.72825706 0.23367195 -18.49449158 0.21144104 C-12.3297486 0.11260926 -6.16544621 0.03806349 0 0 Z " fill="#9825AC" transform="translate(687.0474548339844,331.8277893066406)"/>
<path d="M0 0 C16.46070806 9.6620278 29.65534245 17.92010781 35.15039062 37.10327148 C41.56477052 61.9823469 42.40299711 88.53388221 42.15039062 114.10327148 C35.0643848 117.88542709 27.6892699 120.67309497 20.15039062 123.41577148 C19.48944397 123.65660461 18.82849731 123.89743774 18.14752197 124.14556885 C-14.72110235 136.07598393 -48.39327838 143.53829147 -83.47338867 143.36401367 C-86.04629824 143.35323298 -88.61851672 143.36402143 -91.19140625 143.37670898 C-121.41826167 143.40741412 -121.41826167 143.40741412 -130.84960938 134.10327148 C-138.4867841 124.74728945 -137.52845486 113.27851071 -136.57617188 101.81030273 C-132.09948577 69.84000667 -102.28159472 42.22736316 -82.21484375 18.71118164 C-80.78745537 17.03006936 -79.37271541 15.33884812 -77.95898438 13.64624023 C-52.23131765 -17.01538362 -35.66029755 -20.34257883 0 0 Z " fill="#9825AC" transform="translate(281.849609375,560.896728515625)"/>
<path d="M0 0 C0.68304199 0.18852539 1.36608398 0.37705078 2.06982422 0.57128906 C19.67976329 5.62076228 35.80805542 14.60982074 52 23 C50.16430852 43.19260627 45.66286766 63.0577205 42 83 C-0.9 83 -43.8 83 -88 83 C-93.71847507 69.27565982 -93.71847507 69.27565982 -95.1875 64.875 C-95.64189453 63.54082031 -95.64189453 63.54082031 -96.10546875 62.1796875 C-98.65124772 53.13049938 -99.26120205 44.77294171 -99.125 35.375 C-99.11597656 34.18003906 -99.10695313 32.98507812 -99.09765625 31.75390625 C-99.07431077 28.83572166 -99.04156656 25.91797224 -99 23 C-67.89825606 4.76856304 -36.70778189 -10.2318741 0 0 Z " fill="#9825AC" transform="translate(466,673)"/>
<path d="M0 0 C10.23152841 7.28978462 16.40489203 16.75004185 19 29 C19.40325225 33.30147209 19.42044872 37.55737155 19.375 41.875 C19.38660156 42.96941406 19.39820313 44.06382812 19.41015625 45.19140625 C19.36444556 58.06658519 16.59416118 70.33297926 8.03125 80.2890625 C-2.89663842 90.86060673 -15.64722337 92.4011264 -30.0625 92.2109375 C-40.22895117 91.90274792 -49.14585652 88.22645633 -56.78515625 81.40625 C-60.94060784 76.90008255 -63.53040667 71.5655328 -66 66 C-66.35578125 65.21882812 -66.7115625 64.43765625 -67.078125 63.6328125 C-71.31361975 51.53652663 -71.20760092 32.2508784 -66.2578125 20.46484375 C-65.84273437 19.65144531 -65.42765625 18.83804688 -65 18 C-64.56429687 17.11441406 -64.12859375 16.22882812 -63.6796875 15.31640625 C-58.34939645 5.51507872 -49.95027388 -1.33401207 -39.18041992 -4.54199219 C-26.84478677 -7.13315195 -10.87247905 -6.75387668 0 0 Z " fill="#FBFBFB" transform="translate(246,896)"/>
<path d="M0 0 C1.56234375 -0.01160156 1.56234375 -0.01160156 3.15625 -0.0234375 C11.9010366 -0.00135471 18.68803302 0.48509267 25.5625 6.4375 C26.49449219 7.24445313 27.42648437 8.05140625 28.38671875 8.8828125 C29.24910156 9.66398437 30.11148438 10.44515625 31 11.25 C32.03060547 12.17425781 32.03060547 12.17425781 33.08203125 13.1171875 C41.930589 21.48379766 47.51937075 32.99523808 48.21875 45.234375 C47.33894995 57.36304719 41.37999489 68.58622315 32.35546875 76.59765625 C26.82498373 80.85961044 21.69913644 83.46831478 15 85.25 C14.31421875 85.52585937 13.6284375 85.80171875 12.921875 86.0859375 C4.32837805 89.36108144 -8.34809108 91.00644714 -17.05029297 87.40039062 C-21.28510969 84.94859587 -24.61404307 81.75355891 -28 78.25 C-28.77730469 77.46238281 -29.55460937 76.67476562 -30.35546875 75.86328125 C-32.34256616 73.72705833 -34.17804004 71.52744996 -36 69.25 C-36.5878125 68.58226562 -37.175625 67.91453125 -37.78125 67.2265625 C-38.3278125 66.57429687 -38.874375 65.92203125 -39.4375 65.25 C-39.91058594 64.693125 -40.38367188 64.13625 -40.87109375 63.5625 C-45.4290733 54.22573913 -44.65319752 36.88003596 -42.05859375 27.0546875 C-40.88922595 23.66022173 -39.56246657 20.47997291 -38 17.25 C-37.67386719 16.46367187 -37.34773438 15.67734375 -37.01171875 14.8671875 C-33.65183887 8.04364767 -26.74974883 5.07832058 -20 2.25 C-13.28920781 0.09168345 -7.01757411 -0.0521107 0 0 Z " fill="#252225" transform="translate(441,473.75)"/>
<path d="M0 0 C7.26 0 14.52 0 22 0 C28.54663887 7.66096038 28.54663887 7.66096038 30.3046875 11.5546875 C33.40419772 17.99619479 37.2076096 23.94895818 41 30 C42.36893933 32.22678858 43.73615339 34.45463879 45.1015625 36.68359375 C48.48063529 42.17272449 51.89390222 47.63747398 55.375 53.0625 C55.82101562 53.76439453 56.26703125 54.46628906 56.7265625 55.18945312 C58.82229345 58.65377799 58.82229345 58.65377799 62 61 C62 40.87 62 20.74 62 0 C67.94 0 73.88 0 80 0 C80 31.35 80 62.7 80 95 C60 95 60 95 55.2578125 90.55859375 C53.62011719 87.63500977 53.62011719 87.63500977 52.125 84.4375 C50.92511301 82.22621844 49.72457577 80.01528962 48.5234375 77.8046875 C47.94303711 76.6712793 47.36263672 75.53787109 46.76464844 74.37011719 C44.01131938 69.11182245 40.87745541 64.10393078 37.75 59.0625 C36.60310483 57.17642653 35.45725059 55.28971964 34.3125 53.40234375 C31.18033513 48.27406561 27.99446133 43.182957 24.75 38.125 C24.0688916 37.05390991 24.0688916 37.05390991 23.37402344 35.96118164 C21.23733926 32.41311886 21.23733926 32.41311886 18 30 C18 51.45 18 72.9 18 95 C12.06 95 6.12 95 0 95 C0 63.65 0 32.3 0 0 Z " fill="#FCFCFC" transform="translate(521,892)"/>
<path d="M0 0 C21.12 0 42.24 0 64 0 C64 5.28 64 10.56 64 16 C49.15 16 34.3 16 19 16 C19 23.26 19 30.52 19 38 C31.87 38 44.74 38 58 38 C58 42.95 58 47.9 58 53 C45.13 53 32.26 53 19 53 C19 61.58 19 70.16 19 79 C34.18 79 49.36 79 65 79 C65 84.28 65 89.56 65 95 C43.55 95 22.1 95 0 95 C0 63.65 0 32.3 0 0 Z " fill="#FBFBFB" transform="translate(841,892)"/>
<path d="M0 0 C21.12 0 42.24 0 64 0 C64 5.28 64 10.56 64 16 C49.15 16 34.3 16 19 16 C19 23.26 19 30.52 19 38 C31.87 38 44.74 38 58 38 C58 42.95 58 47.9 58 53 C45.13 53 32.26 53 19 53 C19 61.58 19 70.16 19 79 C34.18 79 49.36 79 65 79 C65 84.28 65 89.56 65 95 C43.55 95 22.1 95 0 95 C0 63.65 0 32.3 0 0 Z " fill="#FBFBFB" transform="translate(439,892)"/>
<path d="M0 0 C1.02416016 -0.00708984 2.04832031 -0.01417969 3.10351562 -0.02148438 C11.21314518 0.04587996 18.40685377 1.43149346 25.3125 5.875 C25.93898438 6.26558594 26.56546875 6.65617188 27.2109375 7.05859375 C28.9375 8.4375 28.9375 8.4375 31.9375 12.4375 C28.9675 16.3975 25.9975 20.3575 22.9375 24.4375 C19.71226806 23.14740722 17.23561257 22.12057101 14.375 20.375 C9.28591423 17.5066062 5.41436173 17.23596345 -0.4375 17.125 C-1.72398437 17.08761719 -3.01046875 17.05023437 -4.3359375 17.01171875 C-8.63682544 17.50311999 -10.73425975 18.7276488 -14.0625 21.4375 C-15.48912219 24.29074437 -15.37283868 26.27204549 -15.0625 29.4375 C-13.55789925 32.37831056 -12.19575482 33.94657585 -9.1328125 35.2734375 C-5.85037978 36.30126997 -2.52585218 37.0888477 0.81884766 37.88574219 C24.36725405 43.51725533 24.36725405 43.51725533 31.9375 52.4375 C36.47608594 59.92936299 37.27055383 67.88810174 35.2421875 76.33203125 C32.7284003 84.05294908 29.25974017 89.92119502 21.9375 93.75 C20.62300461 94.35521558 19.28669644 94.91419035 17.9375 95.4375 C17.08285156 95.79457031 16.22820313 96.15164063 15.34765625 96.51953125 C2.22379456 100.05230043 -13.73790558 98.414345 -25.66796875 92.046875 C-30.37802743 89.12709963 -33.78043526 85.88416836 -37.0625 81.4375 C-35.69065653 77.37251119 -33.84181541 74.76353439 -30.9375 71.625 C-30.21304688 70.83480469 -29.48859375 70.04460937 -28.7421875 69.23046875 C-28.18789063 68.63878906 -27.63359375 68.04710937 -27.0625 67.4375 C-23.26980433 69.18181995 -21.01670004 71.48329996 -18.0625 74.4375 C-10.33504195 80.31708765 -2.54512347 81.29238284 6.9375 80.4375 C11.25135073 78.96285545 11.25135073 78.96285545 14.07421875 75.61328125 C15.03201769 73.1992812 15.17314434 71.46166414 15.125 68.875 C15.11533203 67.72837891 15.11533203 67.72837891 15.10546875 66.55859375 C15.00803505 64.24852284 15.00803505 64.24852284 13.9375 61.4375 C12.17933617 60.48800959 12.17933617 60.48800959 9.9921875 59.89453125 C9.17717773 59.64654785 8.36216797 59.39856445 7.52246094 59.14306641 C4.22952494 58.24425785 0.92111792 57.45407403 -2.40795898 56.70141602 C-13.47367728 54.17982921 -24.5181082 51.45859994 -31.0625 41.4375 C-35.23297851 34.67844863 -34.79310178 27.17180157 -34.0625 19.4375 C-32.43086953 12.85966898 -27.68903067 8.00720224 -22.0625 4.4375 C-14.70133909 0.6259488 -8.20951328 -0.16076747 0 0 Z " fill="#FBFBFB" transform="translate(654.0625,890.5625)"/>
<path d="M0 0 C6.6 0 13.2 0 20 0 C20.9075 2.8875 21.815 5.775 22.75 8.75 C26.63236253 21.02477495 30.72256171 33.22941827 34.82324219 45.43261719 C42 66.81697719 42 66.81697719 42 71 C42.66 71 43.32 71 44 71 C44.21398437 69.8759375 44.42796875 68.751875 44.6484375 67.59375 C46.39784004 59.7382892 49.10938004 52.1357175 51.625 44.5 C52.16487434 42.85082644 52.70425876 41.20149242 53.24316406 39.55200195 C54.05397707 37.07028019 54.8650234 34.58863908 55.6776123 32.10749817 C58.06675068 24.81084042 60.41640634 17.50210534 62.75 10.1875 C63.25200928 8.61548828 63.25200928 8.61548828 63.76416016 7.01171875 C64.51012857 4.67469881 65.2551899 2.33738935 66 0 C72.6 0 79.2 0 86 0 C79.60549189 19.86172975 73.14030236 39.69926773 66.55908203 59.5 C65.85719775 61.61244839 65.15633882 63.72523776 64.45654297 65.83837891 C63.46376573 68.83471803 62.46684065 71.82964595 61.46875 74.82421875 C61.17746216 75.70522751 60.88617432 76.58623627 60.58605957 77.49394226 C58.59487475 83.44603448 56.33999504 89.15001239 54 95 C46.41 95 38.82 95 31 95 C30.07767578 92.215625 30.07767578 92.215625 29.13671875 89.375 C28.32039307 86.91663991 27.50398234 84.45830806 26.6875 82 C26.28337891 80.77925781 25.87925781 79.55851563 25.46289062 78.30078125 C25.06650391 77.10839844 24.67011719 75.91601562 24.26171875 74.6875 C23.90037842 73.59824219 23.53903809 72.50898437 23.16674805 71.38671875 C22.36033688 69.04594961 21.51426805 66.71860362 20.63671875 64.40356445 C18.4468566 58.61011143 16.51532503 52.72823356 14.55078125 46.85546875 C13.92456123 44.98535881 13.92456123 44.98535881 13.28569031 43.07746887 C12.40798176 40.45477851 11.53163653 37.83163672 10.65600586 35.20825195 C9.5336189 31.84661502 8.40565846 28.48687561 7.27644062 25.12752819 C6.19729609 21.91315066 5.12446656 18.69667386 4.05078125 15.48046875 C3.44149529 13.67113106 3.44149529 13.67113106 2.81990051 11.82524109 C2.4491893 10.71010635 2.07847809 9.59497162 1.6965332 8.44604492 C1.36804886 7.46423752 1.03956451 6.48243011 0.7011261 5.47087097 C0 3 0 3 0 0 Z " fill="#FCFCFC" transform="translate(741,892)"/>
<path d="M0 0 C20.13 0 40.26 0 61 0 C61 5.28 61 10.56 61 16 C47.14 16 33.28 16 19 16 C19 24.25 19 32.5 19 41 C31.54 41 44.08 41 57 41 C57 45.95 57 50.9 57 56 C44.46 56 31.92 56 19 56 C19 68.87 19 81.74 19 95 C12.73 95 6.46 95 0 95 C0 63.65 0 32.3 0 0 Z " fill="#FBFBFB" transform="translate(362,892)"/>
<path d="M0 0 C20.13 0 40.26 0 61 0 C61 5.28 61 10.56 61 16 C47.14 16 33.28 16 19 16 C19 24.25 19 32.5 19 41 C31.54 41 44.08 41 57 41 C57 45.95 57 50.9 57 56 C44.46 56 31.92 56 19 56 C19 68.87 19 81.74 19 95 C12.73 95 6.46 95 0 95 C0 63.65 0 32.3 0 0 Z " fill="#FBFBFB" transform="translate(285,892)"/>
<path d="M0 0 C6.24399908 3.60425963 9.96223915 9.1136454 11.9375 16 C12.74605556 20.66982092 12.76348281 25.39676357 12.8125 30.125 C12.82200684 30.88095459 12.83151367 31.63690918 12.84130859 32.41577148 C12.78986424 41.17369626 10.90853819 50.06400315 5.02734375 56.828125 C-1.25398981 62.72313508 -8.42345901 63.56715242 -16.76171875 63.37109375 C-22.61797428 62.69570078 -26.73683632 60.10455976 -30.75 55.875 C-38.16929679 46.47991222 -38.08643618 33.44205952 -37.4375 22.0625 C-35.8585772 12.51930482 -32.42888315 5.81629587 -24.4375 0.0625 C-16.54102642 -3.07189411 -7.86265512 -3.44957638 0 0 Z " fill="#242424" transform="translate(233.4375,908.9375)"/>
<path d="M0 0 C6.27 0 12.54 0 19 0 C19 31.35 19 62.7 19 95 C12.73 95 6.46 95 0 95 C0 63.65 0 32.3 0 0 Z " fill="#FBFBFB" transform="translate(707,892)"/>
<path d="M0 0 C21.45 0 42.9 0 65 0 C65 19.47 65 38.94 65 59 C62.20476191 56.20476191 60.0915166 53.91604397 57.86328125 50.76953125 C57.29077637 49.9707959 56.71827148 49.17206055 56.12841797 48.34912109 C55.52916504 47.51203613 54.92991211 46.67495117 54.3125 45.8125 C40.39618062 26.71567916 22.636412 13.15329444 0 6 C0 4.02 0 2.04 0 0 Z " fill="#F0F0F0" transform="translate(1015,0)"/>
<path d="M0 0 C1.98 0 3.96 0 6 0 C6 21.45 6 42.9 6 65 C-15.12 65 -36.24 65 -58 65 C-54.50491608 61.50491608 -51.25779966 59.13685641 -47.0625 56.6875 C-46.40515869 56.29723633 -45.74781738 55.90697266 -45.07055664 55.50488281 C-40.7531464 52.96248284 -36.37277289 50.57979277 -31.9375 48.25 C-13.27719579 38.23715384 -6.38635222 19.11376338 0 0 Z " fill="#EEEEEE" transform="translate(1074,1015)"/>
<path d="M0 0 C4.50446841 4.50446841 4.50446841 4.50446841 6.21875 7.57421875 C6.59128906 8.23728027 6.96382813 8.9003418 7.34765625 9.58349609 C7.72792969 10.27781738 8.10820312 10.97213867 8.5 11.6875 C9.10134766 12.76378662 9.10134766 12.76378662 9.71484375 13.86181641 C11.70604792 17.46801774 13.50844878 21.02873134 15 24.875 C22.33385268 41.94405536 43.51640221 50.11414454 59 58 C59 59.98 59 61.96 59 64 C39.53 64 20.06 64 0 64 C0 42.88 0 21.76 0 0 Z " fill="#EEEEEE" transform="translate(0,1016)"/>
<path d="M0 0 C19.47 0 38.94 0 59 0 C55.31338153 3.68661847 51.74168501 6.82807655 47.625 9.9375 C31.27068983 22.57234788 16.88315391 37.26325393 4.7434082 53.97216797 C3.5149599 55.66234984 2.2601644 57.33333096 1 59 C0.67 59 0.34 59 0 59 C0 39.53 0 20.06 0 0 Z " fill="#F0F0F0" transform="translate(0,0)"/>
<path d="M0 0 C0.0999677 4.23170951 0.17197673 8.4627671 0.21972656 12.6953125 C0.23966189 14.13065587 0.26682074 15.56591997 0.30175781 17.00097656 C0.7285491 35.00152693 0.7285491 35.00152693 -4 41 C-7.9574045 42.45488441 -10.90834746 41.77225591 -14.89453125 40.671875 C-16.01537109 40.36636719 -17.13621094 40.06085937 -18.29101562 39.74609375 C-19.45310547 39.41738281 -20.61519531 39.08867188 -21.8125 38.75 C-22.96298828 38.43675781 -24.11347656 38.12351562 -25.29882812 37.80078125 C-31.32662866 36.13579566 -37.19043417 34.31525133 -43 32 C-44.00163717 28.03054898 -44.21304441 24.94111473 -43 21 C-39.15330881 17.61402363 -34.87524306 15.44739408 -30.30712891 13.17089844 C-27.04870316 11.51720427 -23.88267595 9.7109735 -20.70263672 7.91235352 C-18.4091011 6.61705644 -16.10819511 5.33679461 -13.80078125 4.06640625 C-12.84425659 3.5396228 -12.84425659 3.5396228 -11.8684082 3.00219727 C-10.94354614 2.50610962 -10.94354614 2.50610962 -10 2 C-9.07803833 1.44107056 -9.07803833 1.44107056 -8.13745117 0.87084961 C-5.35279189 -0.26368833 -2.9763583 -0.13528901 0 0 Z " fill="#872597" transform="translate(529,616)"/>
<path d="M0 0 C0 15.84 0 31.68 0 48 C-25.6 38.4 -25.6 38.4 -27 37 C-28.09450115 28.99787143 -29.28253382 18.87564926 -25.0859375 11.75 C-22.51650588 9.45898977 -19.97030084 7.7323293 -17 6 C-16.21238281 5.39027344 -15.42476563 4.78054688 -14.61328125 4.15234375 C-9.05752364 -0.10416164 -7.9042838 0 0 0 Z " fill="#8A259B" transform="translate(313,492)"/>
<path d="M0 0 C0.71822765 4.30401737 1.43009046 8.60902608 2.13623047 12.91503906 C2.37702209 14.37788856 2.61951067 15.84045983 2.86376953 17.30273438 C3.21579944 19.41204014 3.56159087 21.52229139 3.90625 23.6328125 C4.11572266 24.90012207 4.32519531 26.16743164 4.54101562 27.47314453 C4.96112981 30.7013198 5.08747564 33.7502798 5 37 C-11.81727949 34.5975315 -25.60161815 23.95743055 -37 12 C-36 9 -36 9 -32.90234375 7.24609375 C-31.58573019 6.63238409 -30.26381715 6.02994714 -28.9375 5.4375 C-28.29361328 5.13392578 -27.64972656 4.83035156 -26.98632812 4.51757812 C-17.85394345 0.33835124 -9.97946931 -0.2738269 0 0 Z " fill="#89259A" transform="translate(524,378)"/>
<path d="M0 0 C7.26430619 2.4214354 14.2066578 5.05081731 21.25 8 C22.3121875 8.43828125 23.374375 8.8765625 24.46875 9.328125 C25.49484375 9.75609375 26.5209375 10.1840625 27.578125 10.625 C28.50012695 11.00914062 29.42212891 11.39328125 30.37207031 11.7890625 C33.07215108 13.03324688 35.55541817 14.30428751 38 16 C38.48828125 18.69921875 38.48828125 18.69921875 38.3125 21.6875 C38.26738281 22.68136719 38.22226562 23.67523437 38.17578125 24.69921875 C38.08876953 25.83810547 38.08876953 25.83810547 38 27 C30.79747147 29.47943432 23.52767782 31.5929977 16.1875 33.625 C15.06923828 33.93695312 13.95097656 34.24890625 12.79882812 34.5703125 C8.54077682 35.75551694 4.28820296 36.92794926 0 38 C0 25.46 0 12.92 0 0 Z " fill="#8E25A0" transform="translate(356,621)"/>
<path d="M0 0 C4.51417875 0.90283575 8.59204819 2.19938824 12.875 3.8125 C13.55691406 4.06064453 14.23882813 4.30878906 14.94140625 4.56445312 C26.81606255 9.00896734 26.81606255 9.00896734 29.55859375 13.62109375 C29.84863281 14.55050781 30.13867188 15.47992187 30.4375 16.4375 C30.74558594 17.36433594 31.05367187 18.29117188 31.37109375 19.24609375 C31.98552359 21.93660951 32.12468458 24.25195179 32 27 C31.48203857 27.27150879 30.96407715 27.54301758 30.43041992 27.82275391 C28.01562525 29.08924149 25.60149667 30.35699203 23.1875 31.625 C22.3219751 32.0792334 21.4564502 32.5334668 20.56469727 33.00146484 C14.97733856 35.94009064 9.43077972 38.93456746 3.93359375 42.0390625 C2 43 2 43 0 43 C0 28.81 0 14.62 0 0 Z " fill="#9025A1" transform="translate(572,497)"/>
<path d="M0 0 C26.83713851 3.35464231 26.83713851 3.35464231 34.73046875 12.546875 C35.95755154 14.13683318 35.95755154 14.13683318 38 15 C38 15.66 38 16.32 38 17 C35.93969727 18.61645508 35.93969727 18.61645508 33.06640625 20.51953125 C32.02419922 21.21240234 30.98199219 21.90527344 29.90820312 22.61914062 C29.357854 22.97983643 28.80750488 23.34053223 28.24047852 23.7121582 C26.59594964 24.79056525 24.95901432 25.88052391 23.32226562 26.97070312 C6.64058164 38 6.64058164 38 0 38 C0 25.46 0 12.92 0 0 Z " fill="#8F25A0" transform="translate(356,378)"/>
</svg>
