<?xml version="1.0" encoding="UTF-8"?>
<svg version="1.1" xmlns="http://www.w3.org/2000/svg" width="1080" height="1080">
<path d="M0 0 C356.4 0 712.8 0 1080 0 C1080 356.4 1080 712.8 1080 1080 C723.6 1080 367.2 1080 0 1080 C0 723.6 0 367.2 0 0 Z " fill="#232423" transform="translate(0,0)"/>
<path d="M0 0 C1.91391474 -0.00386755 1.91391474 -0.00386755 3.86649442 -0.00781322 C10.28774257 -0.0208023 16.70899062 -0.0338381 23.13023865 -0.04688084 C70.08768581 -0.14216013 117.0451109 -0.21880726 164.00263309 -0.2655344 C168.70969206 -0.27027864 173.41675096 -0.2750857 178.12380981 -0.27993774 C179.28225348 -0.28112178 180.44069716 -0.28230581 181.63424518 -0.28352573 C200.2698317 -0.30298404 218.90534944 -0.33914473 237.54089676 -0.381341 C256.23659308 -0.42325111 274.93224071 -0.44661032 293.62798417 -0.45091945 C304.71448105 -0.45399882 315.80075381 -0.47088422 326.88719117 -0.5076788 C334.28324476 -0.53083697 341.67916563 -0.53576388 349.07524848 -0.52586747 C353.28606882 -0.52074417 357.49647259 -0.52346902 361.7072314 -0.54839909 C365.54169686 -0.57094065 369.37544245 -0.57011684 373.20992097 -0.55118778 C375.22704286 -0.54709747 377.24417007 -0.56743395 379.26118112 -0.58897191 C391.65954068 -0.4816328 402.14412869 3.4536777 411.90698242 11.06109619 C412.63272461 11.62312744 413.3584668 12.18515869 414.10620117 12.76422119 C422.90834242 20.07629664 430.71677309 28.38826239 433.16988754 39.81697655 C433.33536008 40.58608491 433.50083261 41.35519327 433.67131947 42.14760794 C435.87430774 53.66734534 435.44411882 65.4146797 435.38800049 77.0920105 C435.38751549 79.80929824 435.39308627 82.52656634 435.39835715 85.2438482 C435.40659724 91.12518934 435.4001719 97.00636753 435.38380432 102.88768959 C435.35953504 111.63278818 435.35847301 120.37778535 435.36197228 129.12291148 C435.36721257 143.8378276 435.35392065 158.55267155 435.32990265 173.26756668 C435.30619833 187.82774845 435.29083157 202.38790012 435.28649139 216.94810104 C435.28621644 217.85492087 435.28594148 218.7617407 435.28565819 219.69603991 C435.28430477 224.30170805 435.28309927 228.90737621 435.28195068 233.5130444 C435.27355901 266.09711595 435.24663747 298.68114828 435.20874023 331.26519775 C435.17197642 362.91135454 435.14372243 394.5575005 435.12670898 426.20367432 C435.12562642 428.1952304 435.1245436 430.18678649 435.12346053 432.17834258 C435.11470487 448.36173253 435.10653479 464.54512277 435.0985066 480.72851309 C435.0609895 555.50607795 434.98069927 630.28354043 434.90698242 705.06109619 C333.26698242 705.06109619 231.62698242 705.06109619 126.90698242 705.06109619 C125.76231212 662.70829497 125.76231212 662.70829497 125.67692947 642.30620003 C125.65992597 638.27007867 125.63774402 634.23400983 125.61434937 630.19792175 C125.58041564 624.26551191 125.54858717 618.33309472 125.51828003 612.40066528 C125.43365855 595.93453749 125.33320433 579.46850582 125.22729492 563.00250244 C125.22173073 562.13213325 125.21616653 561.26176405 125.21043372 560.36502004 C125.02046182 530.77184446 124.73574337 501.18029133 124.39916992 471.58843994 C124.38783925 470.59026387 124.37650857 469.59208779 124.36483455 468.56366396 C124.26140416 459.45499978 124.15730119 450.34634334 124.05275631 441.23769188 C123.37142501 381.84557106 122.70075566 322.45474685 122.66203839 263.05809885 C122.65888653 258.4440864 122.65113574 253.83009823 122.64157104 249.21609497 C122.63002813 243.1803457 122.62935023 237.14469887 122.63828087 231.10894585 C122.64028955 228.95577491 122.63922863 226.8025983 122.63468361 224.64943123 C122.61582587 213.92436899 122.73558764 203.60647479 124.90698242 193.06109619 C125.28016602 191.24738525 125.28016602 191.24738525 125.66088867 189.39703369 C130.49354595 171.70063651 139.90056902 156.20709816 149.58029175 140.78413391 C152.6252556 135.92134291 155.63942895 131.03944062 158.65795898 126.16021729 C159.25988068 125.18755417 159.86180237 124.21489105 160.48196411 123.2127533 C161.95711888 120.82895953 163.4321209 118.4450714 164.90698242 116.06109619 C163.81596841 116.06389364 163.81596841 116.06389364 162.7029137 116.06674761 C105.82747626 116.20454424 48.96077032 115.8223928 -7.91220688 115.31868449 C-20.47902869 115.20749446 -33.04588166 115.10002046 -45.61273611 114.99259406 C-68.1181498 114.80009366 -90.62353574 114.60451366 -113.12890625 114.40704346 C-134.71384841 114.21764991 -156.29880748 114.03036731 -177.88378906 113.84552002 C-178.54853627 113.83982686 -179.21328347 113.8341337 -179.89817453 113.82826802 C-181.90990192 113.81103883 -183.92162931 113.7938103 -185.9333567 113.77658182 C-188.60903356 113.75366688 -191.2847104 113.73075056 -193.96038723 113.70783329 C-194.62126883 113.7021733 -195.28215043 113.69651332 -195.96305874 113.69068182 C-217.55044225 113.50577874 -239.13780801 113.31882083 -260.72517173 113.1316235 C-268.16882338 113.06709765 -275.61247729 113.00284007 -283.05613321 112.93880734 C-344.06977643 112.41384802 -405.08176135 111.81646395 -466.09301758 111.06109619 C-464.50370539 113.771623 -462.91287091 116.48125341 -461.32177734 119.19073486 C-460.87549232 119.95190361 -460.42920731 120.71307236 -459.9693985 121.49730682 C-456.42858144 127.52439567 -452.76872453 133.46689863 -449.03051758 139.37359619 C-443.61656645 147.99605028 -438.23389136 156.63701636 -432.92190552 165.32266235 C-432.16748414 166.55433326 -431.41090764 167.78468697 -430.65206909 169.01364136 C-429.58873235 170.73677479 -428.534073 172.46525371 -427.47973633 174.19390869 C-426.87347412 175.18278076 -426.26721191 176.17165283 -425.64257812 177.19049072 C-415.89804286 195.24252249 -418.69265576 219.50305652 -418.83064723 239.37558079 C-418.85288329 242.93763281 -418.86359395 246.49968616 -418.87443668 250.06178832 C-418.91340696 262.72847825 -418.99875986 275.39471458 -419.09301758 288.06109619 C-419.10755469 290.05654905 -419.12208869 292.05200193 -419.13661957 294.04745483 C-419.345759 322.4389569 -419.62801421 350.82964956 -419.92548352 379.22034281 C-420.14275373 399.99327581 -420.34642986 420.76634939 -420.55098128 441.53941083 C-420.58514243 445.00396094 -420.61945825 448.46850949 -420.65380287 451.93305779 C-420.94774619 481.62783374 -421.2115124 511.32257742 -421.41333008 541.01812744 C-421.41889931 541.8339254 -421.42446854 542.64972337 -421.43020654 543.49024248 C-421.53249492 558.49533494 -421.62951852 573.50045569 -421.71606046 588.50564754 C-421.75749612 595.68169659 -421.80113858 602.85772984 -421.84692383 610.03375244 C-421.85473059 611.2578117 -421.86253735 612.48187096 -421.87058067 613.74302292 C-421.96920507 628.60768793 -422.12562122 643.47069619 -422.3425293 658.33404541 C-422.35270529 659.03139872 -422.36288128 659.72875203 -422.37336564 660.44723725 C-422.59254122 675.31885351 -422.84749769 690.18989592 -423.09301758 705.06109619 C-460.71301758 705.06109619 -498.33301758 705.06109619 -537.09301758 705.06109619 C-537.33357485 666.62565215 -537.33357485 666.62565215 -537.4200592 652.26730347 C-537.42549683 651.36465376 -537.43093445 650.46200406 -537.43653686 649.53200133 C-537.99259618 557.09503192 -538.35864055 464.65847076 -538.60305993 372.22019193 C-538.64019624 358.18766149 -538.67963716 344.15513909 -538.72070312 330.12261963 C-538.84974306 285.95056041 -538.96493732 241.77850486 -539.05554901 197.60634908 C-539.07943041 185.9842297 -539.10690573 174.36212451 -539.13714757 162.74002002 C-539.17527621 148.07831427 -539.20675201 133.4166206 -539.22600287 118.75487697 C-539.23533397 111.76261467 -539.24764468 104.77039309 -539.26904488 97.77815628 C-539.28853776 91.40778918 -539.29790507 85.0374604 -539.30006337 78.66706324 C-539.30245275 76.37242842 -539.30823154 74.07779405 -539.31778026 71.78317785 C-539.3986977 51.52059154 -537.78603805 37.05976032 -526.09301758 20.06109619 C-525.6315332 19.37531494 -525.17004883 18.68953369 -524.69458008 17.98297119 C-516.51134278 7.10352276 -498.86664175 4.31478413 -486.18187815 2.46794885 C-476.0554725 1.13413821 -465.98098885 0.90944195 -455.77882385 0.90287781 C-454.25412328 0.89829827 -452.72942393 0.89329534 -451.20472598 0.88791102 C-447.02818537 0.87439844 -442.85165287 0.866922 -438.67509617 0.86048284 C-434.12836237 0.85241601 -429.58164473 0.83874347 -425.0349226 0.82582664 C-416.02899662 0.80115071 -407.02306634 0.78178397 -398.01712419 0.76411635 C-390.53562385 0.74929019 -383.05413147 0.73220539 -375.57263947 0.71365929 C-374.49267482 0.71098266 -373.41271017 0.70830603 -372.30001932 0.7055483 C-370.09773622 0.70008129 -367.89545313 0.69461047 -365.69317006 0.6891359 C-338.47739963 0.62186709 -311.26160798 0.56655156 -284.04580736 0.51315403 C-276.68253437 0.49868828 -269.31926207 0.48389471 -261.95598984 0.46904755 C-203.33615768 0.35102175 -144.71630978 0.24629587 -86.096434 0.1524992 C-57.39761214 0.10655323 -28.69880021 0.0580492 0 0 Z " fill="#89C148" transform="translate(591.093017578125,50.93890380859375)"/>
<path d="M0 0 C28.38 0 56.76 0 86 0 C84.88072973 7.83489192 84.88072973 7.83489192 83.94921875 11.6171875 C83.64612793 12.88030762 83.64612793 12.88030762 83.33691406 14.16894531 C83.12260742 15.06194336 82.90830078 15.95494141 82.6875 16.875 C80.72110458 25.28887587 79.10587199 33.71662025 77.75 42.25 C77.58717529 43.27206543 77.42435059 44.29413086 77.2565918 45.34716797 C76.81223824 48.2285046 76.39600687 51.11164579 76 54 C75.89469971 54.75547119 75.78939941 55.51094238 75.6809082 56.28930664 C74.72407192 64.28134859 74.74241508 72.33477219 74.70483398 80.37329102 C74.69338634 82.06673588 74.67305079 83.76014675 74.64331055 85.45336914 C74.22168648 109.58958053 78.8288041 131.57875334 95.64648438 149.54785156 C97.68828785 151.73844447 99.64678763 154.0020314 101.625 156.25 C108.35216089 163.63317835 115.27737195 170.39689756 123.08203125 176.640625 C125.55984711 178.64410663 127.97986693 180.69781683 130.38671875 182.78540039 C142.96360898 193.64960013 156.51566733 203.32150056 170.11254883 212.85644531 C203.700932 236.42077661 203.700932 236.42077661 207.25 253.4375 C209.22740389 265.92725621 204.7687926 278.75236304 197.625 289 C184.92138288 306.13316782 165.87459591 318.22572667 148.58105469 330.35205078 C136.05805911 339.15129848 123.7303116 348.16300185 112 358 C111.18660156 358.61359375 110.37320313 359.2271875 109.53515625 359.859375 C99.64133175 368.21348259 93.10931182 380.22452938 87.27783203 391.57861328 C85.96737886 394.06181437 84.56737884 396.47745982 83.15234375 398.90234375 C75.29613592 412.96411276 74.83798237 425.16101048 76 441 C76.0626001 442.11914795 76.1252002 443.2382959 76.18969727 444.39135742 C76.69565106 452.85410034 77.83223035 461.0936559 79.3125 469.4375 C79.53252686 470.71592773 79.75255371 471.99435547 79.97924805 473.31152344 C81.09415306 479.61095789 82.36385936 485.66049799 84.3125 491.75 C87.3948296 502.11108384 86.33006541 513.30461121 86 524 C44.22978001 522.10716328 44.22978001 522.10716328 27.83642578 520.69775391 C18.55311588 519.90715601 9.33043776 519.49107567 0 519 C0 347.73 0 176.46 0 0 Z " fill="#88BF48" transform="translate(200,232)"/>
<path d="M0 0 C26.4 0 52.8 0 80 0 C80 171.27 80 342.54 80 519 C39.85202933 524.18038331 39.85202933 524.18038331 24.44921875 524.09765625 C23.42439896 524.0962413 22.39957916 524.09482635 21.34370422 524.09336853 C18.1249376 524.08784696 14.90624499 524.0753102 11.6875 524.0625 C9.48242289 524.05747483 7.27734467 524.05291372 5.07226562 524.04882812 C-0.28518078 524.03790343 -5.6425851 524.02124601 -11 524 C-10.3772558 520.46624278 -9.44036351 517.28105566 -8.15625 513.93359375 C-5.97501637 508.05036568 -4.18221279 502.10531706 -2.5 496.0625 C-2.19811768 494.98000977 -1.89623535 493.89751953 -1.58520508 492.78222656 C1.10567049 482.94337414 3.27585084 473.05127552 5 463 C5.17660156 462.04230713 5.35320312 461.08461426 5.53515625 460.09790039 C7.03889832 451.3755251 7.39788845 442.76646615 7.375 433.9375 C7.37512085 433.21754852 7.3752417 432.49759705 7.37536621 431.75582886 C7.3469532 419.82913537 6.38322162 408.48482912 3 397 C2.71125 395.99710938 2.4225 394.99421875 2.125 393.9609375 C-9.16146575 361.41157645 -50.5551209 338.65238336 -77.1875 320.375 C-85.51316809 314.65924603 -93.81909509 308.92191956 -102 303 C-103.05574219 302.24074219 -104.11148437 301.48148438 -105.19921875 300.69921875 C-112.53466526 295.10299944 -117.16686682 288.7732892 -122 281 C-122.556875 280.16984375 -123.11375 279.3396875 -123.6875 278.484375 C-127.59134066 271.09496233 -127.14301347 259.13667501 -125.3515625 251.0859375 C-118.82156192 233.50516671 -102.6060315 220.80816689 -88 210 C-87.3287207 209.50032715 -86.65744141 209.0006543 -85.96582031 208.48583984 C-77.2118624 201.99416343 -68.28447148 195.81301175 -59.1875 189.8125 C-48.20705686 182.559801 -37.88265661 174.95836537 -28.19921875 166.0078125 C-26.32698468 164.29852598 -24.41469465 162.70856551 -22.4375 161.125 C-13.79021295 153.73329093 -7.11436874 143.52859654 -1 134 C-0.57737381 133.46958099 -0.15474762 132.93916199 0.28068542 132.39266968 C5.87742873 124.3861046 4.70190209 114.78801322 4.62890625 105.453125 C4.62973727 103.51763781 4.63220539 101.5821507 4.63621521 99.64666748 C4.63906967 95.58486727 4.62443402 91.52361928 4.59692383 87.46191406 C4.56329262 82.34635658 4.56905328 77.23180625 4.5871067 72.11620331 C4.64828099 50.66326242 4.25930075 29.75965875 0.35826111 8.60931396 C0 6 0 6 0 0 Z " fill="#88BF48" transform="translate(600,232)"/>
<path d="M0 0 C82.17 0 164.34 0 249 0 C250.99477231 4.65446873 252.58540118 8.64835661 253.90234375 13.4375 C254.41063721 15.26474609 254.41063721 15.26474609 254.92919922 17.12890625 C255.10408875 17.76328613 255.27897827 18.39766602 255.45916748 19.05126953 C256.18460704 21.66517702 256.93285641 24.27231296 257.68154907 26.87963867 C258.45363016 29.57128088 259.21798332 32.26509412 259.98217773 34.95898438 C260.36919344 36.32013345 260.75786705 37.68081221 261.14819336 39.04101562 C268.59442023 65.00479205 268.59442023 65.00479205 268.375 76.3125 C268.36484863 77.10519287 268.35469727 77.89788574 268.34423828 78.71459961 C267.8404472 98.36830978 262.1575807 111.27084678 248 125 C218.54954658 150.27790154 176.21388394 152.11922083 139.38671875 152.203125 C138.53146921 152.20595238 137.67621967 152.20877975 136.79505348 152.21169281 C132.27327815 152.22653937 127.75153355 152.23586157 123.22973633 152.24023438 C118.62461705 152.24571497 114.01979393 152.26977697 109.41476727 152.29820633 C105.81196827 152.3170482 102.20923786 152.32204948 98.60639381 152.32357025 C96.91114487 152.32654613 95.21589556 152.33439646 93.52069664 152.34775543 C64.98736451 152.55668757 36.86765623 145.93493703 11 134 C10.23848633 133.65678711 9.47697266 133.31357422 8.69238281 132.95996094 C0.40788668 129.17138716 -6.16934573 125.67530525 -10 117 C-10.51820313 115.86949219 -11.03640625 114.73898437 -11.5703125 113.57421875 C-19.14405384 95.93851322 -19.88585225 76.93066268 -19 58 C-18.95166016 56.8960791 -18.90332031 55.7921582 -18.85351562 54.65478516 C-18.10124985 40.3758909 -16.21578712 28.66415407 -8.66796875 16.37890625 C-5.45399743 11.1038523 -2.76245564 5.52491128 0 0 Z " fill="#88BF48" transform="translate(318,238)"/>
<path d="M0 0 C19.01661289 6.11104165 36.51212418 15.83524608 53 27 C53.70447266 27.47324707 54.40894531 27.94649414 55.13476562 28.43408203 C59.79360965 31.57067586 64.40488571 34.77100077 69 38 C69.61746094 38.43054688 70.23492188 38.86109375 70.87109375 39.3046875 C87.63878745 51.00307845 103.8434071 63.94232569 115.9375 80.625 C116.34427979 81.18018311 116.75105957 81.73536621 117.17016602 82.30737305 C124.15781316 92.44755074 120.99801206 108.39055634 120.5625 120.125 C120.50376709 121.7797937 120.50376709 121.7797937 120.44384766 123.46801758 C120.38076416 125.03459106 120.38076416 125.03459106 120.31640625 126.6328125 C120.27974854 127.57012207 120.24309082 128.50743164 120.20532227 129.47314453 C120.01910649 131.76486067 119.63584268 133.79604708 119 136 C91.25680934 136.61018748 91.25680934 136.61018748 79 133 C78.19095215 132.79866455 77.3819043 132.5973291 76.54833984 132.38989258 C69.82261501 130.68505466 63.73461288 128.34310989 57.5 125.3125 C56.5829126 124.86825684 55.6658252 124.42401367 54.72094727 123.96630859 C30.02125719 111.73604543 13.0320642 89.80409056 3.26171875 64.34765625 C-0.99522203 50.78226918 -0.23678973 36.73187562 -0.125 22.6875 C-0.11494967 20.48242594 -0.10582746 18.27734745 -0.09765625 16.07226562 C-0.07580655 10.71474564 -0.04249185 5.35739398 0 0 Z " fill="#87BD47" transform="translate(464,556)"/>
<path d="M0 0 C1.75570312 0.01353516 1.75570312 0.01353516 3.546875 0.02734375 C4.43890625 0.03894531 5.3309375 0.05054688 6.25 0.0625 C6.32534442 5.18128403 6.37915241 10.2997306 6.41479492 15.41894531 C6.4296861 17.15272661 6.45000587 18.88647161 6.47631836 20.62011719 C6.64713281 32.1819112 5.90080683 42.7809134 3.25 54.0625 C2.95959839 55.3306958 2.95959839 55.3306958 2.66333008 56.62451172 C-3.72948732 82.76737438 -17.6373391 103.9135799 -40.75 118.0625 C-63.20959639 130.54916125 -87.49800782 132.32082157 -112.75 129.0625 C-112.83860651 124.83347009 -112.89092245 120.60468507 -112.9375 116.375 C-112.96263672 115.19615234 -112.98777344 114.01730469 -113.01367188 112.80273438 C-113.10571748 101.60385236 -111.4746488 91.09501374 -106.1875 81.125 C-105.84380371 80.46169678 -105.50010742 79.79839355 -105.14599609 79.11499023 C-95.81561259 61.6293607 -82.71957056 50.51563255 -67.03857422 38.77734375 C-64.81262872 37.10942811 -62.59567735 35.43007915 -60.37890625 33.75 C-50.97549874 26.67479052 -41.33836504 19.98329095 -31.5625 13.4375 C-30.98300598 13.04768951 -30.40351196 12.65787903 -29.80645752 12.2562561 C-11.38144412 -0.11381444 -11.38144412 -0.11381444 0 0 Z " fill="#86BD47" transform="translate(414.75,556.9375)"/>
<path d="M0 0 C57.04572565 0 57.04572565 0 70.15234375 11.96484375 C81.09910323 23.23776366 82.31971155 36.16221212 82.14453125 51.0390625 C81.863712 63.2444262 78.81140945 74.14767716 70.375 83.375 C51.46029249 100.66844687 23.31492875 95 0 95 C0 63.65 0 32.3 0 0 Z " fill="#FCFCFC" transform="translate(180,878)"/>
<path d="M0 0 C22 0 22 0 27.12109375 4.84375 C28.86181641 8.02734375 28.86181641 8.02734375 30.4375 11.5 C31.05267263 12.6831159 31.6770595 13.86148136 32.31005859 15.03515625 C33.60891797 17.45883919 34.86655851 19.89795216 36.10009766 22.35546875 C39.05189208 28.13741718 42.61936407 33.54342029 46.125 39 C47.31822235 40.89387232 48.50847251 42.7896215 49.6953125 44.6875 C50.24606445 45.56535156 50.79681641 46.44320312 51.36425781 47.34765625 C53.55184847 50.89481818 55.6509088 54.49211118 57.73388672 58.1015625 C58.86661288 60.13996659 58.86661288 60.13996659 61 61 C61 40.87 61 20.74 61 0 C66.94 0 72.88 0 79 0 C79 31.35 79 62.7 79 95 C60 95 60 95 56.0625 91.25 C55.00191184 89.1866214 53.98796125 87.09912149 53 85 C51.70822183 82.76375886 50.36494726 80.5631752 49.01782227 78.35986328 C47.45675393 75.80420081 45.9264208 73.2318109 44.3984375 70.65625 C40.12562491 63.50200844 35.68936808 56.45084781 31.25195312 49.39794922 C30.65576172 48.44936035 30.05957031 47.50077148 29.4453125 46.5234375 C28.86942383 45.60788086 28.29353516 44.69232422 27.70019531 43.74902344 C25.48481685 40.16700715 23.36139467 36.5336095 21.25732422 32.88525391 C20.13102474 30.85885268 20.13102474 30.85885268 18 30 C18 51.45 18 72.9 18 95 C12.06 95 6.12 95 0 95 C0 63.65 0 32.3 0 0 Z " fill="#FDFDFD" transform="translate(523,878)"/>
<path d="M0 0 C20.79 0 41.58 0 63 0 C63 5.28 63 10.56 63 16 C48.48 16 33.96 16 19 16 C19 23.26 19 30.52 19 38 C31.54 38 44.08 38 57 38 C57 42.95 57 47.9 57 53 C44.46 53 31.92 53 19 53 C19 61.58 19 70.16 19 79 C33.85 79 48.7 79 64 79 C64 84.28 64 89.56 64 95 C42.88 95 21.76 95 0 95 C0 63.65 0 32.3 0 0 Z " fill="#FCFCFC" transform="translate(441,878)"/>
<path d="M0 0 C20.79 0 41.58 0 63 0 C63 5.28 63 10.56 63 16 C48.48 16 33.96 16 19 16 C19 23.26 19 30.52 19 38 C31.54 38 44.08 38 57 38 C57 42.95 57 47.9 57 53 C44.46 53 31.92 53 19 53 C19 61.58 19 70.16 19 79 C33.85 79 48.7 79 64 79 C64 84.28 64 89.56 64 95 C42.88 95 21.76 95 0 95 C0 63.65 0 32.3 0 0 Z " fill="#FCFCFC" transform="translate(282,878)"/>
<path d="M0 0 C1.07314453 -0.02449219 2.14628906 -0.04898438 3.25195312 -0.07421875 C14.56071441 -0.11526689 23.24034265 3.00638336 31.8125 10.375 C31.18856349 14.13619476 29.46476285 16.56460042 27.25 19.625 C26.60933594 20.51703125 25.96867188 21.4090625 25.30859375 22.328125 C24.81488281 23.00359375 24.32117188 23.6790625 23.8125 24.375 C19.80723783 23.5394937 17.20269007 21.65818923 13.8125 19.375 C9.32802689 17.07194329 5.24031671 17.04122273 0.3125 17.0625 C-0.80705078 17.03833008 -0.80705078 17.03833008 -1.94921875 17.01367188 C-6.51486238 17.00963148 -9.47246163 17.43869083 -13.1875 20.375 C-14.79098103 23.58196206 -14.66481388 26.895451 -14.1875 30.375 C-11.40858311 34.65916354 -6.9581353 36.11549599 -2.1875 37.375 C-0.33271452 37.68817184 1.52235837 38.00003842 3.38037109 38.29345703 C13.76477533 39.96708876 24.76830578 42.8185296 31.5625 51.5 C36.51108686 59.04816096 36.52205866 66.63575221 35.8125 75.375 C34.21754279 82.60483597 30.69520321 87.90652241 24.8125 92.375 C17.02421158 97.14987589 10.249257 97.60553955 1.25 97.6875 C-0.30170898 97.73100586 -0.30170898 97.73100586 -1.88476562 97.77539062 C-14.6135075 97.87900593 -24.8098425 93.11427221 -34.3125 84.8125 C-36.1875 82.375 -36.1875 82.375 -36.046875 80.0546875 C-35.00043941 76.79171106 -33.46413587 74.7224894 -31.3125 72.0625 C-30.26449219 70.73798828 -30.26449219 70.73798828 -29.1953125 69.38671875 C-28.53273438 68.72285156 -27.87015625 68.05898438 -27.1875 67.375 C-26.1975 67.375 -25.2075 67.375 -24.1875 67.375 C-23.383125 68.40625 -22.57875 69.4375 -21.75 70.5 C-16.88089485 76.38849909 -10.27903321 79.81096943 -2.73046875 80.8515625 C2.9893673 80.99537552 8.10538223 80.96727409 12.8125 77.375 C15.22793818 74.47647418 15.77698117 72.62363178 16.3125 68.875 C16.05845016 65.3396592 16.05845016 65.3396592 14.0625 62.6875 C8.2929823 58.58226625 1.63470946 56.99201448 -5.2109375 55.44921875 C-16.0808636 52.99039293 -24.62381362 49.83443037 -31.1875 40.375 C-34.73338878 34.26139865 -35.01332153 28.35364566 -34.1875 21.375 C-31.8109511 13.27035889 -27.49117253 7.90582483 -20.3828125 3.48828125 C-13.63647084 0.06709376 -7.43328137 0.00877083 0 0 Z " fill="#FBFBFB" transform="translate(655.1875,876.625)"/>
<path d="M0 0 C20.79 0 41.58 0 63 0 C63 5.28 63 10.56 63 16 C48.48 16 33.96 16 19 16 C19 23.26 19 30.52 19 38 C31.54 38 44.08 38 57 38 C57 42.95 57 47.9 57 53 C44.13 53 31.26 53 18 53 C18 61.58 18 70.16 18 79 C33.18 79 48.36 79 64 79 C64 84.28 64 89.56 64 95 C42.88 95 21.76 95 0 95 C0 63.65 0 32.3 0 0 Z " fill="#FCFCFC" transform="translate(843,878)"/>
<path d="M0 0 C6.6 0 13.2 0 20 0 C21.63773589 4.74582899 23.27409815 9.49209104 24.90722656 14.23950195 C25.46115299 15.84848813 26.01581853 17.45722007 26.57128906 19.06567383 C29.54783416 27.68637167 32.45711793 36.30913283 35.09716797 45.0402832 C36.54985619 49.80257073 38.11413315 54.52647163 39.6875 59.25 C39.99494141 60.18457031 40.30238281 61.11914062 40.61914062 62.08203125 C40.91369141 62.96761719 41.20824219 63.85320313 41.51171875 64.765625 C41.77428467 65.55743164 42.03685059 66.34923828 42.30737305 67.16503906 C42.85209135 68.98937103 42.85209135 68.98937103 44 70 C46.42668188 62.48044964 48.85224937 54.96054108 51.27644062 47.44018745 C52.40242688 43.94725664 53.52877981 40.454445 54.65600586 36.96191406 C55.74620159 33.58406754 56.83538826 30.20589711 57.92391014 26.82751083 C58.53634312 24.92760289 59.14978931 23.02802165 59.76325989 21.12844849 C61.72423702 15.03936501 63.64058462 8.94706267 65.4025116 2.79708862 C66 1 66 1 67 0 C68.41570123 -0.08651611 69.835595 -0.10704904 71.25390625 -0.09765625 C72.53491211 -0.09282227 72.53491211 -0.09282227 73.84179688 -0.08789062 C75.18854492 -0.07532227 75.18854492 -0.07532227 76.5625 -0.0625 C77.46419922 -0.05798828 78.36589844 -0.05347656 79.29492188 -0.04882812 C81.53001634 -0.03700223 83.76496493 -0.01968245 86 0 C84.76364175 5.99884891 83.22638384 11.80214067 81.3203125 17.62109375 C81.06627655 18.40589615 80.8122406 19.19069855 80.55050659 19.99928284 C80.01632143 21.64609284 79.48009318 23.29224142 78.94189453 24.93774414 C78.12873119 27.4260823 77.32367264 29.91693674 76.51953125 32.40820312 C74.2440983 39.42139875 71.93058203 46.35237949 69.09912109 53.16333008 C66.1780039 60.70230402 63.78409301 68.44936927 61.25 76.125 C60.64220751 77.95842632 60.03413695 79.79176048 59.42578125 81.625 C57.94679289 86.08211479 56.47353541 90.5410648 55 95 C47.41 95 39.82 95 32 95 C27.50068129 83.75170323 27.50068129 83.75170323 26.05224609 79.36791992 C25.7241394 78.38025131 25.39603271 77.3925827 25.0579834 76.37498474 C24.71658325 75.33729446 24.37518311 74.29960419 24.0234375 73.23046875 C23.65609497 72.12296768 23.28875244 71.01546661 22.91027832 69.87440491 C21.7292796 66.3129498 20.5521688 62.75022261 19.375 59.1875 C17.76256813 54.32089924 16.14755358 49.45515991 14.53125 44.58984375 C14.13767303 43.40476227 13.74409607 42.21968079 13.33859253 40.99868774 C9.86248015 30.54991524 6.29780201 20.13411604 2.64208984 9.74682617 C2.28324707 8.72177979 1.9244043 7.6967334 1.5546875 6.640625 C1.25030762 5.77985352 0.94592773 4.91908203 0.63232422 4.03222656 C0 2 0 2 0 0 Z " fill="#FCFCFC" transform="translate(742,878)"/>
<path d="M0 0 C19.8 0 39.6 0 60 0 C60 5.28 60 10.56 60 16 C46.47 16 32.94 16 19 16 C19 24.25 19 32.5 19 41 C31.21 41 43.42 41 56 41 C56 46.28 56 51.56 56 57 C43.79 57 31.58 57 19 57 C19 69.54 19 82.08 19 95 C12.73 95 6.46 95 0 95 C0 63.65 0 32.3 0 0 Z " fill="#FBFBFB" transform="translate(364,878)"/>
<path d="M0 0 C27.92783505 0 27.92783505 0 35.40234375 5.89453125 C35.90894531 6.52746094 36.41554687 7.16039062 36.9375 7.8125 C37.46214844 8.43769531 37.98679688 9.06289063 38.52734375 9.70703125 C42.88316649 16.48917434 43.47234469 21.87890803 43.375 29.8125 C43.38660156 30.74642578 43.39820313 31.68035156 43.41015625 32.64257812 C43.37016057 42.24820814 41.6489068 50.31121778 34.8984375 57.375 C25.3727094 65.52870965 11.43263321 63 0 63 C0 42.21 0 21.42 0 0 Z " fill="#232323" transform="translate(199,894)"/>
<path d="M0 0 C5.94 0 11.88 0 18 0 C18 31.35 18 62.7 18 95 C12.06 95 6.12 95 0 95 C0 63.65 0 32.3 0 0 Z " fill="#FFFFFF" transform="translate(709,878)"/>
<path d="M0 0 C21.45 0 42.9 0 65 0 C65 19.47 65 38.94 65 59 C62.20476191 56.20476191 60.0915166 53.91604397 57.86328125 50.76953125 C57.29077637 49.9707959 56.71827148 49.17206055 56.12841797 48.34912109 C55.52916504 47.51203613 54.92991211 46.67495117 54.3125 45.8125 C40.39618062 26.71567916 22.636412 13.15329444 0 6 C0 4.02 0 2.04 0 0 Z " fill="#F0F0F0" transform="translate(1015,0)"/>
<path d="M0 0 C1.98 0 3.96 0 6 0 C6 21.45 6 42.9 6 65 C-15.12 65 -36.24 65 -58 65 C-54.50491608 61.50491608 -51.25779966 59.13685641 -47.0625 56.6875 C-46.40515869 56.29723633 -45.74781738 55.90697266 -45.07055664 55.50488281 C-40.7531464 52.96248284 -36.37277289 50.57979277 -31.9375 48.25 C-13.27719579 38.23715384 -6.38635222 19.11376338 0 0 Z " fill="#EEEEEE" transform="translate(1074,1015)"/>
<path d="M0 0 C4.50446841 4.50446841 4.50446841 4.50446841 6.21875 7.57421875 C6.59128906 8.23728027 6.96382813 8.9003418 7.34765625 9.58349609 C7.72792969 10.27781738 8.10820312 10.97213867 8.5 11.6875 C9.10134766 12.76378662 9.10134766 12.76378662 9.71484375 13.86181641 C11.70604792 17.46801774 13.50844878 21.02873134 15 24.875 C22.33385268 41.94405536 43.51640221 50.11414454 59 58 C59 59.98 59 61.96 59 64 C39.53 64 20.06 64 0 64 C0 42.88 0 21.76 0 0 Z " fill="#EEEEEE" transform="translate(0,1016)"/>
<path d="M0 0 C19.47 0 38.94 0 59 0 C55.31338153 3.68661847 51.74168501 6.82807655 47.625 9.9375 C31.27068983 22.57234788 16.88315391 37.26325393 4.7434082 53.97216797 C3.5149599 55.66234984 2.2601644 57.33333096 1 59 C0.67 59 0.34 59 0 59 C0 39.53 0 20.06 0 0 Z " fill="#F0F0F0" transform="translate(0,0)"/>
</svg>
